<?xml version="1.0" encoding="UTF-8" standalone="no"?>
<!DOCTYPE svg PUBLIC "-//W3C//DTD SVG 1.1//EN"
 "http://www.w3.org/Graphics/SVG/1.1/DTD/svg11.dtd">
<!-- Generated by graphviz version 2.44.1 (20200629.0846)
 -->
<!-- Title: dependency&#45;cruiser output Pages: 1 -->
<svg width="164pt" height="76pt"
 viewBox="0.00 0.00 164.00 76.00" xmlns="http://www.w3.org/2000/svg" xmlns:xlink="http://www.w3.org/1999/xlink">
<g id="graph0" class="graph" transform="scale(1 1) rotate(0) translate(4 72)">
<title>dependency&#45;cruiser output</title>
<polygon fill="#f2f2f2" stroke="transparent" points="-4,4 -4,-72 160,-72 160,4 -4,4"/>
<g id="clust1" class="cluster">
<title>cluster_central&#45;api&#45;broker</title>
<path fill="transparent" stroke="#53565a" stroke-width="2" d="M12,-8C12,-8 82,-8 82,-8 88,-8 94,-14 94,-20 94,-20 94,-48 94,-48 94,-54 88,-60 82,-60 82,-60 12,-60 12,-60 6,-60 0,-54 0,-48 0,-48 0,-20 0,-20 0,-14 6,-8 12,-8"/>
<text text-anchor="middle" x="47" y="-48.8" font-family="Helvetica,sans-Serif" font-weight="bold" font-size="9.00" fill="#53565a">central&#45;api&#45;broker</text>
</g>
<!-- central&#45;api&#45;broker/src -->
<g id="node1" class="node">
<title>central&#45;api&#45;broker/src</title>
<g id="a_node1"><a xlink:href="central-api-broker/src" xlink:title="src">
<polygon fill="#777777" stroke="#f2f2f2" points="74,-34 22,-34 20,-32 20,-16 72,-16 74,-18 74,-34"/>
<polyline fill="none" stroke="#f2f2f2" points="72,-32 20,-32 "/>
<polyline fill="none" stroke="#f2f2f2" points="72,-32 72,-16 "/>
<polyline fill="none" stroke="#f2f2f2" points="72,-32 74,-34 "/>
<text text-anchor="middle" x="47" y="-22.8" font-family="Helvetica,sans-Serif" font-size="9.00" fill="#f2f2f2">src</text>
</a>
</g>
</g>
<!-- hrpos&#45;lib -->
<g id="node2" class="node">
<title>hrpos&#45;lib</title>
<g id="a_node2"><a xlink:href="hrpos-lib" xlink:title="hrpos&#45;lib">
<polygon fill="#d60007" stroke="#f2f2f2" points="156,-34 104,-34 102,-32 102,-16 154,-16 156,-18 156,-34"/>
<polyline fill="none" stroke="#f2f2f2" points="154,-32 102,-32 "/>
<polyline fill="none" stroke="#f2f2f2" points="154,-32 154,-16 "/>
<polyline fill="none" stroke="#f2f2f2" points="154,-32 156,-34 "/>
<text text-anchor="middle" x="129" y="-22.8" font-family="Helvetica,sans-Serif" font-size="9.00" fill="#f2f2f2">hrpos&#45;lib</text>
</a>
</g>
</g>
<!-- central&#45;api&#45;broker/src&#45;&gt;hrpos&#45;lib -->
<g id="edge1" class="edge">
<title>central&#45;api&#45;broker/src&#45;&gt;hrpos&#45;lib</title>
<path fill="none" stroke="#7fa9ae" stroke-dasharray="5,2" d="M74.3,-25C74.3,-25 96.81,-25 96.81,-25"/>
<polygon fill="green" stroke="#7fa9ae" points="101.81,-25 96.81,-27.25 99.31,-25 96.81,-25 96.81,-25 96.81,-25 99.31,-25 96.81,-22.75 101.81,-25 101.81,-25"/>
</g>
</g>
</svg>
