<?xml version="1.0" encoding="UTF-8" standalone="no"?>
<!DOCTYPE svg PUBLIC "-//W3C//DTD SVG 1.1//EN"
 "http://www.w3.org/Graphics/SVG/1.1/DTD/svg11.dtd">
<!-- Generated by graphviz version 2.44.1 (20200629.0846)
 -->
<!-- Title: dependency&#45;cruiser output Pages: 1 -->
<svg width="248pt" height="138pt"
 viewBox="0.00 0.00 247.50 138.00" xmlns="http://www.w3.org/2000/svg" xmlns:xlink="http://www.w3.org/1999/xlink">
<g id="graph0" class="graph" transform="scale(1 1) rotate(0) translate(4 134)">
<title>dependency&#45;cruiser output</title>
<polygon fill="#f2f2f2" stroke="transparent" points="-4,4 -4,-134 243.5,-134 243.5,4 -4,4"/>
<g id="clust1" class="cluster">
<title>cluster_central&#45;api</title>
<path fill="transparent" stroke="#53565a" stroke-width="2" d="M20,-56C20,-56 219.5,-56 219.5,-56 225.5,-56 231.5,-62 231.5,-68 231.5,-68 231.5,-110 231.5,-110 231.5,-116 225.5,-122 219.5,-122 219.5,-122 20,-122 20,-122 14,-122 8,-116 8,-110 8,-110 8,-68 8,-68 8,-62 14,-56 20,-56"/>
<text text-anchor="middle" x="119.75" y="-110.8" font-family="Helvetica,sans-Serif" font-weight="bold" font-size="9.00" fill="#53565a">central&#45;api</text>
</g>
<!-- central&#45;api/api -->
<g id="node1" class="node">
<title>central&#45;api/api</title>
<g id="a_node1"><a xlink:href="central-api/api" xlink:title="api">
<polygon fill="#d60007" stroke="#f2f2f2" points="70,-82 18,-82 16,-80 16,-64 68,-64 70,-66 70,-82"/>
<polyline fill="none" stroke="#f2f2f2" points="68,-80 16,-80 "/>
<polyline fill="none" stroke="#f2f2f2" points="68,-80 68,-64 "/>
<polyline fill="none" stroke="#f2f2f2" points="68,-80 70,-82 "/>
<text text-anchor="middle" x="43" y="-70.8" font-family="Helvetica,sans-Serif" font-size="9.00" fill="#f2f2f2">api</text>
</a>
</g>
</g>
<!-- central&#45;api/utils -->
<g id="node2" class="node">
<title>central&#45;api/utils</title>
<g id="a_node2"><a xlink:href="central-api/utils" xlink:title="utils">
<polygon fill="#d60007" stroke="#f2f2f2" points="223.5,-89 171.5,-89 169.5,-87 169.5,-71 221.5,-71 223.5,-73 223.5,-89"/>
<polyline fill="none" stroke="#f2f2f2" points="221.5,-87 169.5,-87 "/>
<polyline fill="none" stroke="#f2f2f2" points="221.5,-87 221.5,-71 "/>
<polyline fill="none" stroke="#f2f2f2" points="221.5,-87 223.5,-89 "/>
<text text-anchor="middle" x="196.5" y="-77.8" font-family="Helvetica,sans-Serif" font-size="9.00" fill="#f2f2f2">utils</text>
</a>
</g>
</g>
<!-- central&#45;api/api&#45;&gt;central&#45;api/utils -->
<g id="edge1" class="edge">
<title>central&#45;api/api&#45;&gt;central&#45;api/utils</title>
<path fill="none" stroke="#777777" d="M43.5,-82.08C43.5,-84.02 43.5,-85.5 43.5,-85.5 43.5,-85.5 164.5,-85.5 164.5,-85.5"/>
<polygon fill="#777777" stroke="#777777" points="169.5,-85.5 164.5,-87.75 167,-85.5 164.5,-85.5 164.5,-85.5 164.5,-85.5 167,-85.5 164.5,-83.25 169.5,-85.5 169.5,-85.5"/>
</g>
<!-- hrpos&#45;lib -->
<g id="node3" class="node">
<title>hrpos&#45;lib</title>
<g id="a_node3"><a xlink:href="hrpos-lib" xlink:title="hrpos&#45;lib">
<polygon fill="#d60007" stroke="#f2f2f2" points="223.5,-18 171.5,-18 169.5,-16 169.5,0 221.5,0 223.5,-2 223.5,-18"/>
<polyline fill="none" stroke="#f2f2f2" points="221.5,-16 169.5,-16 "/>
<polyline fill="none" stroke="#f2f2f2" points="221.5,-16 221.5,0 "/>
<polyline fill="none" stroke="#f2f2f2" points="221.5,-16 223.5,-18 "/>
<text text-anchor="middle" x="196.5" y="-6.8" font-family="Helvetica,sans-Serif" font-size="9.00" fill="#f2f2f2">hrpos&#45;lib</text>
</a>
</g>
</g>
<!-- central&#45;api/api&#45;&gt;hrpos&#45;lib -->
<g id="edge2" class="edge">
<title>central&#45;api/api&#45;&gt;hrpos&#45;lib</title>
<path fill="none" stroke="#7fa9ae" stroke-dasharray="5,2" d="M43.5,-63.98C43.5,-45.28 43.5,-4 43.5,-4 43.5,-4 164.5,-4 164.5,-4"/>
<polygon fill="green" stroke="#7fa9ae" points="169.5,-4 164.5,-6.25 167,-4 164.5,-4 164.5,-4 164.5,-4 167,-4 164.5,-1.75 169.5,-4 169.5,-4"/>
</g>
<!-- hrpos&#45;models -->
<g id="node4" class="node">
<title>hrpos&#45;models</title>
<g id="a_node4"><a xlink:href="hrpos-models" xlink:title="hrpos&#45;models">
<polygon fill="#d60007" stroke="#f2f2f2" points="156,-26 85,-26 83,-24 83,-8 154,-8 156,-10 156,-26"/>
<polyline fill="none" stroke="#f2f2f2" points="154,-24 83,-24 "/>
<polyline fill="none" stroke="#f2f2f2" points="154,-24 154,-8 "/>
<polyline fill="none" stroke="#f2f2f2" points="154,-24 156,-26 "/>
<text text-anchor="middle" x="119.5" y="-14.8" font-family="Helvetica,sans-Serif" font-size="9.00" fill="#f2f2f2">hrpos&#45;models</text>
</a>
</g>
</g>
<!-- central&#45;api/api&#45;&gt;hrpos&#45;models -->
<g id="edge3" class="edge">
<title>central&#45;api/api&#45;&gt;hrpos&#45;models</title>
<path fill="none" stroke="#7fa9ae" stroke-dasharray="5,2" d="M70.26,-68.5C79.95,-68.5 88.5,-68.5 88.5,-68.5 88.5,-68.5 88.5,-31.45 88.5,-31.45"/>
<polygon fill="green" stroke="#7fa9ae" points="88.5,-26.45 90.75,-31.45 88.5,-28.95 88.5,-31.45 88.5,-31.45 88.5,-31.45 88.5,-28.95 86.25,-31.45 88.5,-26.45 88.5,-26.45"/>
</g>
<!-- central&#45;api/scripts -->
<g id="node5" class="node">
<title>central&#45;api/scripts</title>
<g id="a_node5"><a xlink:href="central-api/scripts" xlink:title="scripts">
<polygon fill="#d60007" stroke="#f2f2f2" points="146.5,-82 94.5,-82 92.5,-80 92.5,-64 144.5,-64 146.5,-66 146.5,-82"/>
<polyline fill="none" stroke="#f2f2f2" points="144.5,-80 92.5,-80 "/>
<polyline fill="none" stroke="#f2f2f2" points="144.5,-80 144.5,-64 "/>
<polyline fill="none" stroke="#f2f2f2" points="144.5,-80 146.5,-82 "/>
<text text-anchor="middle" x="119.5" y="-70.8" font-family="Helvetica,sans-Serif" font-size="9.00" fill="#f2f2f2">scripts</text>
</a>
</g>
</g>
<!-- central&#45;api/api&#45;&gt;central&#45;api/scripts -->
<g id="edge4" class="edge">
<title>central&#45;api/api&#45;&gt;central&#45;api/scripts</title>
<path fill="none" stroke="#777777" d="M70.19,-73C70.19,-73 87.4,-73 87.4,-73"/>
<polygon fill="#777777" stroke="#777777" points="92.4,-73 87.4,-75.25 89.9,-73 87.4,-73 87.4,-73 87.4,-73 89.9,-73 87.4,-70.75 92.4,-73 92.4,-73"/>
</g>
<!-- central&#45;api/scripts&#45;&gt;central&#45;api/api -->
<g id="edge5" class="edge">
<title>central&#45;api/scripts&#45;&gt;central&#45;api/api</title>
<path fill="none" stroke="#777777" d="M92.31,-77.5C92.31,-77.5 75.1,-77.5 75.1,-77.5"/>
<polygon fill="#777777" stroke="#777777" points="70.1,-77.5 75.1,-75.25 72.6,-77.5 75.1,-77.5 75.1,-77.5 75.1,-77.5 72.6,-77.5 75.1,-79.75 70.1,-77.5 70.1,-77.5"/>
</g>
<!-- central&#45;api/scripts&#45;&gt;central&#45;api/utils -->
<g id="edge6" class="edge">
<title>central&#45;api/scripts&#45;&gt;central&#45;api/utils</title>
<path fill="none" stroke="#777777" d="M146.86,-76.5C146.86,-76.5 164.48,-76.5 164.48,-76.5"/>
<polygon fill="#777777" stroke="#777777" points="169.48,-76.5 164.48,-78.75 166.98,-76.5 164.48,-76.5 164.48,-76.5 164.48,-76.5 166.98,-76.5 164.48,-74.25 169.48,-76.5 169.48,-76.5"/>
</g>
<!-- central&#45;api/scripts&#45;&gt;hrpos&#45;lib -->
<g id="edge7" class="edge">
<title>central&#45;api/scripts&#45;&gt;hrpos&#45;lib</title>
<path fill="none" stroke="#7fa9ae" stroke-dasharray="5,2" d="M146.98,-66.33C155.4,-66.33 162.5,-66.33 162.5,-66.33 162.5,-66.33 162.5,-13 162.5,-13 162.5,-13 164.38,-13 164.38,-13"/>
<polygon fill="green" stroke="#7fa9ae" points="169.38,-13 164.38,-15.25 166.88,-13 164.38,-13 164.38,-13 164.38,-13 166.88,-13 164.38,-10.75 169.38,-13 169.38,-13"/>
</g>
<!-- hrpos&#45;util -->
<g id="node6" class="node">
<title>hrpos&#45;util</title>
<g id="a_node6"><a xlink:href="hrpos-util" xlink:title="hrpos&#45;util">
<polygon fill="#d60007" stroke="#f2f2f2" points="224,-48 171,-48 169,-46 169,-30 222,-30 224,-32 224,-48"/>
<polyline fill="none" stroke="#f2f2f2" points="222,-46 169,-46 "/>
<polyline fill="none" stroke="#f2f2f2" points="222,-46 222,-30 "/>
<polyline fill="none" stroke="#f2f2f2" points="222,-46 224,-48 "/>
<text text-anchor="middle" x="196.5" y="-36.8" font-family="Helvetica,sans-Serif" font-size="9.00" fill="#f2f2f2">hrpos&#45;util</text>
</a>
</g>
</g>
<!-- central&#45;api/scripts&#45;&gt;hrpos&#45;util -->
<g id="edge8" class="edge">
<title>central&#45;api/scripts&#45;&gt;hrpos&#45;util</title>
<path fill="none" stroke="#7fa9ae" stroke-dasharray="5,2" d="M146.86,-68.67C169,-68.67 196.5,-68.67 196.5,-68.67 196.5,-68.67 196.5,-53.06 196.5,-53.06"/>
<polygon fill="green" stroke="#7fa9ae" points="196.5,-48.06 198.75,-53.06 196.5,-50.56 196.5,-53.06 196.5,-53.06 196.5,-53.06 196.5,-50.56 194.25,-53.06 196.5,-48.06 196.5,-48.06"/>
</g>
</g>
</svg>
