<?xml version="1.0" encoding="UTF-8" standalone="no"?>
<!DOCTYPE svg PUBLIC "-//W3C//DTD SVG 1.1//EN"
 "http://www.w3.org/Graphics/SVG/1.1/DTD/svg11.dtd">
<!-- Generated by graphviz version 2.44.1 (20200629.0846)
 -->
<!-- Title: dependency&#45;cruiser output Pages: 1 -->
<svg width="375pt" height="406pt"
 viewBox="0.00 0.00 375.00 406.00" xmlns="http://www.w3.org/2000/svg" xmlns:xlink="http://www.w3.org/1999/xlink">
<g id="graph0" class="graph" transform="scale(1 1) rotate(0) translate(4 402)">
<title>dependency&#45;cruiser output</title>
<polygon fill="white" stroke="transparent" points="-4,4 -4,-402 371,-402 371,4 -4,4"/>
<g id="clust1" class="cluster">
<title>cluster_central&#45;api</title>
<path fill="#ffffff" stroke="black" stroke-width="2" d="M20,-150C20,-150 347,-150 347,-150 353,-150 359,-156 359,-162 359,-162 359,-378 359,-378 359,-384 353,-390 347,-390 347,-390 20,-390 20,-390 14,-390 8,-384 8,-378 8,-378 8,-162 8,-162 8,-156 14,-150 20,-150"/>
<text text-anchor="middle" x="183.5" y="-378.8" font-family="Helvetica,sans-Serif" font-weight="bold" font-size="9.00">central&#45;api</text>
</g>
<g id="clust2" class="cluster">
<title>cluster_central&#45;api/api</title>
<path fill="#ffffff" stroke="black" stroke-width="2" d="M28,-218C28,-218 247,-218 247,-218 253,-218 259,-224 259,-230 259,-230 259,-352 259,-352 259,-358 253,-364 247,-364 247,-364 28,-364 28,-364 22,-364 16,-358 16,-352 16,-352 16,-230 16,-230 16,-224 22,-218 28,-218"/>
<text text-anchor="middle" x="137.5" y="-352.8" font-family="Helvetica,sans-Serif" font-weight="bold" font-size="9.00">api</text>
</g>
<g id="clust4" class="cluster">
<title>cluster_central&#45;api/api/rabbitmq</title>
<path fill="#ffffff" stroke="black" stroke-width="2" d="M98,-226C98,-226 149,-226 149,-226 155,-226 161,-232 161,-238 161,-238 161,-266 161,-266 161,-272 155,-278 149,-278 149,-278 98,-278 98,-278 92,-278 86,-272 86,-266 86,-266 86,-238 86,-238 86,-232 92,-226 98,-226"/>
<text text-anchor="middle" x="123.5" y="-266.8" font-family="Helvetica,sans-Serif" font-weight="bold" font-size="9.00">rabbitmq</text>
</g>
<g id="clust3" class="cluster">
<title>cluster_central&#45;api/api/location</title>
<path fill="#ffffff" stroke="black" stroke-width="2" d="M181,-226C181,-226 239,-226 239,-226 245,-226 251,-232 251,-238 251,-238 251,-326 251,-326 251,-332 245,-338 239,-338 239,-338 181,-338 181,-338 175,-338 169,-332 169,-326 169,-326 169,-238 169,-238 169,-232 175,-226 181,-226"/>
<text text-anchor="middle" x="210" y="-326.8" font-family="Helvetica,sans-Serif" font-weight="bold" font-size="9.00">location</text>
</g>
<g id="clust5" class="cluster">
<title>cluster_central&#45;api/scripts</title>
<path fill="#ffffff" stroke="black" stroke-width="2" d="M100.5,-158C100.5,-158 146.5,-158 146.5,-158 152.5,-158 158.5,-164 158.5,-170 158.5,-170 158.5,-198 158.5,-198 158.5,-204 152.5,-210 146.5,-210 146.5,-210 100.5,-210 100.5,-210 94.5,-210 88.5,-204 88.5,-198 88.5,-198 88.5,-170 88.5,-170 88.5,-164 94.5,-158 100.5,-158"/>
<text text-anchor="middle" x="123.5" y="-198.8" font-family="Helvetica,sans-Serif" font-weight="bold" font-size="9.00">scripts</text>
</g>
<g id="clust6" class="cluster">
<title>cluster_central&#45;api/utils</title>
<path fill="#ffffff" stroke="black" stroke-width="2" d="M282,-252C282,-252 339,-252 339,-252 345,-252 351,-258 351,-264 351,-264 351,-352 351,-352 351,-358 345,-364 339,-364 339,-364 282,-364 282,-364 276,-364 270,-358 270,-352 270,-352 270,-264 270,-264 270,-258 276,-252 282,-252"/>
<text text-anchor="middle" x="310.5" y="-352.8" font-family="Helvetica,sans-Serif" font-weight="bold" font-size="9.00">utils</text>
</g>
<g id="clust7" class="cluster">
<title>cluster_hrpos&#45;lib</title>
<path fill="#ffffff" stroke="black" stroke-width="2" d="M279,-30C279,-30 342,-30 342,-30 348,-30 354,-36 354,-42 354,-42 354,-130 354,-130 354,-136 348,-142 342,-142 342,-142 279,-142 279,-142 273,-142 267,-136 267,-130 267,-130 267,-42 267,-42 267,-36 273,-30 279,-30"/>
<text text-anchor="middle" x="310.5" y="-130.8" font-family="Helvetica,sans-Serif" font-weight="bold" font-size="9.00">hrpos&#45;lib</text>
</g>
<g id="clust8" class="cluster">
<title>cluster_hrpos&#45;lib/db</title>
<path fill="#ffffff" stroke="black" stroke-width="2" d="M287.5,-64C287.5,-64 333.5,-64 333.5,-64 339.5,-64 345.5,-70 345.5,-76 345.5,-76 345.5,-104 345.5,-104 345.5,-110 339.5,-116 333.5,-116 333.5,-116 287.5,-116 287.5,-116 281.5,-116 275.5,-110 275.5,-104 275.5,-104 275.5,-76 275.5,-76 275.5,-70 281.5,-64 287.5,-64"/>
<text text-anchor="middle" x="310.5" y="-104.8" font-family="Helvetica,sans-Serif" font-weight="bold" font-size="9.00">db</text>
</g>
<g id="clust9" class="cluster">
<title>cluster_hrpos&#45;models</title>
<path fill="#ffffff" stroke="black" stroke-width="2" d="M184,-90C184,-90 236,-90 236,-90 242,-90 248,-96 248,-102 248,-102 248,-130 248,-130 248,-136 242,-142 236,-142 236,-142 184,-142 184,-142 178,-142 172,-136 172,-130 172,-130 172,-102 172,-102 172,-96 178,-90 184,-90"/>
<text text-anchor="middle" x="210" y="-130.8" font-family="Helvetica,sans-Serif" font-weight="bold" font-size="9.00">hrpos&#45;models</text>
</g>
<g id="clust10" class="cluster">
<title>cluster_hrpos&#45;util</title>
<path fill="#ffffff" stroke="black" stroke-width="2" d="M187,-8C187,-8 233,-8 233,-8 239,-8 245,-14 245,-20 245,-20 245,-48 245,-48 245,-54 239,-60 233,-60 233,-60 187,-60 187,-60 181,-60 175,-54 175,-48 175,-48 175,-20 175,-20 175,-14 181,-8 187,-8"/>
<text text-anchor="middle" x="210" y="-48.8" font-family="Helvetica,sans-Serif" font-weight="bold" font-size="9.00">hrpos&#45;util</text>
</g>
<!-- central&#45;api/api/location/lendio.js -->
<g id="node1" class="node">
<title>central&#45;api/api/location/lendio.js</title>
<g id="a_node1"><a xlink:href="central-api/api/location/lendio.js" xlink:title="lendio.js">
<path fill="#ffffcc" stroke="black" d="M231,-282C231,-282 189,-282 189,-282 186,-282 183,-279 183,-276 183,-276 183,-270 183,-270 183,-267 186,-264 189,-264 189,-264 231,-264 231,-264 234,-264 237,-267 237,-270 237,-270 237,-276 237,-276 237,-279 234,-282 231,-282"/>
<text text-anchor="middle" x="210" y="-270.8" font-family="Helvetica,sans-Serif" font-size="9.00">lendio.js</text>
</a>
</g>
</g>
<!-- central&#45;api/utils/index.js -->
<g id="node2" class="node">
<title>central&#45;api/utils/index.js</title>
<g id="a_node2"><a xlink:href="central-api/utils/index.js" xlink:title="index.js">
<path fill="#ffffcc" stroke="black" d="M331.5,-278C331.5,-278 289.5,-278 289.5,-278 286.5,-278 283.5,-275 283.5,-272 283.5,-272 283.5,-266 283.5,-266 283.5,-263 286.5,-260 289.5,-260 289.5,-260 331.5,-260 331.5,-260 334.5,-260 337.5,-263 337.5,-266 337.5,-266 337.5,-272 337.5,-272 337.5,-275 334.5,-278 331.5,-278"/>
<text text-anchor="middle" x="310.5" y="-266.8" font-family="Helvetica,sans-Serif" font-size="9.00">index.js</text>
</a>
</g>
</g>
<!-- central&#45;api/api/location/lendio.js&#45;&gt;central&#45;api/utils/index.js -->
<g id="edge1" class="edge">
<title>central&#45;api/api/location/lendio.js&#45;&gt;central&#45;api/utils/index.js</title>
<path fill="none" stroke="#000000" stroke-width="2" stroke-opacity="0.200000" d="M237.14,-271.94C249.38,-271.44 264.09,-270.84 277.04,-270.32"/>
<polygon fill="#000000" fill-opacity="0.200000" stroke="#000000" stroke-width="2" stroke-opacity="0.200000" points="277.33,-272.41 283.24,-270.07 277.16,-268.21 277.33,-272.41"/>
</g>
<!-- hrpos&#45;lib/db/models -->
<g id="node3" class="node">
<title>hrpos&#45;lib/db/models</title>
<path fill="#ffffcc" stroke="red" d="M331.5,-90C331.5,-90 289.5,-90 289.5,-90 286.5,-90 283.5,-87 283.5,-84 283.5,-84 283.5,-78 283.5,-78 283.5,-75 286.5,-72 289.5,-72 289.5,-72 331.5,-72 331.5,-72 334.5,-72 337.5,-75 337.5,-78 337.5,-78 337.5,-84 337.5,-84 337.5,-87 334.5,-90 331.5,-90"/>
<text text-anchor="middle" x="310.5" y="-78.8" font-family="Helvetica,sans-Serif" font-size="9.00" fill="red">models</text>
</g>
<!-- central&#45;api/api/location/lendio.js&#45;&gt;hrpos&#45;lib/db/models -->
<g id="edge2" class="edge">
<title>central&#45;api/api/location/lendio.js&#45;&gt;hrpos&#45;lib/db/models</title>
<path fill="none" stroke="#000000" stroke-width="2" stroke-opacity="0.200000" d="M237.45,-269.64C245.28,-267.46 253.27,-263.88 259,-258 303.55,-212.32 309.33,-130.21 309.71,-96.29"/>
<polygon fill="#000000" fill-opacity="0.200000" stroke="#000000" stroke-width="2" stroke-opacity="0.200000" points="311.81,-96.18 309.73,-90.18 307.61,-96.17 311.81,-96.18"/>
</g>
<!-- hrpos&#45;lib/HeartlandAPI -->
<g id="node4" class="node">
<title>hrpos&#45;lib/HeartlandAPI</title>
<path fill="#ffffcc" stroke="red" d="M340,-56C340,-56 281,-56 281,-56 278,-56 275,-53 275,-50 275,-50 275,-44 275,-44 275,-41 278,-38 281,-38 281,-38 340,-38 340,-38 343,-38 346,-41 346,-44 346,-44 346,-50 346,-50 346,-53 343,-56 340,-56"/>
<text text-anchor="middle" x="310.5" y="-44.8" font-family="Helvetica,sans-Serif" font-size="9.00" fill="red">HeartlandAPI</text>
</g>
<!-- central&#45;api/api/location/lendio.js&#45;&gt;hrpos&#45;lib/HeartlandAPI -->
<g id="edge3" class="edge">
<title>central&#45;api/api/location/lendio.js&#45;&gt;hrpos&#45;lib/HeartlandAPI</title>
<path fill="none" stroke="#000000" stroke-width="2" stroke-opacity="0.200000" d="M237.08,-270.73C245.37,-268.66 253.74,-264.86 259,-258 272.33,-240.62 253.8,-78.48 267,-61 267.81,-59.93 268.7,-58.94 269.66,-58.03"/>
<polygon fill="#000000" fill-opacity="0.200000" stroke="#000000" stroke-width="2" stroke-opacity="0.200000" points="271.43,-59.33 274.97,-54.05 268.91,-55.97 271.43,-59.33"/>
</g>
<!-- central&#45;api/api/location/login.js -->
<g id="node5" class="node">
<title>central&#45;api/api/location/login.js</title>
<g id="a_node5"><a xlink:href="central-api/api/location/login.js" xlink:title="login.js">
<path fill="#ffffcc" stroke="black" d="M231,-252C231,-252 189,-252 189,-252 186,-252 183,-249 183,-246 183,-246 183,-240 183,-240 183,-237 186,-234 189,-234 189,-234 231,-234 231,-234 234,-234 237,-237 237,-240 237,-240 237,-246 237,-246 237,-249 234,-252 231,-252"/>
<text text-anchor="middle" x="210" y="-240.8" font-family="Helvetica,sans-Serif" font-size="9.00">login.js</text>
</a>
</g>
</g>
<!-- central&#45;api/api/location/login.js&#45;&gt;central&#45;api/utils/index.js -->
<g id="edge4" class="edge">
<title>central&#45;api/api/location/login.js&#45;&gt;central&#45;api/utils/index.js</title>
<path fill="none" stroke="#000000" stroke-width="2" stroke-opacity="0.200000" d="M237.14,-249.9C249.49,-253.16 264.36,-257.08 277.4,-260.53"/>
<polygon fill="#000000" fill-opacity="0.200000" stroke="#000000" stroke-width="2" stroke-opacity="0.200000" points="276.9,-262.57 283.24,-262.07 277.97,-258.51 276.9,-262.57"/>
</g>
<!-- central&#45;api/api/location/login.js&#45;&gt;hrpos&#45;lib/HeartlandAPI -->
<g id="edge5" class="edge">
<title>central&#45;api/api/location/login.js&#45;&gt;hrpos&#45;lib/HeartlandAPI</title>
<path fill="none" stroke="#000000" stroke-width="2" stroke-opacity="0.200000" d="M220.02,-233.83C231.42,-221.59 250.56,-198.68 259,-175 267.53,-151.08 251.4,-81.04 267,-61 267.79,-59.99 268.65,-59.05 269.57,-58.18"/>
<polygon fill="#000000" fill-opacity="0.200000" stroke="#000000" stroke-width="2" stroke-opacity="0.200000" points="271.12,-59.64 274.65,-54.35 268.6,-56.28 271.12,-59.64"/>
</g>
<!-- central&#45;api/api/location/siteProfile.js -->
<g id="node6" class="node">
<title>central&#45;api/api/location/siteProfile.js</title>
<g id="a_node6"><a xlink:href="central-api/api/location/siteProfile.js" xlink:title="siteProfile.js">
<path fill="#ffffcc" stroke="black" d="M237,-312C237,-312 183,-312 183,-312 180,-312 177,-309 177,-306 177,-306 177,-300 177,-300 177,-297 180,-294 183,-294 183,-294 237,-294 237,-294 240,-294 243,-297 243,-300 243,-300 243,-306 243,-306 243,-309 240,-312 237,-312"/>
<text text-anchor="middle" x="210" y="-300.8" font-family="Helvetica,sans-Serif" font-size="9.00">siteProfile.js</text>
</a>
</g>
</g>
<!-- central&#45;api/api/location/siteProfile.js&#45;&gt;central&#45;api/utils/index.js -->
<g id="edge6" class="edge">
<title>central&#45;api/api/location/siteProfile.js&#45;&gt;central&#45;api/utils/index.js</title>
<path fill="none" stroke="#000000" stroke-width="2" stroke-opacity="0.200000" d="M242.5,-293.95C248.05,-292.13 253.74,-290.12 259,-288 262.69,-286.51 263.34,-285.55 267,-284 270.4,-282.56 274,-281.13 277.6,-279.77"/>
<polygon fill="#000000" fill-opacity="0.200000" stroke="#000000" stroke-width="2" stroke-opacity="0.200000" points="278.33,-281.74 283.23,-277.7 276.88,-277.8 278.33,-281.74"/>
</g>
<!-- central&#45;api/api/location/siteProfile.js&#45;&gt;hrpos&#45;lib/db/models -->
<g id="edge9" class="edge">
<title>central&#45;api/api/location/siteProfile.js&#45;&gt;hrpos&#45;lib/db/models</title>
<path fill="none" stroke="#000000" stroke-width="2" stroke-opacity="0.200000" d="M243.21,-298.12C249.14,-295.89 254.78,-292.66 259,-288 270.87,-274.88 263.05,-266.25 267,-249 279.98,-192.29 297.6,-125.4 305.45,-96.06"/>
<polygon fill="#000000" fill-opacity="0.200000" stroke="#000000" stroke-width="2" stroke-opacity="0.200000" points="307.53,-96.41 307.05,-90.07 303.47,-95.32 307.53,-96.41"/>
</g>
<!-- central&#45;api/utils/constants.js -->
<g id="node7" class="node">
<title>central&#45;api/utils/constants.js</title>
<g id="a_node7"><a xlink:href="central-api/utils/constants.js" xlink:title="constants.js">
<path fill="#ffffcc" stroke="black" d="M337,-308C337,-308 284,-308 284,-308 281,-308 278,-305 278,-302 278,-302 278,-296 278,-296 278,-293 281,-290 284,-290 284,-290 337,-290 337,-290 340,-290 343,-293 343,-296 343,-296 343,-302 343,-302 343,-305 340,-308 337,-308"/>
<text text-anchor="middle" x="310.5" y="-296.8" font-family="Helvetica,sans-Serif" font-size="9.00">constants.js</text>
</a>
</g>
</g>
<!-- central&#45;api/api/location/siteProfile.js&#45;&gt;central&#45;api/utils/constants.js -->
<g id="edge7" class="edge">
<title>central&#45;api/api/location/siteProfile.js&#45;&gt;central&#45;api/utils/constants.js</title>
<path fill="none" stroke="#000000" stroke-width="2" stroke-opacity="0.200000" d="M243.25,-301.69C252.37,-301.32 262.36,-300.91 271.77,-300.53"/>
<polygon fill="#000000" fill-opacity="0.200000" stroke="#000000" stroke-width="2" stroke-opacity="0.200000" points="271.94,-302.63 277.85,-300.29 271.77,-298.43 271.94,-302.63"/>
</g>
<!-- central&#45;api/utils/format.js -->
<g id="node8" class="node">
<title>central&#45;api/utils/format.js</title>
<g id="a_node8"><a xlink:href="central-api/utils/format.js" xlink:title="format.js">
<path fill="#ffffcc" stroke="black" d="M331.5,-338C331.5,-338 289.5,-338 289.5,-338 286.5,-338 283.5,-335 283.5,-332 283.5,-332 283.5,-326 283.5,-326 283.5,-323 286.5,-320 289.5,-320 289.5,-320 331.5,-320 331.5,-320 334.5,-320 337.5,-323 337.5,-326 337.5,-326 337.5,-332 337.5,-332 337.5,-335 334.5,-338 331.5,-338"/>
<text text-anchor="middle" x="310.5" y="-326.8" font-family="Helvetica,sans-Serif" font-size="9.00">format.js</text>
</a>
</g>
</g>
<!-- central&#45;api/api/location/siteProfile.js&#45;&gt;central&#45;api/utils/format.js -->
<g id="edge8" class="edge">
<title>central&#45;api/api/location/siteProfile.js&#45;&gt;central&#45;api/utils/format.js</title>
<path fill="none" stroke="#000000" stroke-width="2" stroke-opacity="0.200000" d="M243.25,-311.51C254.24,-314.41 266.5,-317.65 277.47,-320.55"/>
<polygon fill="#000000" fill-opacity="0.200000" stroke="#000000" stroke-width="2" stroke-opacity="0.200000" points="277.07,-322.61 283.41,-322.11 278.15,-318.55 277.07,-322.61"/>
</g>
<!-- central&#45;api/api/rabbitmq/receiver.js -->
<g id="node9" class="node">
<title>central&#45;api/api/rabbitmq/receiver.js</title>
<g id="a_node9"><a xlink:href="central-api/api/rabbitmq/receiver.js" xlink:title="receiver.js">
<path fill="#ffffcc" stroke="black" d="M147,-252C147,-252 100,-252 100,-252 97,-252 94,-249 94,-246 94,-246 94,-240 94,-240 94,-237 97,-234 100,-234 100,-234 147,-234 147,-234 150,-234 153,-237 153,-240 153,-240 153,-246 153,-246 153,-249 150,-252 147,-252"/>
<text text-anchor="middle" x="123.5" y="-240.8" font-family="Helvetica,sans-Serif" font-size="9.00">receiver.js</text>
</a>
</g>
</g>
<!-- central&#45;api/api/rabbitmq/receiver.js&#45;&gt;central&#45;api/utils/index.js -->
<g id="edge10" class="edge">
<title>central&#45;api/api/rabbitmq/receiver.js&#45;&gt;central&#45;api/utils/index.js</title>
<path fill="none" stroke="#000000" stroke-width="2" stroke-opacity="0.200000" d="M125.45,-252.11C128.09,-272.33 137.58,-320.76 169,-341 202.63,-362.66 228.81,-367.25 259,-341 278.31,-324.22 250.81,-303.8 267,-284 269.86,-280.5 273.59,-277.82 277.66,-275.76"/>
<polygon fill="#000000" fill-opacity="0.200000" stroke="#000000" stroke-width="2" stroke-opacity="0.200000" points="278.67,-277.61 283.36,-273.32 277.02,-273.75 278.67,-277.61"/>
</g>
<!-- central&#45;api/api/rabbitmq/receiver.js&#45;&gt;hrpos&#45;lib/HeartlandAPI -->
<g id="edge12" class="edge">
<title>central&#45;api/api/rabbitmq/receiver.js&#45;&gt;hrpos&#45;lib/HeartlandAPI</title>
<path fill="none" stroke="#000000" stroke-width="2" stroke-opacity="0.200000" d="M140.39,-233.72C172.86,-214.43 244.91,-169.72 259,-145 268.29,-128.71 255.3,-75.65 267,-61 267.8,-60 268.67,-59.07 269.61,-58.2"/>
<polygon fill="#000000" fill-opacity="0.200000" stroke="#000000" stroke-width="2" stroke-opacity="0.200000" points="271.16,-59.67 274.72,-54.41 268.65,-56.3 271.16,-59.67"/>
</g>
<!-- central&#45;api/api/rabbitmq/receiver.js&#45;&gt;central&#45;api/api/location/siteProfile.js -->
<g id="edge11" class="edge">
<title>central&#45;api/api/rabbitmq/receiver.js&#45;&gt;central&#45;api/api/location/siteProfile.js</title>
<path fill="none" stroke="#000000" stroke-width="2" stroke-opacity="0.200000" d="M131.46,-252.1C139.53,-262.11 153.69,-278.08 169,-288 170.85,-289.2 172.81,-290.32 174.83,-291.37"/>
<polygon fill="#000000" fill-opacity="0.200000" stroke="#000000" stroke-width="2" stroke-opacity="0.200000" points="173.97,-293.29 180.29,-293.97 175.78,-289.49 173.97,-293.29"/>
</g>
<!-- hrpos&#45;models/errors -->
<g id="node10" class="node">
<title>hrpos&#45;models/errors</title>
<path fill="#ffffcc" stroke="red" d="M231,-116C231,-116 189,-116 189,-116 186,-116 183,-113 183,-110 183,-110 183,-104 183,-104 183,-101 186,-98 189,-98 189,-98 231,-98 231,-98 234,-98 237,-101 237,-104 237,-104 237,-110 237,-110 237,-113 234,-116 231,-116"/>
<text text-anchor="middle" x="210" y="-104.8" font-family="Helvetica,sans-Serif" font-size="9.00" fill="red">errors</text>
</g>
<!-- central&#45;api/api/rabbitmq/receiver.js&#45;&gt;hrpos&#45;models/errors -->
<g id="edge13" class="edge">
<title>central&#45;api/api/rabbitmq/receiver.js&#45;&gt;hrpos&#45;models/errors</title>
<path fill="none" stroke="#000000" stroke-width="2" stroke-opacity="0.200000" d="M140.39,-233.87C147.87,-228.72 156.2,-221.59 161,-213 173.7,-190.29 158.49,-178.8 169,-155 174.77,-141.94 185.18,-129.62 193.93,-120.73"/>
<polygon fill="#000000" fill-opacity="0.200000" stroke="#000000" stroke-width="2" stroke-opacity="0.200000" points="195.78,-121.87 198.59,-116.16 192.83,-118.87 195.78,-121.87"/>
</g>
<!-- central&#45;api/api/tester.js -->
<g id="node11" class="node">
<title>central&#45;api/api/tester.js</title>
<g id="a_node11"><a xlink:href="central-api/api/tester.js" xlink:title="tester.js">
<path fill="#ffffcc" stroke="black" d="M72,-248C72,-248 30,-248 30,-248 27,-248 24,-245 24,-242 24,-242 24,-236 24,-236 24,-233 27,-230 30,-230 30,-230 72,-230 72,-230 75,-230 78,-233 78,-236 78,-236 78,-242 78,-242 78,-245 75,-248 72,-248"/>
<text text-anchor="middle" x="51" y="-236.8" font-family="Helvetica,sans-Serif" font-size="9.00">tester.js</text>
</a>
</g>
</g>
<!-- central&#45;api/api/tester.js&#45;&gt;central&#45;api/api/rabbitmq/receiver.js -->
<g id="edge15" class="edge">
<title>central&#45;api/api/tester.js&#45;&gt;central&#45;api/api/rabbitmq/receiver.js</title>
<path fill="none" stroke="#000000" stroke-width="2" stroke-opacity="0.200000" d="M78.25,-240.49C81.23,-240.66 84.29,-240.83 87.36,-241.01"/>
<polygon fill="#000000" fill-opacity="0.200000" stroke="#000000" stroke-width="2" stroke-opacity="0.200000" points="87.51,-243.12 93.62,-241.36 87.75,-238.92 87.51,-243.12"/>
</g>
<!-- central&#45;api/scripts/site.js -->
<g id="node12" class="node">
<title>central&#45;api/scripts/site.js</title>
<g id="a_node12"><a xlink:href="central-api/scripts/site.js" xlink:title="site.js">
<path fill="#ffffcc" stroke="black" d="M144.5,-184C144.5,-184 102.5,-184 102.5,-184 99.5,-184 96.5,-181 96.5,-178 96.5,-178 96.5,-172 96.5,-172 96.5,-169 99.5,-166 102.5,-166 102.5,-166 144.5,-166 144.5,-166 147.5,-166 150.5,-169 150.5,-172 150.5,-172 150.5,-178 150.5,-178 150.5,-181 147.5,-184 144.5,-184"/>
<text text-anchor="middle" x="123.5" y="-172.8" font-family="Helvetica,sans-Serif" font-size="9.00">site.js</text>
</a>
</g>
</g>
<!-- central&#45;api/api/tester.js&#45;&gt;central&#45;api/scripts/site.js -->
<g id="edge14" class="edge">
<title>central&#45;api/api/tester.js&#45;&gt;central&#45;api/scripts/site.js</title>
<path fill="none" stroke="#000000" stroke-width="2" stroke-opacity="0.200000" d="M62.1,-229.83C74.04,-218.99 94,-200.87 107.69,-188.45"/>
<polygon fill="#000000" fill-opacity="0.200000" stroke="#000000" stroke-width="2" stroke-opacity="0.200000" points="109.39,-189.74 112.42,-184.15 106.56,-186.63 109.39,-189.74"/>
</g>
<!-- central&#45;api/scripts/site.js&#45;&gt;central&#45;api/utils/index.js -->
<g id="edge17" class="edge">
<title>central&#45;api/scripts/site.js&#45;&gt;central&#45;api/utils/index.js</title>
<path fill="none" stroke="#000000" stroke-width="2" stroke-opacity="0.200000" d="M150.62,-181.03C178.75,-188.26 224.14,-202.07 259,-223 273.5,-231.71 287.52,-245 297.1,-255.06"/>
<polygon fill="#000000" fill-opacity="0.200000" stroke="#000000" stroke-width="2" stroke-opacity="0.200000" points="295.8,-256.74 301.42,-259.7 298.87,-253.88 295.8,-256.74"/>
</g>
<!-- central&#45;api/scripts/site.js&#45;&gt;hrpos&#45;lib/HeartlandAPI -->
<g id="edge18" class="edge">
<title>central&#45;api/scripts/site.js&#45;&gt;hrpos&#45;lib/HeartlandAPI</title>
<path fill="none" stroke="#000000" stroke-width="2" stroke-opacity="0.200000" d="M126.46,-165.97C130.83,-148.08 143.08,-108.03 169,-87 201.15,-60.92 219.26,-74.59 259,-63 264.45,-61.41 270.2,-59.66 275.8,-57.92"/>
<polygon fill="#000000" fill-opacity="0.200000" stroke="#000000" stroke-width="2" stroke-opacity="0.200000" points="276.69,-59.84 281.79,-56.03 275.43,-55.83 276.69,-59.84"/>
</g>
<!-- central&#45;api/scripts/site.js&#45;&gt;central&#45;api/api/location/siteProfile.js -->
<g id="edge16" class="edge">
<title>central&#45;api/scripts/site.js&#45;&gt;central&#45;api/api/location/siteProfile.js</title>
<path fill="none" stroke="#000000" stroke-width="2" stroke-opacity="0.200000" d="M134.04,-184.33C142.64,-193.36 154.85,-207.87 161,-223 171.97,-249.96 150.99,-265.14 169,-288 169.79,-289 170.66,-289.94 171.59,-290.82"/>
<polygon fill="#000000" fill-opacity="0.200000" stroke="#000000" stroke-width="2" stroke-opacity="0.200000" points="170.63,-292.73 176.67,-294.69 173.17,-289.38 170.63,-292.73"/>
</g>
<!-- hrpos&#45;util/db -->
<g id="node13" class="node">
<title>hrpos&#45;util/db</title>
<path fill="#ffffcc" stroke="red" d="M231,-34C231,-34 189,-34 189,-34 186,-34 183,-31 183,-28 183,-28 183,-22 183,-22 183,-19 186,-16 189,-16 189,-16 231,-16 231,-16 234,-16 237,-19 237,-22 237,-22 237,-28 237,-28 237,-31 234,-34 231,-34"/>
<text text-anchor="middle" x="210" y="-22.8" font-family="Helvetica,sans-Serif" font-size="9.00" fill="red">db</text>
</g>
<!-- central&#45;api/scripts/site.js&#45;&gt;hrpos&#45;util/db -->
<g id="edge19" class="edge">
<title>central&#45;api/scripts/site.js&#45;&gt;hrpos&#45;util/db</title>
<path fill="none" stroke="#000000" stroke-width="2" stroke-opacity="0.200000" d="M126.85,-165.86C132.18,-146.21 146.48,-99.01 169,-65 175.56,-55.1 184.84,-45.63 192.82,-38.39"/>
<polygon fill="#000000" fill-opacity="0.200000" stroke="#000000" stroke-width="2" stroke-opacity="0.200000" points="194.47,-39.73 197.58,-34.19 191.69,-36.58 194.47,-39.73"/>
</g>
</g>
</svg>
