<?xml version="1.0" encoding="UTF-8" standalone="no"?>
<!DOCTYPE svg PUBLIC "-//W3C//DTD SVG 1.1//EN"
 "http://www.w3.org/Graphics/SVG/1.1/DTD/svg11.dtd">
<!-- Generated by graphviz version 2.44.1 (20200629.0846)
 -->
<!-- Title: dependency&#45;cruiser output Pages: 1 -->
<svg width="368pt" height="180pt"
 viewBox="0.00 0.00 368.00 180.00" xmlns="http://www.w3.org/2000/svg" xmlns:xlink="http://www.w3.org/1999/xlink">
<g id="graph0" class="graph" transform="scale(1 1) rotate(0) translate(4 176)">
<title>dependency&#45;cruiser output</title>
<polygon fill="#f2f2f2" stroke="transparent" points="-4,4 -4,-176 364,-176 364,4 -4,4"/>
<g id="clust1" class="cluster">
<title>cluster_central&#45;api</title>
<path fill="transparent" stroke="#53565a" stroke-width="2" d="M20,-98C20,-98 203,-98 203,-98 209,-98 215,-104 215,-110 215,-110 215,-152 215,-152 215,-158 209,-164 203,-164 203,-164 20,-164 20,-164 14,-164 8,-158 8,-152 8,-152 8,-110 8,-110 8,-104 14,-98 20,-98"/>
<text text-anchor="middle" x="111.5" y="-152.8" font-family="Helvetica,sans-Serif" font-weight="bold" font-size="9.00" fill="#53565a">central&#45;api</text>
</g>
<g id="clust2" class="cluster">
<title>cluster_mb&#45;public&#45;api</title>
<path fill="transparent" stroke="#53565a" stroke-width="2" d="M157,-8C157,-8 340,-8 340,-8 346,-8 352,-14 352,-20 352,-20 352,-78 352,-78 352,-84 346,-90 340,-90 340,-90 157,-90 157,-90 151,-90 145,-84 145,-78 145,-78 145,-20 145,-20 145,-14 151,-8 157,-8"/>
<text text-anchor="middle" x="248.5" y="-78.8" font-family="Helvetica,sans-Serif" font-weight="bold" font-size="9.00" fill="#53565a">mb&#45;public&#45;api</text>
</g>
<!-- central&#45;api/api -->
<g id="node1" class="node">
<title>central&#45;api/api</title>
<g id="a_node1"><a xlink:href="central-api/api" xlink:title="api">
<polygon fill="#d60007" stroke="#f2f2f2" points="70,-124 18,-124 16,-122 16,-106 68,-106 70,-108 70,-124"/>
<polyline fill="none" stroke="#f2f2f2" points="68,-122 16,-122 "/>
<polyline fill="none" stroke="#f2f2f2" points="68,-122 68,-106 "/>
<polyline fill="none" stroke="#f2f2f2" points="68,-122 70,-124 "/>
<text text-anchor="middle" x="43" y="-112.8" font-family="Helvetica,sans-Serif" font-size="9.00" fill="#f2f2f2">api</text>
</a>
</g>
</g>
<!-- mb&#45;public&#45;api/libraries -->
<g id="node2" class="node">
<title>mb&#45;public&#45;api/libraries</title>
<g id="a_node2"><a xlink:href="mb-public-api/libraries" xlink:title="libraries">
<polygon fill="#d60007" stroke="#f2f2f2" points="207,-64 155,-64 153,-62 153,-46 205,-46 207,-48 207,-64"/>
<polyline fill="none" stroke="#f2f2f2" points="205,-62 153,-62 "/>
<polyline fill="none" stroke="#f2f2f2" points="205,-62 205,-46 "/>
<polyline fill="none" stroke="#f2f2f2" points="205,-62 207,-64 "/>
<text text-anchor="middle" x="180" y="-52.8" font-family="Helvetica,sans-Serif" font-size="9.00" fill="#f2f2f2">libraries</text>
</a>
</g>
</g>
<!-- central&#45;api/api&#45;&gt;mb&#45;public&#45;api/libraries -->
<g id="edge1" class="edge">
<title>central&#45;api/api&#45;&gt;mb&#45;public&#45;api/libraries</title>
<path fill="none" stroke="#7fa9ae" d="M57,-105.89C57,-89.1 57,-55 57,-55 57,-55 147.7,-55 147.7,-55"/>
<polygon fill="#7fa9ae" stroke="#7fa9ae" points="152.7,-55 147.7,-57.25 150.2,-55 147.7,-55 147.7,-55 147.7,-55 150.2,-55 147.7,-52.75 152.7,-55 152.7,-55"/>
</g>
<!-- mb&#45;public&#45;api/models -->
<g id="node3" class="node">
<title>mb&#45;public&#45;api/models</title>
<g id="a_node3"><a xlink:href="mb-public-api/models" xlink:title="models">
<polygon fill="#d60007" stroke="#f2f2f2" points="207,-34 155,-34 153,-32 153,-16 205,-16 207,-18 207,-34"/>
<polyline fill="none" stroke="#f2f2f2" points="205,-32 153,-32 "/>
<polyline fill="none" stroke="#f2f2f2" points="205,-32 205,-16 "/>
<polyline fill="none" stroke="#f2f2f2" points="205,-32 207,-34 "/>
<text text-anchor="middle" x="180" y="-22.8" font-family="Helvetica,sans-Serif" font-size="9.00" fill="#f2f2f2">models</text>
</a>
</g>
</g>
<!-- central&#45;api/api&#45;&gt;mb&#45;public&#45;api/models -->
<g id="edge2" class="edge">
<title>central&#45;api/api&#45;&gt;mb&#45;public&#45;api/models</title>
<path fill="none" stroke="#7fa9ae" d="M43,-105.71C43,-82.71 43,-25 43,-25 43,-25 147.93,-25 147.93,-25"/>
<polygon fill="#7fa9ae" stroke="#7fa9ae" points="152.93,-25 147.93,-27.25 150.43,-25 147.93,-25 147.93,-25 147.93,-25 150.43,-25 147.93,-22.75 152.93,-25 152.93,-25"/>
</g>
<!-- central&#45;api/utils -->
<g id="node4" class="node">
<title>central&#45;api/utils</title>
<g id="a_node4"><a xlink:href="central-api/utils" xlink:title="utils">
<polygon fill="#d60007" stroke="#f2f2f2" points="207,-131 155,-131 153,-129 153,-113 205,-113 207,-115 207,-131"/>
<polyline fill="none" stroke="#f2f2f2" points="205,-129 153,-129 "/>
<polyline fill="none" stroke="#f2f2f2" points="205,-129 205,-113 "/>
<polyline fill="none" stroke="#f2f2f2" points="205,-129 207,-131 "/>
<text text-anchor="middle" x="180" y="-119.8" font-family="Helvetica,sans-Serif" font-size="9.00" fill="#f2f2f2">utils</text>
</a>
</g>
</g>
<!-- central&#45;api/api&#45;&gt;central&#45;api/utils -->
<g id="edge3" class="edge">
<title>central&#45;api/api&#45;&gt;central&#45;api/utils</title>
<path fill="none" stroke="#7fa9ae" d="M43,-124.08C43,-126.02 43,-127.5 43,-127.5 43,-127.5 147.93,-127.5 147.93,-127.5"/>
<polygon fill="#7fa9ae" stroke="#7fa9ae" points="152.93,-127.5 147.93,-129.75 150.43,-127.5 147.93,-127.5 147.93,-127.5 147.93,-127.5 150.43,-127.5 147.93,-125.25 152.93,-127.5 152.93,-127.5"/>
</g>
<!-- mb&#45;public&#45;api/helpers -->
<g id="node5" class="node">
<title>mb&#45;public&#45;api/helpers</title>
<g id="a_node5"><a xlink:href="mb-public-api/helpers" xlink:title="helpers">
<polygon fill="#d60007" stroke="#f2f2f2" points="277,-34 225,-34 223,-32 223,-16 275,-16 277,-18 277,-34"/>
<polyline fill="none" stroke="#f2f2f2" points="275,-32 223,-32 "/>
<polyline fill="none" stroke="#f2f2f2" points="275,-32 275,-16 "/>
<polyline fill="none" stroke="#f2f2f2" points="275,-32 277,-34 "/>
<text text-anchor="middle" x="250" y="-22.8" font-family="Helvetica,sans-Serif" font-size="9.00" fill="#f2f2f2">helpers</text>
</a>
</g>
</g>
<!-- central&#45;api/api&#45;&gt;mb&#45;public&#45;api/helpers -->
<g id="edge4" class="edge">
<title>central&#45;api/api&#45;&gt;mb&#45;public&#45;api/helpers</title>
<path fill="none" stroke="#7fa9ae" d="M30,-105.84C30,-97.01 30,-85 30,-85 30,-85 245,-85 245,-85 245,-85 245,-39.11 245,-39.11"/>
<polygon fill="#7fa9ae" stroke="#7fa9ae" points="245,-34.11 247.25,-39.11 245,-36.61 245,-39.11 245,-39.11 245,-39.11 245,-36.61 242.75,-39.11 245,-34.11 245,-34.11"/>
</g>
<!-- central&#45;api/scripts -->
<g id="node6" class="node">
<title>central&#45;api/scripts</title>
<g id="a_node6"><a xlink:href="central-api/scripts" xlink:title="scripts">
<polygon fill="#d60007" stroke="#f2f2f2" points="137,-124 85,-124 83,-122 83,-106 135,-106 137,-108 137,-124"/>
<polyline fill="none" stroke="#f2f2f2" points="135,-122 83,-122 "/>
<polyline fill="none" stroke="#f2f2f2" points="135,-122 135,-106 "/>
<polyline fill="none" stroke="#f2f2f2" points="135,-122 137,-124 "/>
<text text-anchor="middle" x="110" y="-112.8" font-family="Helvetica,sans-Serif" font-size="9.00" fill="#f2f2f2">scripts</text>
</a>
</g>
</g>
<!-- central&#45;api/api&#45;&gt;central&#45;api/scripts -->
<g id="edge5" class="edge">
<title>central&#45;api/api&#45;&gt;central&#45;api/scripts</title>
<path fill="none" stroke="#7fa9ae" d="M70.25,-112C70.25,-112 77.99,-112 77.99,-112"/>
<polygon fill="#7fa9ae" stroke="#7fa9ae" points="82.99,-112 77.99,-114.25 80.49,-112 77.99,-112 77.99,-112 77.99,-112 80.49,-112 77.99,-109.75 82.99,-112 82.99,-112"/>
</g>
<!-- mb&#45;public&#45;api/libraries&#45;&gt;mb&#45;public&#45;api/helpers -->
<g id="edge13" class="edge">
<title>mb&#45;public&#45;api/libraries&#45;&gt;mb&#45;public&#45;api/helpers</title>
<path fill="none" stroke="#7fa9ae" d="M207.32,-49.33C220.71,-49.33 234,-49.33 234,-49.33 234,-49.33 234,-39.06 234,-39.06"/>
<polygon fill="#7fa9ae" stroke="#7fa9ae" points="234,-34.06 236.25,-39.06 234,-36.56 234,-39.06 234,-39.06 234,-39.06 234,-36.56 231.75,-39.06 234,-34.06 234,-34.06"/>
</g>
<!-- mb&#45;public&#45;api/db -->
<g id="node7" class="node">
<title>mb&#45;public&#45;api/db</title>
<g id="a_node7"><a xlink:href="mb-public-api/db" xlink:title="db">
<polygon fill="#d60007" stroke="#f2f2f2" points="344,-56 292,-56 290,-54 290,-38 342,-38 344,-40 344,-56"/>
<polyline fill="none" stroke="#f2f2f2" points="342,-54 290,-54 "/>
<polyline fill="none" stroke="#f2f2f2" points="342,-54 342,-38 "/>
<polyline fill="none" stroke="#f2f2f2" points="342,-54 344,-56 "/>
<text text-anchor="middle" x="317" y="-44.8" font-family="Helvetica,sans-Serif" font-size="9.00" fill="#f2f2f2">db</text>
</a>
</g>
</g>
<!-- mb&#45;public&#45;api/libraries&#45;&gt;mb&#45;public&#45;api/db -->
<g id="edge12" class="edge">
<title>mb&#45;public&#45;api/libraries&#45;&gt;mb&#45;public&#45;api/db</title>
<path fill="none" stroke="#7fa9ae" d="M207.07,-52.67C207.07,-52.67 284.99,-52.67 284.99,-52.67"/>
<polygon fill="#7fa9ae" stroke="#7fa9ae" points="289.99,-52.67 284.99,-54.92 287.49,-52.67 284.99,-52.67 284.99,-52.67 284.99,-52.67 287.49,-52.67 284.99,-50.42 289.99,-52.67 289.99,-52.67"/>
</g>
<!-- mb&#45;public&#45;api/models&#45;&gt;mb&#45;public&#45;api/helpers -->
<g id="edge15" class="edge">
<title>mb&#45;public&#45;api/models&#45;&gt;mb&#45;public&#45;api/helpers</title>
<path fill="none" stroke="#7fa9ae" d="M207.26,-25C207.26,-25 217.69,-25 217.69,-25"/>
<polygon fill="#7fa9ae" stroke="#7fa9ae" points="222.69,-25 217.7,-27.25 220.19,-25 217.69,-25 217.69,-25 217.69,-25 220.19,-25 217.69,-22.75 222.69,-25 222.69,-25"/>
</g>
<!-- mb&#45;public&#45;api/models&#45;&gt;mb&#45;public&#45;api/db -->
<g id="edge14" class="edge">
<title>mb&#45;public&#45;api/models&#45;&gt;mb&#45;public&#45;api/db</title>
<path fill="none" stroke="#7fa9ae" d="M180,-34.05C180,-38.95 180,-44 180,-44 180,-44 284.93,-44 284.93,-44"/>
<polygon fill="#7fa9ae" stroke="#7fa9ae" points="289.93,-44 284.93,-46.25 287.43,-44 284.93,-44 284.93,-44 284.93,-44 287.43,-44 284.93,-41.75 289.93,-44 289.93,-44"/>
</g>
<!-- mb&#45;public&#45;api/helpers&#45;&gt;mb&#45;public&#45;api/db -->
<g id="edge11" class="edge">
<title>mb&#45;public&#45;api/helpers&#45;&gt;mb&#45;public&#45;api/db</title>
<path fill="none" stroke="#7fa9ae" d="M267,-34.24C267,-37.33 267,-40 267,-40 267,-40 284.95,-40 284.95,-40"/>
<polygon fill="#7fa9ae" stroke="#7fa9ae" points="289.95,-40 284.95,-42.25 287.45,-40 284.95,-40 284.95,-40 284.95,-40 287.45,-40 284.95,-37.75 289.95,-40 289.95,-40"/>
</g>
<!-- central&#45;api/scripts&#45;&gt;central&#45;api/api -->
<g id="edge8" class="edge">
<title>central&#45;api/scripts&#45;&gt;central&#45;api/api</title>
<path fill="none" stroke="#7fa9ae" d="M82.75,-118C82.75,-118 75.01,-118 75.01,-118"/>
<polygon fill="#7fa9ae" stroke="#7fa9ae" points="70.01,-118 75.01,-115.75 72.51,-118 75.01,-118 75.01,-118 75.01,-118 72.51,-118 75.01,-120.25 70.01,-118 70.01,-118"/>
</g>
<!-- central&#45;api/scripts&#45;&gt;mb&#45;public&#45;api/libraries -->
<g id="edge7" class="edge">
<title>central&#45;api/scripts&#45;&gt;mb&#45;public&#45;api/libraries</title>
<path fill="none" stroke="#7fa9ae" d="M137.26,-108.33C156.92,-108.33 180,-108.33 180,-108.33 180,-108.33 180,-69.29 180,-69.29"/>
<polygon fill="#7fa9ae" stroke="#7fa9ae" points="180,-64.29 182.25,-69.29 180,-66.79 180,-69.29 180,-69.29 180,-69.29 180,-66.79 177.75,-69.29 180,-64.29 180,-64.29"/>
</g>
<!-- central&#45;api/scripts&#45;&gt;central&#45;api/utils -->
<g id="edge9" class="edge">
<title>central&#45;api/scripts&#45;&gt;central&#45;api/utils</title>
<path fill="none" stroke="#7fa9ae" d="M137.26,-118.5C137.26,-118.5 147.69,-118.5 147.69,-118.5"/>
<polygon fill="#7fa9ae" stroke="#7fa9ae" points="152.69,-118.5 147.7,-120.75 150.19,-118.5 147.69,-118.5 147.69,-118.5 147.69,-118.5 150.19,-118.5 147.69,-116.25 152.69,-118.5 152.69,-118.5"/>
</g>
<!-- central&#45;api/scripts&#45;&gt;mb&#45;public&#45;api/db -->
<g id="edge6" class="edge">
<title>central&#45;api/scripts&#45;&gt;mb&#45;public&#45;api/db</title>
<path fill="none" stroke="#7fa9ae" d="M137.06,-110.67C193.17,-110.67 317,-110.67 317,-110.67 317,-110.67 317,-61.12 317,-61.12"/>
<polygon fill="#7fa9ae" stroke="#7fa9ae" points="317,-56.12 319.25,-61.12 317,-58.62 317,-61.12 317,-61.12 317,-61.12 317,-58.62 314.75,-61.12 317,-56.12 317,-56.12"/>
</g>
<!-- mb&#45;public&#45;api/db&#45;&gt;mb&#45;public&#45;api/helpers -->
<g id="edge10" class="edge">
<title>mb&#45;public&#45;api/db&#45;&gt;mb&#45;public&#45;api/helpers</title>
<path fill="none" stroke="#7fa9ae" d="M289.71,-42C273.47,-42 256,-42 256,-42 256,-42 256,-39.3 256,-39.3"/>
<polygon fill="#7fa9ae" stroke="#7fa9ae" points="256,-34.3 258.25,-39.3 256,-36.8 256,-39.3 256,-39.3 256,-39.3 256,-36.8 253.75,-39.3 256,-34.3 256,-34.3"/>
</g>
</g>
</svg>
