<?xml version="1.0" encoding="UTF-8" standalone="no"?>
<!DOCTYPE svg PUBLIC "-//W3C//DTD SVG 1.1//EN"
 "http://www.w3.org/Graphics/SVG/1.1/DTD/svg11.dtd">
<!-- Generated by graphviz version 2.44.1 (20200629.0846)
 -->
<!-- Title: dependency&#45;cruiser output Pages: 1 -->
<svg width="564pt" height="388pt"
 viewBox="0.00 0.00 564.00 388.00" xmlns="http://www.w3.org/2000/svg" xmlns:xlink="http://www.w3.org/1999/xlink">
<g id="graph0" class="graph" transform="scale(1 1) rotate(0) translate(4 384)">
<title>dependency&#45;cruiser output</title>
<polygon fill="#f2f2f2" stroke="transparent" points="-4,4 -4,-384 560,-384 560,4 -4,4"/>
<g id="clust1" class="cluster">
<title>cluster_mb&#45;lambda&#45;shared</title>
<path fill="transparent" stroke="#53565a" stroke-width="2" d="M27.5,-248C27.5,-248 536,-248 536,-248 542,-248 548,-254 548,-260 548,-260 548,-360 548,-360 548,-366 542,-372 536,-372 536,-372 27.5,-372 27.5,-372 21.5,-372 15.5,-366 15.5,-360 15.5,-360 15.5,-260 15.5,-260 15.5,-254 21.5,-248 27.5,-248"/>
<text text-anchor="middle" x="281.75" y="-360.8" font-family="Helvetica,sans-Serif" font-weight="bold" font-size="9.00" fill="#53565a">mb&#45;lambda&#45;shared</text>
</g>
<g id="clust2" class="cluster">
<title>cluster_models</title>
<path fill="transparent" stroke="#53565a" stroke-width="2" d="M307.5,-188C307.5,-188 353.5,-188 353.5,-188 359.5,-188 365.5,-194 365.5,-200 365.5,-200 365.5,-228 365.5,-228 365.5,-234 359.5,-240 353.5,-240 353.5,-240 307.5,-240 307.5,-240 301.5,-240 295.5,-234 295.5,-228 295.5,-228 295.5,-200 295.5,-200 295.5,-194 301.5,-188 307.5,-188"/>
<text text-anchor="middle" x="330.5" y="-228.8" font-family="Helvetica,sans-Serif" font-weight="bold" font-size="9.00" fill="#53565a">models</text>
</g>
<g id="clust3" class="cluster">
<title>cluster_pay</title>
<path fill="transparent" stroke="#53565a" stroke-width="2" d="M22,-8C22,-8 79,-8 79,-8 85,-8 91,-14 91,-20 91,-20 91,-228 91,-228 91,-234 85,-240 79,-240 79,-240 22,-240 22,-240 16,-240 10,-234 10,-228 10,-228 10,-20 10,-20 10,-14 16,-8 22,-8"/>
<text text-anchor="middle" x="50.5" y="-228.8" font-family="Helvetica,sans-Serif" font-weight="bold" font-size="9.00" fill="#53565a">pay</text>
</g>
<g id="clust4" class="cluster">
<title>cluster_serverless&#45;helpers</title>
<path fill="transparent" stroke="#53565a" stroke-width="2" d="M111,-58C111,-58 185,-58 185,-58 191,-58 197,-64 197,-70 197,-70 197,-98 197,-98 197,-104 191,-110 185,-110 185,-110 111,-110 111,-110 105,-110 99,-104 99,-98 99,-98 99,-70 99,-70 99,-64 105,-58 111,-58"/>
<text text-anchor="middle" x="148" y="-98.8" font-family="Helvetica,sans-Serif" font-weight="bold" font-size="9.00" fill="#53565a">serverless&#45;helpers</text>
</g>
<!-- mb&#45;lambda&#45;shared/constants.js -->
<g id="node1" class="node">
<title>mb&#45;lambda&#45;shared/constants.js</title>
<g id="a_node1"><a xlink:href="mb-lambda-shared/constants.js" xlink:title="constants.js">
<polygon fill="#d60007" stroke="#f2f2f2" points="363,-346 300,-346 298,-344 298,-328 361,-328 363,-330 363,-346"/>
<polyline fill="none" stroke="#f2f2f2" points="361,-344 298,-344 "/>
<polyline fill="none" stroke="#f2f2f2" points="361,-344 361,-328 "/>
<polyline fill="none" stroke="#f2f2f2" points="361,-344 363,-346 "/>
<text text-anchor="middle" x="330.5" y="-334.8" font-family="Helvetica,sans-Serif" font-size="9.00" fill="#f2f2f2">constants.js</text>
</a>
</g>
</g>
<!-- mb&#45;lambda&#45;shared/db.js -->
<g id="node2" class="node">
<title>mb&#45;lambda&#45;shared/db.js</title>
<g id="a_node2"><a xlink:href="mb-lambda-shared/db.js" xlink:title="db.js">
<polygon fill="#d60007" stroke="#f2f2f2" points="272,-274 220,-274 218,-272 218,-256 270,-256 272,-258 272,-274"/>
<polyline fill="none" stroke="#f2f2f2" points="270,-272 218,-272 "/>
<polyline fill="none" stroke="#f2f2f2" points="270,-272 270,-256 "/>
<polyline fill="none" stroke="#f2f2f2" points="270,-272 272,-274 "/>
<text text-anchor="middle" x="245" y="-262.8" font-family="Helvetica,sans-Serif" font-size="9.00" fill="#f2f2f2">db.js</text>
</a>
</g>
</g>
<!-- mb&#45;lambda&#45;shared/error&#45;handling -->
<g id="node3" class="node">
<title>mb&#45;lambda&#45;shared/error&#45;handling</title>
<g id="a_node3"><a xlink:href="mb-lambda-shared/error-handling" xlink:title="error&#45;handling">
<polygon fill="#d60007" stroke="#f2f2f2" points="539.5,-274 466.5,-274 464.5,-272 464.5,-256 537.5,-256 539.5,-258 539.5,-274"/>
<polyline fill="none" stroke="#f2f2f2" points="537.5,-272 464.5,-272 "/>
<polyline fill="none" stroke="#f2f2f2" points="537.5,-272 537.5,-256 "/>
<polyline fill="none" stroke="#f2f2f2" points="537.5,-272 539.5,-274 "/>
<text text-anchor="middle" x="502" y="-262.8" font-family="Helvetica,sans-Serif" font-size="9.00" fill="#f2f2f2">error&#45;handling</text>
</a>
</g>
</g>
<!-- mb&#45;lambda&#45;shared/libraries -->
<g id="node4" class="node">
<title>mb&#45;lambda&#45;shared/libraries</title>
<g id="a_node4"><a xlink:href="mb-lambda-shared/libraries" xlink:title="libraries">
<polygon fill="#d60007" stroke="#f2f2f2" points="77.5,-318 25.5,-318 23.5,-316 23.5,-300 75.5,-300 77.5,-302 77.5,-318"/>
<polyline fill="none" stroke="#f2f2f2" points="75.5,-316 23.5,-316 "/>
<polyline fill="none" stroke="#f2f2f2" points="75.5,-316 75.5,-300 "/>
<polyline fill="none" stroke="#f2f2f2" points="75.5,-316 77.5,-318 "/>
<text text-anchor="middle" x="50.5" y="-306.8" font-family="Helvetica,sans-Serif" font-size="9.00" fill="#f2f2f2">libraries</text>
</a>
</g>
</g>
<!-- mb&#45;lambda&#45;shared/libraries&#45;&gt;mb&#45;lambda&#45;shared/constants.js -->
<g id="edge1" class="edge">
<title>mb&#45;lambda&#45;shared/libraries&#45;&gt;mb&#45;lambda&#45;shared/constants.js</title>
<path fill="none" stroke="#7fa9ae" d="M51,-318.13C51,-327.28 51,-340 51,-340 51,-340 292.89,-340 292.89,-340"/>
<polygon fill="#7fa9ae" stroke="#7fa9ae" points="297.89,-340 292.89,-342.25 295.39,-340 292.89,-340 292.89,-340 292.89,-340 295.39,-340 292.89,-337.75 297.89,-340 297.89,-340"/>
</g>
<!-- mb&#45;lambda&#45;shared/models -->
<g id="node5" class="node">
<title>mb&#45;lambda&#45;shared/models</title>
<g id="a_node5"><a xlink:href="mb-lambda-shared/models" xlink:title="models">
<polygon fill="#d60007" stroke="#f2f2f2" points="175,-318 123,-318 121,-316 121,-300 173,-300 175,-302 175,-318"/>
<polyline fill="none" stroke="#f2f2f2" points="173,-316 121,-316 "/>
<polyline fill="none" stroke="#f2f2f2" points="173,-316 173,-300 "/>
<polyline fill="none" stroke="#f2f2f2" points="173,-316 175,-318 "/>
<text text-anchor="middle" x="148" y="-306.8" font-family="Helvetica,sans-Serif" font-size="9.00" fill="#f2f2f2">models</text>
</a>
</g>
</g>
<!-- mb&#45;lambda&#45;shared/libraries&#45;&gt;mb&#45;lambda&#45;shared/models -->
<g id="edge2" class="edge">
<title>mb&#45;lambda&#45;shared/libraries&#45;&gt;mb&#45;lambda&#45;shared/models</title>
<path fill="none" stroke="#7fa9ae" d="M77.66,-312C77.66,-312 115.99,-312 115.99,-312"/>
<polygon fill="#7fa9ae" stroke="#7fa9ae" points="120.99,-312 115.99,-314.25 118.49,-312 115.99,-312 115.99,-312 115.99,-312 118.49,-312 115.99,-309.75 120.99,-312 120.99,-312"/>
</g>
<!-- mb&#45;lambda&#45;shared/models&#45;&gt;mb&#45;lambda&#45;shared/constants.js -->
<g id="edge3" class="edge">
<title>mb&#45;lambda&#45;shared/models&#45;&gt;mb&#45;lambda&#45;shared/constants.js</title>
<path fill="none" stroke="#7fa9ae" d="M148,-318.03C148,-325.19 148,-334 148,-334 148,-334 292.87,-334 292.87,-334"/>
<polygon fill="#7fa9ae" stroke="#7fa9ae" points="297.87,-334 292.87,-336.25 295.37,-334 292.87,-334 292.87,-334 292.87,-334 295.37,-334 292.87,-331.75 297.87,-334 297.87,-334"/>
</g>
<!-- mb&#45;lambda&#45;shared/models&#45;&gt;mb&#45;lambda&#45;shared/db.js -->
<g id="edge4" class="edge">
<title>mb&#45;lambda&#45;shared/models&#45;&gt;mb&#45;lambda&#45;shared/db.js</title>
<path fill="none" stroke="#7fa9ae" d="M139,-299.9C139,-287.82 139,-268 139,-268 139,-268 212.98,-268 212.98,-268"/>
<polygon fill="#7fa9ae" stroke="#7fa9ae" points="217.98,-268 212.98,-270.25 215.48,-268 212.98,-268 212.98,-268 212.98,-268 215.48,-268 212.98,-265.75 217.98,-268 217.98,-268"/>
</g>
<!-- mb&#45;lambda&#45;shared/models&#45;&gt;mb&#45;lambda&#45;shared/libraries -->
<g id="edge5" class="edge">
<title>mb&#45;lambda&#45;shared/models&#45;&gt;mb&#45;lambda&#45;shared/libraries</title>
<path fill="none" stroke="#7fa9ae" d="M120.84,-306C120.84,-306 82.51,-306 82.51,-306"/>
<polygon fill="#7fa9ae" stroke="#7fa9ae" points="77.51,-306 82.51,-303.75 80.01,-306 82.51,-306 82.51,-306 82.51,-306 80.01,-306 82.51,-308.25 77.51,-306 77.51,-306"/>
</g>
<!-- mb&#45;lambda&#45;shared/online&#45;order&#45;lib -->
<g id="node6" class="node">
<title>mb&#45;lambda&#45;shared/online&#45;order&#45;lib</title>
<g id="a_node6"><a xlink:href="mb-lambda-shared/online-order-lib" xlink:title="online&#45;order&#45;lib">
<polygon fill="#d60007" stroke="#f2f2f2" points="285,-307 207,-307 205,-305 205,-289 283,-289 285,-291 285,-307"/>
<polyline fill="none" stroke="#f2f2f2" points="283,-305 205,-305 "/>
<polyline fill="none" stroke="#f2f2f2" points="283,-305 283,-289 "/>
<polyline fill="none" stroke="#f2f2f2" points="283,-305 285,-307 "/>
<text text-anchor="middle" x="245" y="-295.8" font-family="Helvetica,sans-Serif" font-size="9.00" fill="#f2f2f2">online&#45;order&#45;lib</text>
</a>
</g>
</g>
<!-- mb&#45;lambda&#45;shared/models&#45;&gt;mb&#45;lambda&#45;shared/online&#45;order&#45;lib -->
<g id="edge6" class="edge">
<title>mb&#45;lambda&#45;shared/models&#45;&gt;mb&#45;lambda&#45;shared/online&#45;order&#45;lib</title>
<path fill="none" stroke="#7fa9ae" d="M175.02,-302.33C175.02,-302.33 199.7,-302.33 199.7,-302.33"/>
<polygon fill="#7fa9ae" stroke="#7fa9ae" points="204.7,-302.33 199.7,-304.58 202.2,-302.33 199.7,-302.33 199.7,-302.33 199.7,-302.33 202.2,-302.33 199.7,-300.08 204.7,-302.33 204.7,-302.33"/>
</g>
<!-- mb&#45;lambda&#45;shared/online&#45;order&#45;lib&#45;&gt;mb&#45;lambda&#45;shared/constants.js -->
<g id="edge18" class="edge">
<title>mb&#45;lambda&#45;shared/online&#45;order&#45;lib&#45;&gt;mb&#45;lambda&#45;shared/constants.js</title>
<path fill="none" stroke="#7fa9ae" d="M285.23,-304.67C307.61,-304.67 331,-304.67 331,-304.67 331,-304.67 331,-322.82 331,-322.82"/>
<polygon fill="#7fa9ae" stroke="#7fa9ae" points="331,-327.82 328.75,-322.82 331,-325.32 331,-322.82 331,-322.82 331,-322.82 331,-325.32 333.25,-322.82 331,-327.82 331,-327.82"/>
</g>
<!-- mb&#45;lambda&#45;shared/online&#45;order&#45;lib&#45;&gt;mb&#45;lambda&#45;shared/error&#45;handling -->
<g id="edge19" class="edge">
<title>mb&#45;lambda&#45;shared/online&#45;order&#45;lib&#45;&gt;mb&#45;lambda&#45;shared/error&#45;handling</title>
<path fill="none" stroke="#7fa9ae" d="M285.06,-298.17C346.76,-298.17 458,-298.17 458,-298.17 458,-298.17 458,-268 458,-268 458,-268 459.49,-268 459.49,-268"/>
<polygon fill="#7fa9ae" stroke="#7fa9ae" points="464.49,-268 459.49,-270.25 461.99,-268 459.49,-268 459.49,-268 459.49,-268 461.99,-268 459.49,-265.75 464.49,-268 464.49,-268"/>
</g>
<!-- mb&#45;lambda&#45;shared/online&#45;order&#45;lib&#45;&gt;mb&#45;lambda&#45;shared/libraries -->
<g id="edge12" class="edge">
<title>mb&#45;lambda&#45;shared/online&#45;order&#45;lib&#45;&gt;mb&#45;lambda&#45;shared/libraries</title>
<path fill="none" stroke="#7fa9ae" d="M204.86,-294.5C150.45,-294.5 60,-294.5 60,-294.5 60,-294.5 60,-295.02 60,-295.02"/>
<polygon fill="#7fa9ae" stroke="#7fa9ae" points="60,-299.73 57.75,-294.73 60,-297.23 60,-294.73 60,-294.73 60,-294.73 60,-297.23 62.25,-294.73 60,-299.73 60,-299.73"/>
</g>
<!-- mb&#45;lambda&#45;shared/online&#45;order&#45;lib&#45;&gt;mb&#45;lambda&#45;shared/models -->
<g id="edge13" class="edge">
<title>mb&#45;lambda&#45;shared/online&#45;order&#45;lib&#45;&gt;mb&#45;lambda&#45;shared/models</title>
<path fill="none" stroke="#7fa9ae" d="M204.99,-304.67C204.99,-304.67 180.21,-304.67 180.21,-304.67"/>
<polygon fill="#7fa9ae" stroke="#7fa9ae" points="175.21,-304.67 180.21,-302.42 177.71,-304.67 180.21,-304.67 180.21,-304.67 180.21,-304.67 177.71,-304.67 180.21,-306.92 175.21,-304.67 175.21,-304.67"/>
</g>
<!-- mb&#45;lambda&#45;shared/online&#45;models -->
<g id="node8" class="node">
<title>mb&#45;lambda&#45;shared/online&#45;models</title>
<g id="a_node8"><a xlink:href="mb-lambda-shared/online-models" xlink:title="online&#45;models">
<polygon fill="#d60007" stroke="#f2f2f2" points="451,-274 378,-274 376,-272 376,-256 449,-256 451,-258 451,-274"/>
<polyline fill="none" stroke="#f2f2f2" points="449,-272 376,-272 "/>
<polyline fill="none" stroke="#f2f2f2" points="449,-272 449,-256 "/>
<polyline fill="none" stroke="#f2f2f2" points="449,-272 451,-274 "/>
<text text-anchor="middle" x="413.5" y="-262.8" font-family="Helvetica,sans-Serif" font-size="9.00" fill="#f2f2f2">online&#45;models</text>
</a>
</g>
</g>
<!-- mb&#45;lambda&#45;shared/online&#45;order&#45;lib&#45;&gt;mb&#45;lambda&#45;shared/online&#45;models -->
<g id="edge14" class="edge">
<title>mb&#45;lambda&#45;shared/online&#45;order&#45;lib&#45;&gt;mb&#45;lambda&#45;shared/online&#45;models</title>
<path fill="none" stroke="#7fa9ae" d="M285.12,-292.67C326.49,-292.67 385,-292.67 385,-292.67 385,-292.67 385,-279.06 385,-279.06"/>
<polygon fill="#7fa9ae" stroke="#7fa9ae" points="385,-274.06 387.25,-279.06 385,-276.56 385,-279.06 385,-279.06 385,-279.06 385,-276.56 382.75,-279.06 385,-274.06 385,-274.06"/>
</g>
<!-- mb&#45;lambda&#45;shared/pos&#45;models -->
<g id="node9" class="node">
<title>mb&#45;lambda&#45;shared/pos&#45;models</title>
<g id="a_node9"><a xlink:href="mb-lambda-shared/pos-models" xlink:title="pos&#45;models">
<polygon fill="#d60007" stroke="#f2f2f2" points="363,-288 300,-288 298,-286 298,-270 361,-270 363,-272 363,-288"/>
<polyline fill="none" stroke="#f2f2f2" points="361,-286 298,-286 "/>
<polyline fill="none" stroke="#f2f2f2" points="361,-286 361,-270 "/>
<polyline fill="none" stroke="#f2f2f2" points="361,-286 363,-288 "/>
<text text-anchor="middle" x="330.5" y="-276.8" font-family="Helvetica,sans-Serif" font-size="9.00" fill="#f2f2f2">pos&#45;models</text>
</a>
</g>
</g>
<!-- mb&#45;lambda&#45;shared/online&#45;order&#45;lib&#45;&gt;mb&#45;lambda&#45;shared/pos&#45;models -->
<g id="edge15" class="edge">
<title>mb&#45;lambda&#45;shared/online&#45;order&#45;lib&#45;&gt;mb&#45;lambda&#45;shared/pos&#45;models</title>
<path fill="none" stroke="#7fa9ae" d="M281,-288.7C281,-284.74 281,-281 281,-281 281,-281 292.76,-281 292.76,-281"/>
<polygon fill="#7fa9ae" stroke="#7fa9ae" points="297.76,-281 292.76,-283.25 295.26,-281 292.76,-281 292.76,-281 292.76,-281 295.26,-281 292.76,-278.75 297.76,-281 297.76,-281"/>
</g>
<!-- mb&#45;lambda&#45;shared/utils.js -->
<g id="node10" class="node">
<title>mb&#45;lambda&#45;shared/utils.js</title>
<g id="a_node10"><a xlink:href="mb-lambda-shared/utils.js" xlink:title="utils.js">
<polygon fill="#d60007" stroke="#f2f2f2" points="440.5,-318 388.5,-318 386.5,-316 386.5,-300 438.5,-300 440.5,-302 440.5,-318"/>
<polyline fill="none" stroke="#f2f2f2" points="438.5,-316 386.5,-316 "/>
<polyline fill="none" stroke="#f2f2f2" points="438.5,-316 438.5,-300 "/>
<polyline fill="none" stroke="#f2f2f2" points="438.5,-316 440.5,-318 "/>
<text text-anchor="middle" x="413.5" y="-306.8" font-family="Helvetica,sans-Serif" font-size="9.00" fill="#f2f2f2">utils.js</text>
</a>
</g>
</g>
<!-- mb&#45;lambda&#45;shared/online&#45;order&#45;lib&#45;&gt;mb&#45;lambda&#45;shared/utils.js -->
<g id="edge16" class="edge">
<title>mb&#45;lambda&#45;shared/online&#45;order&#45;lib&#45;&gt;mb&#45;lambda&#45;shared/utils.js</title>
<path fill="none" stroke="#7fa9ae" d="M285.36,-302.33C285.36,-302.33 381.36,-302.33 381.36,-302.33"/>
<polygon fill="#7fa9ae" stroke="#7fa9ae" points="386.36,-302.33 381.36,-304.58 383.86,-302.33 381.36,-302.33 381.36,-302.33 381.36,-302.33 383.86,-302.33 381.36,-300.08 386.36,-302.33 386.36,-302.33"/>
</g>
<!-- models/pos -->
<g id="node11" class="node">
<title>models/pos</title>
<g id="a_node11"><a xlink:href="models/pos" xlink:title="pos">
<polygon fill="#d60007" stroke="#f2f2f2" points="357.5,-214 305.5,-214 303.5,-212 303.5,-196 355.5,-196 357.5,-198 357.5,-214"/>
<polyline fill="none" stroke="#f2f2f2" points="355.5,-212 303.5,-212 "/>
<polyline fill="none" stroke="#f2f2f2" points="355.5,-212 355.5,-196 "/>
<polyline fill="none" stroke="#f2f2f2" points="355.5,-212 357.5,-214 "/>
<text text-anchor="middle" x="330.5" y="-202.8" font-family="Helvetica,sans-Serif" font-size="9.00" fill="#f2f2f2">pos</text>
</a>
</g>
</g>
<!-- mb&#45;lambda&#45;shared/online&#45;order&#45;lib&#45;&gt;models/pos -->
<g id="edge17" class="edge">
<title>mb&#45;lambda&#45;shared/online&#45;order&#45;lib&#45;&gt;models/pos</title>
<path fill="none" stroke="#7fa9ae" d="M277,-288.74C277,-265.22 277,-205 277,-205 277,-205 298.44,-205 298.44,-205"/>
<polygon fill="#7fa9ae" stroke="#7fa9ae" points="303.44,-205 298.44,-207.25 300.94,-205 298.44,-205 298.44,-205 298.44,-205 300.94,-205 298.44,-202.75 303.44,-205 303.44,-205"/>
</g>
<!-- mb&#45;lambda&#45;shared/online&#45;helpers -->
<g id="node7" class="node">
<title>mb&#45;lambda&#45;shared/online&#45;helpers</title>
<g id="a_node7"><a xlink:href="mb-lambda-shared/online-helpers" xlink:title="online&#45;helpers">
<polygon fill="#d60007" stroke="#f2f2f2" points="540,-304 466,-304 464,-302 464,-286 538,-286 540,-288 540,-304"/>
<polyline fill="none" stroke="#f2f2f2" points="538,-302 464,-302 "/>
<polyline fill="none" stroke="#f2f2f2" points="538,-302 538,-286 "/>
<polyline fill="none" stroke="#f2f2f2" points="538,-302 540,-304 "/>
<text text-anchor="middle" x="502" y="-292.8" font-family="Helvetica,sans-Serif" font-size="9.00" fill="#f2f2f2">online&#45;helpers</text>
</a>
</g>
</g>
<!-- mb&#45;lambda&#45;shared/online&#45;helpers&#45;&gt;mb&#45;lambda&#45;shared/online&#45;models -->
<g id="edge7" class="edge">
<title>mb&#45;lambda&#45;shared/online&#45;helpers&#45;&gt;mb&#45;lambda&#45;shared/online&#45;models</title>
<path fill="none" stroke="#7fa9ae" d="M463.91,-294.5C454.97,-294.5 448,-294.5 448,-294.5 448,-294.5 448,-279.01 448,-279.01"/>
<polygon fill="#7fa9ae" stroke="#7fa9ae" points="448,-274.01 450.25,-279.01 448,-276.51 448,-279.01 448,-279.01 448,-279.01 448,-276.51 445.75,-279.01 448,-274.01 448,-274.01"/>
</g>
<!-- mb&#45;lambda&#45;shared/online&#45;models&#45;&gt;mb&#45;lambda&#45;shared/error&#45;handling -->
<g id="edge9" class="edge">
<title>mb&#45;lambda&#45;shared/online&#45;models&#45;&gt;mb&#45;lambda&#45;shared/error&#45;handling</title>
<path fill="none" stroke="#7fa9ae" d="M451.03,-262C451.03,-262 459.41,-262 459.41,-262"/>
<polygon fill="#7fa9ae" stroke="#7fa9ae" points="464.41,-262 459.41,-264.25 461.91,-262 459.41,-262 459.41,-262 459.41,-262 461.91,-262 459.41,-259.75 464.41,-262 464.41,-262"/>
</g>
<!-- mb&#45;lambda&#45;shared/online&#45;models&#45;&gt;mb&#45;lambda&#45;shared/online&#45;order&#45;lib -->
<g id="edge11" class="edge">
<title>mb&#45;lambda&#45;shared/online&#45;models&#45;&gt;mb&#45;lambda&#45;shared/online&#45;order&#45;lib</title>
<path fill="none" stroke="#7fa9ae" d="M383,-274.04C383,-281.48 383,-290.83 383,-290.83 383,-290.83 290.29,-290.83 290.29,-290.83"/>
<polygon fill="#7fa9ae" stroke="#7fa9ae" points="285.29,-290.83 290.29,-288.58 287.79,-290.83 290.29,-290.83 290.29,-290.83 290.29,-290.83 287.79,-290.83 290.29,-293.08 285.29,-290.83 285.29,-290.83"/>
</g>
<!-- mb&#45;lambda&#45;shared/online&#45;models&#45;&gt;mb&#45;lambda&#45;shared/online&#45;helpers -->
<g id="edge10" class="edge">
<title>mb&#45;lambda&#45;shared/online&#45;models&#45;&gt;mb&#45;lambda&#45;shared/online&#45;helpers</title>
<path fill="none" stroke="#7fa9ae" d="M444,-274.23C444,-283.47 444,-296.33 444,-296.33 444,-296.33 452.46,-296.33 452.46,-296.33"/>
<polygon fill="#7fa9ae" stroke="#7fa9ae" points="458.96,-298.08 463.96,-296.33 458.96,-294.58 458.96,-298.08"/>
<polyline fill="none" stroke="#7fa9ae" points="458.96,-296.33 456.46,-296.33 "/>
<ellipse fill="none" stroke="#7fa9ae" cx="454.46" cy="-296.33" rx="2" ry="2"/>
</g>
<!-- mb&#45;lambda&#45;shared/online&#45;models&#45;&gt;mb&#45;lambda&#45;shared/pos&#45;models -->
<g id="edge8" class="edge">
<title>mb&#45;lambda&#45;shared/online&#45;models&#45;&gt;mb&#45;lambda&#45;shared/pos&#45;models</title>
<path fill="none" stroke="#7fa9ae" d="M381,-274.2C381,-275.5 381,-276.4 381,-276.4 381,-276.4 368.05,-276.4 368.05,-276.4"/>
<polygon fill="#7fa9ae" stroke="#7fa9ae" points="363.05,-276.4 368.05,-274.15 365.55,-276.4 368.05,-276.4 368.05,-276.4 368.05,-276.4 365.55,-276.4 368.05,-278.65 363.05,-276.4 363.05,-276.4"/>
</g>
<!-- mb&#45;lambda&#45;shared/pos&#45;models&#45;&gt;mb&#45;lambda&#45;shared/error&#45;handling -->
<g id="edge22" class="edge">
<title>mb&#45;lambda&#45;shared/pos&#45;models&#45;&gt;mb&#45;lambda&#45;shared/error&#45;handling</title>
<path fill="none" stroke="#7fa9ae" d="M363.16,-281.2C412.92,-281.2 502,-281.2 502,-281.2 502,-281.2 502,-279.24 502,-279.24"/>
<polygon fill="#7fa9ae" stroke="#7fa9ae" points="502,-274.24 504.25,-279.24 502,-276.74 502,-279.24 502,-279.24 502,-279.24 502,-276.74 499.75,-279.24 502,-274.24 502,-274.24"/>
</g>
<!-- mb&#45;lambda&#45;shared/pos&#45;models&#45;&gt;mb&#45;lambda&#45;shared/online&#45;models -->
<g id="edge21" class="edge">
<title>mb&#45;lambda&#45;shared/pos&#45;models&#45;&gt;mb&#45;lambda&#45;shared/online&#45;models</title>
<path fill="none" stroke="#7fa9ae" d="M363.12,-278.8C371.89,-278.8 379,-278.8 379,-278.8 379,-278.8 379,-278.33 379,-278.33"/>
<polygon fill="#7fa9ae" stroke="#7fa9ae" points="379,-274.13 381.25,-279.13 379,-276.63 379,-279.13 379,-279.13 379,-279.13 379,-276.63 376.75,-279.13 379,-274.13 379,-274.13"/>
</g>
<!-- mb&#45;lambda&#45;shared/pos&#45;models&#45;&gt;mb&#45;lambda&#45;shared/utils.js -->
<g id="edge20" class="edge">
<title>mb&#45;lambda&#45;shared/pos&#45;models&#45;&gt;mb&#45;lambda&#45;shared/utils.js</title>
<path fill="none" stroke="#7fa9ae" d="M363.02,-283.6C386.47,-283.6 414,-283.6 414,-283.6 414,-283.6 414,-294.83 414,-294.83"/>
<polygon fill="#7fa9ae" stroke="#7fa9ae" points="414,-299.83 411.75,-294.83 414,-297.33 414,-294.83 414,-294.83 414,-294.83 414,-297.33 416.25,-294.83 414,-299.83 414,-299.83"/>
</g>
<!-- pay/.well&#45;known -->
<g id="node12" class="node">
<title>pay/.well&#45;known</title>
<g id="a_node12"><a xlink:href="pay/.well-known" xlink:title=".well&#45;known">
<polygon fill="#d60007" stroke="#f2f2f2" points="83,-64 20,-64 18,-62 18,-46 81,-46 83,-48 83,-64"/>
<polyline fill="none" stroke="#f2f2f2" points="81,-62 18,-62 "/>
<polyline fill="none" stroke="#f2f2f2" points="81,-62 81,-46 "/>
<polyline fill="none" stroke="#f2f2f2" points="81,-62 83,-64 "/>
<text text-anchor="middle" x="50.5" y="-52.8" font-family="Helvetica,sans-Serif" font-size="9.00" fill="#f2f2f2">.well&#45;known</text>
</a>
</g>
</g>
<!-- serverless&#45;helpers/index.js -->
<g id="node13" class="node">
<title>serverless&#45;helpers/index.js</title>
<g id="a_node13"><a xlink:href="serverless-helpers/index.js" xlink:title="index.js">
<polygon fill="#d60007" stroke="#f2f2f2" points="175,-84 123,-84 121,-82 121,-66 173,-66 175,-68 175,-84"/>
<polyline fill="none" stroke="#f2f2f2" points="173,-82 121,-82 "/>
<polyline fill="none" stroke="#f2f2f2" points="173,-82 173,-66 "/>
<polyline fill="none" stroke="#f2f2f2" points="173,-82 175,-84 "/>
<text text-anchor="middle" x="148" y="-72.8" font-family="Helvetica,sans-Serif" font-size="9.00" fill="#f2f2f2">index.js</text>
</a>
</g>
</g>
<!-- pay/.well&#45;known&#45;&gt;serverless&#45;helpers/index.js -->
<g id="edge23" class="edge">
<title>pay/.well&#45;known&#45;&gt;serverless&#45;helpers/index.js</title>
<path fill="none" stroke="#7fa9ae" d="M83.2,-55C108.41,-55 139,-55 139,-55 139,-55 139,-60.94 139,-60.94"/>
<polygon fill="#7fa9ae" stroke="#7fa9ae" points="139,-65.94 136.75,-60.94 139,-63.44 139,-60.94 139,-60.94 139,-60.94 139,-63.44 141.25,-60.94 139,-65.94 139,-65.94"/>
</g>
<!-- serverless&#45;helpers/index.js&#45;&gt;mb&#45;lambda&#45;shared/db.js -->
<g id="edge40" class="edge">
<title>serverless&#45;helpers/index.js&#45;&gt;mb&#45;lambda&#45;shared/db.js</title>
<path fill="none" stroke="#7fa9ae" d="M175.02,-78C206.43,-78 254,-78 254,-78 254,-78 254,-250.98 254,-250.98"/>
<polygon fill="#7fa9ae" stroke="#7fa9ae" points="254,-255.98 251.75,-250.98 254,-253.48 254,-250.98 254,-250.98 254,-250.98 254,-253.48 256.25,-250.98 254,-255.98 254,-255.98"/>
</g>
<!-- serverless&#45;helpers/index.js&#45;&gt;mb&#45;lambda&#45;shared/error&#45;handling -->
<g id="edge41" class="edge">
<title>serverless&#45;helpers/index.js&#45;&gt;mb&#45;lambda&#45;shared/error&#45;handling</title>
<path fill="none" stroke="#7fa9ae" d="M175.19,-72C258.08,-72 502,-72 502,-72 502,-72 502,-250.95 502,-250.95"/>
<polygon fill="#7fa9ae" stroke="#7fa9ae" points="502,-255.95 499.75,-250.95 502,-253.45 502,-250.95 502,-250.95 502,-250.95 502,-253.45 504.25,-250.95 502,-255.95 502,-255.95"/>
</g>
<!-- pay/applePay -->
<g id="node14" class="node">
<title>pay/applePay</title>
<g id="a_node14"><a xlink:href="pay/applePay" xlink:title="applePay">
<polygon fill="#d60007" stroke="#f2f2f2" points="78.5,-34 24.5,-34 22.5,-32 22.5,-16 76.5,-16 78.5,-18 78.5,-34"/>
<polyline fill="none" stroke="#f2f2f2" points="76.5,-32 22.5,-32 "/>
<polyline fill="none" stroke="#f2f2f2" points="76.5,-32 76.5,-16 "/>
<polyline fill="none" stroke="#f2f2f2" points="76.5,-32 78.5,-34 "/>
<text text-anchor="middle" x="50.5" y="-22.8" font-family="Helvetica,sans-Serif" font-size="9.00" fill="#f2f2f2">applePay</text>
</a>
</g>
</g>
<!-- pay/applePay&#45;&gt;mb&#45;lambda&#45;shared/db.js -->
<g id="edge25" class="edge">
<title>pay/applePay&#45;&gt;mb&#45;lambda&#45;shared/db.js</title>
<path fill="none" stroke="#7fa9ae" d="M78.72,-25C136.52,-25 263,-25 263,-25 263,-25 263,-250.88 263,-250.88"/>
<polygon fill="#7fa9ae" stroke="#7fa9ae" points="263,-255.88 260.75,-250.88 263,-253.38 263,-250.88 263,-250.88 263,-250.88 263,-253.38 265.25,-250.88 263,-255.88 263,-255.88"/>
</g>
<!-- pay/applePay&#45;&gt;mb&#45;lambda&#45;shared/error&#45;handling -->
<g id="edge26" class="edge">
<title>pay/applePay&#45;&gt;mb&#45;lambda&#45;shared/error&#45;handling</title>
<path fill="none" stroke="#7fa9ae" d="M78.52,-20.5C179.81,-20.5 521,-20.5 521,-20.5 521,-20.5 521,-250.71 521,-250.71"/>
<polygon fill="#7fa9ae" stroke="#7fa9ae" points="521,-255.71 518.75,-250.71 521,-253.21 521,-250.71 521,-250.71 521,-250.71 521,-253.21 523.25,-250.71 521,-255.71 521,-255.71"/>
</g>
<!-- pay/applePay&#45;&gt;mb&#45;lambda&#45;shared/libraries -->
<g id="edge27" class="edge">
<title>pay/applePay&#45;&gt;mb&#45;lambda&#45;shared/libraries</title>
<path fill="none" stroke="#7fa9ae" d="M22.3,-25C10.73,-25 0,-25 0,-25 0,-25 0,-309 0,-309 0,-309 18.48,-309 18.48,-309"/>
<polygon fill="#7fa9ae" stroke="#7fa9ae" points="23.48,-309 18.48,-311.25 20.98,-309 18.48,-309 18.48,-309 18.48,-309 20.98,-309 18.48,-306.75 23.48,-309 23.48,-309"/>
</g>
<!-- pay/applePay&#45;&gt;serverless&#45;helpers/index.js -->
<g id="edge24" class="edge">
<title>pay/applePay&#45;&gt;serverless&#45;helpers/index.js</title>
<path fill="none" stroke="#7fa9ae" d="M78.76,-29.5C110.31,-29.5 157,-29.5 157,-29.5 157,-29.5 157,-60.79 157,-60.79"/>
<polygon fill="#7fa9ae" stroke="#7fa9ae" points="157,-65.79 154.75,-60.79 157,-63.29 157,-60.79 157,-60.79 157,-60.79 157,-63.29 159.25,-60.79 157,-65.79 157,-65.79"/>
</g>
<!-- pay/feedback -->
<g id="node15" class="node">
<title>pay/feedback</title>
<g id="a_node15"><a xlink:href="pay/feedback" xlink:title="feedback">
<polygon fill="#d60007" stroke="#f2f2f2" points="77.5,-124 25.5,-124 23.5,-122 23.5,-106 75.5,-106 77.5,-108 77.5,-124"/>
<polyline fill="none" stroke="#f2f2f2" points="75.5,-122 23.5,-122 "/>
<polyline fill="none" stroke="#f2f2f2" points="75.5,-122 75.5,-106 "/>
<polyline fill="none" stroke="#f2f2f2" points="75.5,-122 77.5,-124 "/>
<text text-anchor="middle" x="50.5" y="-112.8" font-family="Helvetica,sans-Serif" font-size="9.00" fill="#f2f2f2">feedback</text>
</a>
</g>
</g>
<!-- pay/feedback&#45;&gt;mb&#45;lambda&#45;shared/db.js -->
<g id="edge29" class="edge">
<title>pay/feedback&#45;&gt;mb&#45;lambda&#45;shared/db.js</title>
<path fill="none" stroke="#7fa9ae" d="M77.54,-118C130.99,-118 245,-118 245,-118 245,-118 245,-250.8 245,-250.8"/>
<polygon fill="#7fa9ae" stroke="#7fa9ae" points="245,-255.8 242.75,-250.8 245,-253.3 245,-250.8 245,-250.8 245,-250.8 245,-253.3 247.25,-250.8 245,-255.8 245,-255.8"/>
</g>
<!-- pay/feedback&#45;&gt;serverless&#45;helpers/index.js -->
<g id="edge28" class="edge">
<title>pay/feedback&#45;&gt;serverless&#45;helpers/index.js</title>
<path fill="none" stroke="#7fa9ae" d="M77.66,-112C106.51,-112 148,-112 148,-112 148,-112 148,-89.34 148,-89.34"/>
<polygon fill="#7fa9ae" stroke="#7fa9ae" points="148,-84.34 150.25,-89.34 148,-86.84 148,-89.34 148,-89.34 148,-89.34 148,-86.84 145.75,-89.34 148,-84.34 148,-84.34"/>
</g>
<!-- pay/index -->
<g id="node16" class="node">
<title>pay/index</title>
<g id="a_node16"><a xlink:href="pay/index" xlink:title="index">
<polygon fill="#d60007" stroke="#f2f2f2" points="77.5,-214 25.5,-214 23.5,-212 23.5,-196 75.5,-196 77.5,-198 77.5,-214"/>
<polyline fill="none" stroke="#f2f2f2" points="75.5,-212 23.5,-212 "/>
<polyline fill="none" stroke="#f2f2f2" points="75.5,-212 75.5,-196 "/>
<polyline fill="none" stroke="#f2f2f2" points="75.5,-212 77.5,-214 "/>
<text text-anchor="middle" x="50.5" y="-202.8" font-family="Helvetica,sans-Serif" font-size="9.00" fill="#f2f2f2">index</text>
</a>
</g>
</g>
<!-- pay/index&#45;&gt;mb&#45;lambda&#45;shared/db.js -->
<g id="edge30" class="edge">
<title>pay/index&#45;&gt;mb&#45;lambda&#45;shared/db.js</title>
<path fill="none" stroke="#7fa9ae" d="M42,-214.16C42,-230.27 42,-262 42,-262 42,-262 212.62,-262 212.62,-262"/>
<polygon fill="#7fa9ae" stroke="#7fa9ae" points="217.62,-262 212.62,-264.25 215.12,-262 212.62,-262 212.62,-262 212.62,-262 215.12,-262 212.62,-259.75 217.62,-262 217.62,-262"/>
</g>
<!-- pay/redirect -->
<g id="node17" class="node">
<title>pay/redirect</title>
<g id="a_node17"><a xlink:href="pay/redirect" xlink:title="redirect">
<polygon fill="#777777" stroke="#f2f2f2" points="77.5,-94 25.5,-94 23.5,-92 23.5,-76 75.5,-76 77.5,-78 77.5,-94"/>
<polyline fill="none" stroke="#f2f2f2" points="75.5,-92 23.5,-92 "/>
<polyline fill="none" stroke="#f2f2f2" points="75.5,-92 75.5,-76 "/>
<polyline fill="none" stroke="#f2f2f2" points="75.5,-92 77.5,-94 "/>
<text text-anchor="middle" x="50.5" y="-82.8" font-family="Helvetica,sans-Serif" font-size="9.00" fill="#f2f2f2">redirect</text>
</a>
</g>
</g>
<!-- pay/setup -->
<g id="node18" class="node">
<title>pay/setup</title>
<g id="a_node18"><a xlink:href="pay/setup" xlink:title="setup">
<polygon fill="#d60007" stroke="#f2f2f2" points="77.5,-154 25.5,-154 23.5,-152 23.5,-136 75.5,-136 77.5,-138 77.5,-154"/>
<polyline fill="none" stroke="#f2f2f2" points="75.5,-152 23.5,-152 "/>
<polyline fill="none" stroke="#f2f2f2" points="75.5,-152 75.5,-136 "/>
<polyline fill="none" stroke="#f2f2f2" points="75.5,-152 77.5,-154 "/>
<text text-anchor="middle" x="50.5" y="-142.8" font-family="Helvetica,sans-Serif" font-size="9.00" fill="#f2f2f2">setup</text>
</a>
</g>
</g>
<!-- pay/setup&#45;&gt;mb&#45;lambda&#45;shared/db.js -->
<g id="edge32" class="edge">
<title>pay/setup&#45;&gt;mb&#45;lambda&#45;shared/db.js</title>
<path fill="none" stroke="#7fa9ae" d="M77.87,-146.8C129.47,-146.8 236,-146.8 236,-146.8 236,-146.8 236,-250.73 236,-250.73"/>
<polygon fill="#7fa9ae" stroke="#7fa9ae" points="236,-255.73 233.75,-250.72 236,-253.23 236,-250.73 236,-250.73 236,-250.73 236,-253.23 238.25,-250.73 236,-255.73 236,-255.73"/>
</g>
<!-- pay/setup&#45;&gt;mb&#45;lambda&#45;shared/error&#45;handling -->
<g id="edge33" class="edge">
<title>pay/setup&#45;&gt;mb&#45;lambda&#45;shared/error&#45;handling</title>
<path fill="none" stroke="#7fa9ae" d="M77.62,-143.2C172.52,-143.2 484,-143.2 484,-143.2 484,-143.2 484,-250.85 484,-250.85"/>
<polygon fill="#7fa9ae" stroke="#7fa9ae" points="484,-255.85 481.75,-250.85 484,-253.35 484,-250.85 484,-250.85 484,-250.85 484,-253.35 486.25,-250.85 484,-255.85 484,-255.85"/>
</g>
<!-- pay/setup&#45;&gt;mb&#45;lambda&#45;shared/online&#45;order&#45;lib -->
<g id="edge34" class="edge">
<title>pay/setup&#45;&gt;mb&#45;lambda&#45;shared/online&#45;order&#45;lib</title>
<path fill="none" stroke="#7fa9ae" d="M77.87,-150.4C124.41,-150.4 214,-150.4 214,-150.4 214,-150.4 214,-283.77 214,-283.77"/>
<polygon fill="#7fa9ae" stroke="#7fa9ae" points="214,-288.77 211.75,-283.77 214,-286.27 214,-283.77 214,-283.77 214,-283.77 214,-286.27 216.25,-283.77 214,-288.77 214,-288.77"/>
</g>
<!-- pay/setup&#45;&gt;serverless&#45;helpers/index.js -->
<g id="edge31" class="edge">
<title>pay/setup&#45;&gt;serverless&#45;helpers/index.js</title>
<path fill="none" stroke="#7fa9ae" d="M77.65,-139.6C109.2,-139.6 157,-139.6 157,-139.6 157,-139.6 157,-89.26 157,-89.26"/>
<polygon fill="#7fa9ae" stroke="#7fa9ae" points="157,-84.26 159.25,-89.26 157,-86.76 157,-89.26 157,-89.26 157,-89.26 157,-86.76 154.75,-89.26 157,-84.26 157,-84.26"/>
</g>
<!-- pay/ticket -->
<g id="node19" class="node">
<title>pay/ticket</title>
<g id="a_node19"><a xlink:href="pay/ticket" xlink:title="ticket">
<polygon fill="#d60007" stroke="#f2f2f2" points="77.5,-184 25.5,-184 23.5,-182 23.5,-166 75.5,-166 77.5,-168 77.5,-184"/>
<polyline fill="none" stroke="#f2f2f2" points="75.5,-182 23.5,-182 "/>
<polyline fill="none" stroke="#f2f2f2" points="75.5,-182 75.5,-166 "/>
<polyline fill="none" stroke="#f2f2f2" points="75.5,-182 77.5,-184 "/>
<text text-anchor="middle" x="50.5" y="-172.8" font-family="Helvetica,sans-Serif" font-size="9.00" fill="#f2f2f2">ticket</text>
</a>
</g>
</g>
<!-- pay/ticket&#45;&gt;mb&#45;lambda&#45;shared/db.js -->
<g id="edge37" class="edge">
<title>pay/ticket&#45;&gt;mb&#45;lambda&#45;shared/db.js</title>
<path fill="none" stroke="#7fa9ae" d="M77.69,-175C127.2,-175 227,-175 227,-175 227,-175 227,-250.71 227,-250.71"/>
<polygon fill="#7fa9ae" stroke="#7fa9ae" points="227,-255.71 224.75,-250.71 227,-253.21 227,-250.71 227,-250.71 227,-250.71 227,-253.21 229.25,-250.71 227,-255.71 227,-255.71"/>
</g>
<!-- pay/ticket&#45;&gt;mb&#45;lambda&#45;shared/models -->
<g id="edge38" class="edge">
<title>pay/ticket&#45;&gt;mb&#45;lambda&#45;shared/models</title>
<path fill="none" stroke="#7fa9ae" d="M77.86,-181C100.86,-181 130,-181 130,-181 130,-181 130,-294.79 130,-294.79"/>
<polygon fill="#7fa9ae" stroke="#7fa9ae" points="130,-299.79 127.75,-294.79 130,-297.29 130,-294.79 130,-294.79 130,-294.79 130,-297.29 132.25,-294.79 130,-299.79 130,-299.79"/>
</g>
<!-- pay/ticket&#45;&gt;mb&#45;lambda&#45;shared/online&#45;order&#45;lib -->
<g id="edge36" class="edge">
<title>pay/ticket&#45;&gt;mb&#45;lambda&#45;shared/online&#45;order&#45;lib</title>
<path fill="none" stroke="#7fa9ae" d="M77.56,-178C123.06,-178 210,-178 210,-178 210,-178 210,-283.98 210,-283.98"/>
<polygon fill="#7fa9ae" stroke="#7fa9ae" points="210,-288.98 207.75,-283.98 210,-286.48 210,-283.98 210,-283.98 210,-283.98 210,-286.48 212.25,-283.98 210,-288.98 210,-288.98"/>
</g>
<!-- pay/ticket&#45;&gt;mb&#45;lambda&#45;shared/online&#45;models -->
<g id="edge39" class="edge">
<title>pay/ticket&#45;&gt;mb&#45;lambda&#45;shared/online&#45;models</title>
<path fill="none" stroke="#7fa9ae" d="M77.52,-172C161.77,-172 414,-172 414,-172 414,-172 414,-250.74 414,-250.74"/>
<polygon fill="#7fa9ae" stroke="#7fa9ae" points="414,-255.74 411.75,-250.74 414,-253.24 414,-250.74 414,-250.74 414,-250.74 414,-253.24 416.25,-250.74 414,-255.74 414,-255.74"/>
</g>
<!-- pay/ticket&#45;&gt;serverless&#45;helpers/index.js -->
<g id="edge35" class="edge">
<title>pay/ticket&#45;&gt;serverless&#45;helpers/index.js</title>
<path fill="none" stroke="#7fa9ae" d="M77.58,-169C111.72,-169 166,-169 166,-169 166,-169 166,-89.01 166,-89.01"/>
<polygon fill="#7fa9ae" stroke="#7fa9ae" points="166,-84.01 168.25,-89.01 166,-86.51 166,-89.01 166,-89.01 166,-89.01 166,-86.51 163.75,-89.01 166,-84.01 166,-84.01"/>
</g>
</g>
</svg>
