<?xml version="1.0" encoding="UTF-8" standalone="no"?>
<!DOCTYPE svg PUBLIC "-//W3C//DTD SVG 1.1//EN"
 "http://www.w3.org/Graphics/SVG/1.1/DTD/svg11.dtd">
<!-- Generated by graphviz version 2.44.1 (20200629.0846)
 -->
<!-- Title: dependency&#45;cruiser output Pages: 1 -->
<svg width="790pt" height="265pt"
 viewBox="0.00 0.00 790.00 265.00" xmlns="http://www.w3.org/2000/svg" xmlns:xlink="http://www.w3.org/1999/xlink">
<g id="graph0" class="graph" transform="scale(1 1) rotate(0) translate(4 261)">
<title>dependency&#45;cruiser output</title>
<polygon fill="#f2f2f2" stroke="transparent" points="-4,4 -4,-261 786,-261 786,4 -4,4"/>
<g id="clust1" class="cluster">
<title>cluster_mb&#45;lambda&#45;shared</title>
<path fill="transparent" stroke="#53565a" stroke-width="2" d="M436,-109C436,-109 762,-109 762,-109 768,-109 774,-115 774,-121 774,-121 774,-237 774,-237 774,-243 768,-249 762,-249 762,-249 436,-249 436,-249 430,-249 424,-243 424,-237 424,-237 424,-121 424,-121 424,-115 430,-109 436,-109"/>
<text text-anchor="middle" x="599" y="-237.8" font-family="Helvetica,sans-Serif" font-weight="bold" font-size="9.00" fill="#53565a">mb&#45;lambda&#45;shared</text>
</g>
<g id="clust2" class="cluster">
<title>cluster_mb&#45;public&#45;api</title>
<path fill="transparent" stroke="#53565a" stroke-width="2" d="M20,-68C20,-68 404,-68 404,-68 410,-68 416,-74 416,-80 416,-80 416,-222 416,-222 416,-228 410,-234 404,-234 404,-234 20,-234 20,-234 14,-234 8,-228 8,-222 8,-222 8,-80 8,-80 8,-74 14,-68 20,-68"/>
<text text-anchor="middle" x="212" y="-222.8" font-family="Helvetica,sans-Serif" font-weight="bold" font-size="9.00" fill="#53565a">mb&#45;public&#45;api</text>
</g>
<g id="clust3" class="cluster">
<title>cluster_models</title>
<path fill="transparent" stroke="#53565a" stroke-width="2" d="M358,-8C358,-8 404,-8 404,-8 410,-8 416,-14 416,-20 416,-20 416,-48 416,-48 416,-54 410,-60 404,-60 404,-60 358,-60 358,-60 352,-60 346,-54 346,-48 346,-48 346,-20 346,-20 346,-14 352,-8 358,-8"/>
<text text-anchor="middle" x="381" y="-48.8" font-family="Helvetica,sans-Serif" font-weight="bold" font-size="9.00" fill="#53565a">models</text>
</g>
<g id="clust4" class="cluster">
<title>cluster_online&#45;order</title>
<path fill="transparent" stroke="#53565a" stroke-width="2" d="M449,-49C449,-49 495,-49 495,-49 501,-49 507,-55 507,-61 507,-61 507,-89 507,-89 507,-95 501,-101 495,-101 495,-101 449,-101 449,-101 443,-101 437,-95 437,-89 437,-89 437,-61 437,-61 437,-55 443,-49 449,-49"/>
<text text-anchor="middle" x="472" y="-89.8" font-family="Helvetica,sans-Serif" font-weight="bold" font-size="9.00" fill="#53565a">online&#45;order</text>
</g>
<!-- mb&#45;lambda&#45;shared/constants.js -->
<g id="node1" class="node">
<title>mb&#45;lambda&#45;shared/constants.js</title>
<g id="a_node1"><a xlink:href="mb-lambda-shared/constants.js" xlink:title="constants.js">
<polygon fill="#d60007" stroke="#f2f2f2" points="678,-193 615,-193 613,-191 613,-175 676,-175 678,-177 678,-193"/>
<polyline fill="none" stroke="#f2f2f2" points="676,-191 613,-191 "/>
<polyline fill="none" stroke="#f2f2f2" points="676,-191 676,-175 "/>
<polyline fill="none" stroke="#f2f2f2" points="676,-191 678,-193 "/>
<text text-anchor="middle" x="645.5" y="-181.8" font-family="Helvetica,sans-Serif" font-size="9.00" fill="#f2f2f2">constants.js</text>
</a>
</g>
</g>
<!-- mb&#45;lambda&#45;shared/db.js -->
<g id="node2" class="node">
<title>mb&#45;lambda&#45;shared/db.js</title>
<g id="a_node2"><a xlink:href="mb-lambda-shared/db.js" xlink:title="db.js">
<polygon fill="#d60007" stroke="#f2f2f2" points="672.5,-223 620.5,-223 618.5,-221 618.5,-205 670.5,-205 672.5,-207 672.5,-223"/>
<polyline fill="none" stroke="#f2f2f2" points="670.5,-221 618.5,-221 "/>
<polyline fill="none" stroke="#f2f2f2" points="670.5,-221 670.5,-205 "/>
<polyline fill="none" stroke="#f2f2f2" points="670.5,-221 672.5,-223 "/>
<text text-anchor="middle" x="645.5" y="-211.8" font-family="Helvetica,sans-Serif" font-size="9.00" fill="#f2f2f2">db.js</text>
</a>
</g>
</g>
<!-- mb&#45;lambda&#45;shared/error&#45;handling -->
<g id="node3" class="node">
<title>mb&#45;lambda&#45;shared/error&#45;handling</title>
<g id="a_node3"><a xlink:href="mb-lambda-shared/error-handling" xlink:title="error&#45;handling">
<polygon fill="#d60007" stroke="#f2f2f2" points="766,-135 693,-135 691,-133 691,-117 764,-117 766,-119 766,-135"/>
<polyline fill="none" stroke="#f2f2f2" points="764,-133 691,-133 "/>
<polyline fill="none" stroke="#f2f2f2" points="764,-133 764,-117 "/>
<polyline fill="none" stroke="#f2f2f2" points="764,-133 766,-135 "/>
<text text-anchor="middle" x="728.5" y="-123.8" font-family="Helvetica,sans-Serif" font-size="9.00" fill="#f2f2f2">error&#45;handling</text>
</a>
</g>
</g>
<!-- mb&#45;lambda&#45;shared/libraries -->
<g id="node4" class="node">
<title>mb&#45;lambda&#45;shared/libraries</title>
<g id="a_node4"><a xlink:href="mb-lambda-shared/libraries" xlink:title="libraries">
<polygon fill="#d60007" stroke="#f2f2f2" points="589.5,-223 537.5,-223 535.5,-221 535.5,-205 587.5,-205 589.5,-207 589.5,-223"/>
<polyline fill="none" stroke="#f2f2f2" points="587.5,-221 535.5,-221 "/>
<polyline fill="none" stroke="#f2f2f2" points="587.5,-221 587.5,-205 "/>
<polyline fill="none" stroke="#f2f2f2" points="587.5,-221 589.5,-223 "/>
<text text-anchor="middle" x="562.5" y="-211.8" font-family="Helvetica,sans-Serif" font-size="9.00" fill="#f2f2f2">libraries</text>
</a>
</g>
</g>
<!-- mb&#45;lambda&#45;shared/models -->
<g id="node5" class="node">
<title>mb&#45;lambda&#45;shared/models</title>
<g id="a_node5"><a xlink:href="mb-lambda-shared/models" xlink:title="models">
<polygon fill="#d60007" stroke="#f2f2f2" points="589.5,-193 537.5,-193 535.5,-191 535.5,-175 587.5,-175 589.5,-177 589.5,-193"/>
<polyline fill="none" stroke="#f2f2f2" points="587.5,-191 535.5,-191 "/>
<polyline fill="none" stroke="#f2f2f2" points="587.5,-191 587.5,-175 "/>
<polyline fill="none" stroke="#f2f2f2" points="587.5,-191 589.5,-193 "/>
<text text-anchor="middle" x="562.5" y="-181.8" font-family="Helvetica,sans-Serif" font-size="9.00" fill="#f2f2f2">models</text>
</a>
</g>
</g>
<!-- mb&#45;lambda&#45;shared/models&#45;&gt;mb&#45;lambda&#45;shared/constants.js -->
<g id="edge1" class="edge">
<title>mb&#45;lambda&#45;shared/models&#45;&gt;mb&#45;lambda&#45;shared/constants.js</title>
<path fill="none" stroke="#7fa9ae" d="M589.68,-181C589.68,-181 607.76,-181 607.76,-181"/>
<polygon fill="#7fa9ae" stroke="#7fa9ae" points="612.76,-181 607.76,-183.25 610.26,-181 607.76,-181 607.76,-181 607.76,-181 610.26,-181 607.76,-178.75 612.76,-181 612.76,-181"/>
</g>
<!-- mb&#45;lambda&#45;shared/models&#45;&gt;mb&#45;lambda&#45;shared/db.js -->
<g id="edge2" class="edge">
<title>mb&#45;lambda&#45;shared/models&#45;&gt;mb&#45;lambda&#45;shared/db.js</title>
<path fill="none" stroke="#7fa9ae" d="M589.67,-187C598.93,-187 607,-187 607,-187 607,-187 607,-214 607,-214 607,-214 613.34,-214 613.34,-214"/>
<polygon fill="#7fa9ae" stroke="#7fa9ae" points="618.34,-214 613.34,-216.25 615.84,-214 613.34,-214 613.34,-214 613.34,-214 615.84,-214 613.34,-211.75 618.34,-214 618.34,-214"/>
</g>
<!-- mb&#45;lambda&#45;shared/online&#45;models -->
<g id="node6" class="node">
<title>mb&#45;lambda&#45;shared/online&#45;models</title>
<g id="a_node6"><a xlink:href="mb-lambda-shared/online-models" xlink:title="online&#45;models">
<polygon fill="#d60007" stroke="#f2f2f2" points="600,-135 527,-135 525,-133 525,-117 598,-117 600,-119 600,-135"/>
<polyline fill="none" stroke="#f2f2f2" points="598,-133 525,-133 "/>
<polyline fill="none" stroke="#f2f2f2" points="598,-133 598,-117 "/>
<polyline fill="none" stroke="#f2f2f2" points="598,-133 600,-135 "/>
<text text-anchor="middle" x="562.5" y="-123.8" font-family="Helvetica,sans-Serif" font-size="9.00" fill="#f2f2f2">online&#45;models</text>
</a>
</g>
</g>
<!-- mb&#45;lambda&#45;shared/pos&#45;models -->
<g id="node7" class="node">
<title>mb&#45;lambda&#45;shared/pos&#45;models</title>
<g id="a_node7"><a xlink:href="mb-lambda-shared/pos-models" xlink:title="pos&#45;models">
<polygon fill="#d60007" stroke="#f2f2f2" points="678,-135 615,-135 613,-133 613,-117 676,-117 678,-119 678,-135"/>
<polyline fill="none" stroke="#f2f2f2" points="676,-133 613,-133 "/>
<polyline fill="none" stroke="#f2f2f2" points="676,-133 676,-117 "/>
<polyline fill="none" stroke="#f2f2f2" points="676,-133 678,-135 "/>
<text text-anchor="middle" x="645.5" y="-123.8" font-family="Helvetica,sans-Serif" font-size="9.00" fill="#f2f2f2">pos&#45;models</text>
</a>
</g>
</g>
<!-- mb&#45;lambda&#45;shared/online&#45;models&#45;&gt;mb&#45;lambda&#45;shared/pos&#45;models -->
<g id="edge3" class="edge">
<title>mb&#45;lambda&#45;shared/online&#45;models&#45;&gt;mb&#45;lambda&#45;shared/pos&#45;models</title>
<path fill="none" stroke="#7fa9ae" d="M600.11,-123C600.11,-123 607.96,-123 607.96,-123"/>
<polygon fill="#7fa9ae" stroke="#7fa9ae" points="612.96,-123 607.96,-125.25 610.46,-123 607.96,-123 607.96,-123 607.96,-123 610.46,-123 607.96,-120.75 612.96,-123 612.96,-123"/>
</g>
<!-- mb&#45;lambda&#45;shared/pos&#45;models&#45;&gt;mb&#45;lambda&#45;shared/error&#45;handling -->
<g id="edge12" class="edge">
<title>mb&#45;lambda&#45;shared/pos&#45;models&#45;&gt;mb&#45;lambda&#45;shared/error&#45;handling</title>
<path fill="none" stroke="#7fa9ae" d="M678.3,-126C678.3,-126 686,-126 686,-126"/>
<polygon fill="#7fa9ae" stroke="#7fa9ae" points="691,-126 686,-128.25 688.5,-126 686,-126 686,-126 686,-126 688.5,-126 686,-123.75 691,-126 691,-126"/>
</g>
<!-- mb&#45;lambda&#45;shared/pos&#45;models&#45;&gt;mb&#45;lambda&#45;shared/online&#45;models -->
<g id="edge11" class="edge">
<title>mb&#45;lambda&#45;shared/pos&#45;models&#45;&gt;mb&#45;lambda&#45;shared/online&#45;models</title>
<path fill="none" stroke="#7fa9ae" d="M612.7,-129C612.7,-129 605,-129 605,-129"/>
<polygon fill="#7fa9ae" stroke="#7fa9ae" points="600,-129 605,-126.75 602.5,-129 605,-129 605,-129 605,-129 602.5,-129 605,-131.25 600,-129 600,-129"/>
</g>
<!-- mb&#45;lambda&#45;shared/utils.js -->
<g id="node10" class="node">
<title>mb&#45;lambda&#45;shared/utils.js</title>
<g id="a_node10"><a xlink:href="mb-lambda-shared/utils.js" xlink:title="utils.js">
<polygon fill="#d60007" stroke="#f2f2f2" points="755.5,-168 703.5,-168 701.5,-166 701.5,-150 753.5,-150 755.5,-152 755.5,-168"/>
<polyline fill="none" stroke="#f2f2f2" points="753.5,-166 701.5,-166 "/>
<polyline fill="none" stroke="#f2f2f2" points="753.5,-166 753.5,-150 "/>
<polyline fill="none" stroke="#f2f2f2" points="753.5,-166 755.5,-168 "/>
<text text-anchor="middle" x="728.5" y="-156.8" font-family="Helvetica,sans-Serif" font-size="9.00" fill="#f2f2f2">utils.js</text>
</a>
</g>
</g>
<!-- mb&#45;lambda&#45;shared/pos&#45;models&#45;&gt;mb&#45;lambda&#45;shared/utils.js -->
<g id="edge10" class="edge">
<title>mb&#45;lambda&#45;shared/pos&#45;models&#45;&gt;mb&#45;lambda&#45;shared/utils.js</title>
<path fill="none" stroke="#7fa9ae" d="M662,-135.18C662,-142.75 662,-152.25 662,-152.25 662,-152.25 696.45,-152.25 696.45,-152.25"/>
<polygon fill="#7fa9ae" stroke="#7fa9ae" points="701.45,-152.25 696.45,-154.5 698.95,-152.25 696.45,-152.25 696.45,-152.25 696.45,-152.25 698.95,-152.25 696.45,-150 701.45,-152.25 701.45,-152.25"/>
</g>
<!-- mb&#45;lambda&#45;shared/online&#45;order&#45;lib -->
<g id="node8" class="node">
<title>mb&#45;lambda&#45;shared/online&#45;order&#45;lib</title>
<g id="a_node8"><a xlink:href="mb-lambda-shared/online-order-lib" xlink:title="online&#45;order&#45;lib">
<polygon fill="#d60007" stroke="#f2f2f2" points="512,-159 434,-159 432,-157 432,-141 510,-141 512,-143 512,-159"/>
<polyline fill="none" stroke="#f2f2f2" points="510,-157 432,-157 "/>
<polyline fill="none" stroke="#f2f2f2" points="510,-157 510,-141 "/>
<polyline fill="none" stroke="#f2f2f2" points="510,-157 512,-159 "/>
<text text-anchor="middle" x="472" y="-147.8" font-family="Helvetica,sans-Serif" font-size="9.00" fill="#f2f2f2">online&#45;order&#45;lib</text>
</a>
</g>
</g>
<!-- mb&#45;lambda&#45;shared/online&#45;order&#45;lib&#45;&gt;mb&#45;lambda&#45;shared/libraries -->
<g id="edge5" class="edge">
<title>mb&#45;lambda&#45;shared/online&#45;order&#45;lib&#45;&gt;mb&#45;lambda&#45;shared/libraries</title>
<path fill="none" stroke="#7fa9ae" d="M472,-159C472,-175.97 472,-211 472,-211 472,-211 530.35,-211 530.35,-211"/>
<polygon fill="#7fa9ae" stroke="#7fa9ae" points="535.35,-211 530.35,-213.25 532.85,-211 530.35,-211 530.35,-211 530.35,-211 532.85,-211 530.35,-208.75 535.35,-211 535.35,-211"/>
</g>
<!-- mb&#45;lambda&#45;shared/online&#45;order&#45;lib&#45;&gt;mb&#45;lambda&#45;shared/models -->
<g id="edge6" class="edge">
<title>mb&#45;lambda&#45;shared/online&#45;order&#45;lib&#45;&gt;mb&#45;lambda&#45;shared/models</title>
<path fill="none" stroke="#7fa9ae" d="M512.1,-156.75C539.92,-156.75 572,-156.75 572,-156.75 572,-156.75 572,-169.77 572,-169.77"/>
<polygon fill="#7fa9ae" stroke="#7fa9ae" points="572,-174.77 569.75,-169.77 572,-172.27 572,-169.77 572,-169.77 572,-169.77 572,-172.27 574.25,-169.77 572,-174.77 572,-174.77"/>
</g>
<!-- mb&#45;lambda&#45;shared/online&#45;order&#45;lib&#45;&gt;mb&#45;lambda&#45;shared/online&#45;models -->
<g id="edge7" class="edge">
<title>mb&#45;lambda&#45;shared/online&#45;order&#45;lib&#45;&gt;mb&#45;lambda&#45;shared/online&#45;models</title>
<path fill="none" stroke="#7fa9ae" d="M512.01,-144C522.53,-144 531,-144 531,-144 531,-144 531,-140.42 531,-140.42"/>
<polygon fill="#7fa9ae" stroke="#7fa9ae" points="531,-135.42 533.25,-140.42 531,-137.92 531,-140.42 531,-140.42 531,-140.42 531,-137.92 528.75,-140.42 531,-135.42 531,-135.42"/>
</g>
<!-- mb&#45;lambda&#45;shared/online&#45;order&#45;lib&#45;&gt;mb&#45;lambda&#45;shared/pos&#45;models -->
<g id="edge8" class="edge">
<title>mb&#45;lambda&#45;shared/online&#45;order&#45;lib&#45;&gt;mb&#45;lambda&#45;shared/pos&#45;models</title>
<path fill="none" stroke="#7fa9ae" d="M512.28,-147C559.09,-147 630,-147 630,-147 630,-147 630,-140.03 630,-140.03"/>
<polygon fill="#7fa9ae" stroke="#7fa9ae" points="630,-135.03 632.25,-140.03 630,-137.53 630,-140.03 630,-140.03 630,-140.03 630,-137.53 627.75,-140.03 630,-135.03 630,-135.03"/>
</g>
<!-- online&#45;order/lib -->
<g id="node9" class="node">
<title>online&#45;order/lib</title>
<g id="a_node9"><a xlink:href="online-order/lib" xlink:title="lib">
<polygon fill="#d60007" stroke="#f2f2f2" points="499,-75 447,-75 445,-73 445,-57 497,-57 499,-59 499,-75"/>
<polyline fill="none" stroke="#f2f2f2" points="497,-73 445,-73 "/>
<polyline fill="none" stroke="#f2f2f2" points="497,-73 497,-57 "/>
<polyline fill="none" stroke="#f2f2f2" points="497,-73 499,-75 "/>
<text text-anchor="middle" x="472" y="-63.8" font-family="Helvetica,sans-Serif" font-size="9.00" fill="#f2f2f2">lib</text>
</a>
</g>
</g>
<!-- mb&#45;lambda&#45;shared/online&#45;order&#45;lib&#45;&gt;online&#45;order/lib -->
<g id="edge4" class="edge">
<title>mb&#45;lambda&#45;shared/online&#45;order&#45;lib&#45;&gt;online&#45;order/lib</title>
<path fill="none" stroke="#7fa9ae" d="M472,-140.69C472,-140.69 472,-80.1 472,-80.1"/>
<polygon fill="#7fa9ae" stroke="#7fa9ae" points="472,-75.1 474.25,-80.1 472,-77.6 472,-80.1 472,-80.1 472,-80.1 472,-77.6 469.75,-80.1 472,-75.1 472,-75.1"/>
</g>
<!-- mb&#45;lambda&#45;shared/online&#45;order&#45;lib&#45;&gt;mb&#45;lambda&#45;shared/utils.js -->
<g id="edge9" class="edge">
<title>mb&#45;lambda&#45;shared/online&#45;order&#45;lib&#45;&gt;mb&#45;lambda&#45;shared/utils.js</title>
<path fill="none" stroke="#7fa9ae" d="M512.08,-154.5C512.08,-154.5 696.29,-154.5 696.29,-154.5"/>
<polygon fill="#7fa9ae" stroke="#7fa9ae" points="701.29,-154.5 696.29,-156.75 698.79,-154.5 696.29,-154.5 696.29,-154.5 696.29,-154.5 698.79,-154.5 696.29,-152.25 701.29,-154.5 701.29,-154.5"/>
</g>
<!-- online&#45;order/lib&#45;&gt;mb&#45;lambda&#45;shared/models -->
<g id="edge48" class="edge">
<title>online&#45;order/lib&#45;&gt;mb&#45;lambda&#45;shared/models</title>
<path fill="none" stroke="#7fa9ae" d="M499.07,-66C509.52,-66 519,-66 519,-66 519,-66 519,-189.75 519,-189.75 519,-189.75 530.2,-189.75 530.2,-189.75"/>
<polygon fill="#7fa9ae" stroke="#7fa9ae" points="535.2,-189.75 530.2,-192 532.7,-189.75 530.2,-189.75 530.2,-189.75 530.2,-189.75 532.7,-189.75 530.2,-187.5 535.2,-189.75 535.2,-189.75"/>
</g>
<!-- online&#45;order/lib&#45;&gt;mb&#45;lambda&#45;shared/online&#45;models -->
<g id="edge49" class="edge">
<title>online&#45;order/lib&#45;&gt;mb&#45;lambda&#45;shared/online&#45;models</title>
<path fill="none" stroke="#7fa9ae" d="M486,-75.24C486,-91.49 486,-123.5 486,-123.5 486,-123.5 519.7,-123.5 519.7,-123.5"/>
<polygon fill="#7fa9ae" stroke="#7fa9ae" points="524.7,-123.5 519.7,-125.75 522.2,-123.5 519.7,-123.5 519.7,-123.5 519.7,-123.5 522.2,-123.5 519.7,-121.25 524.7,-123.5 524.7,-123.5"/>
</g>
<!-- online&#45;order/lib&#45;&gt;mb&#45;lambda&#45;shared/online&#45;order&#45;lib -->
<g id="edge50" class="edge">
<title>online&#45;order/lib&#45;&gt;mb&#45;lambda&#45;shared/online&#45;order&#45;lib</title>
<path fill="none" stroke="#7fa9ae" d="M459,-75.31C459,-75.31 459,-135.9 459,-135.9"/>
<polygon fill="#7fa9ae" stroke="#7fa9ae" points="459,-140.9 456.75,-135.9 459,-138.4 459,-135.9 459,-135.9 459,-135.9 459,-138.4 461.25,-135.9 459,-140.9 459,-140.9"/>
</g>
<!-- mb&#45;public&#45;api/api -->
<g id="node11" class="node">
<title>mb&#45;public&#45;api/api</title>
<g id="a_node11"><a xlink:href="mb-public-api/api" xlink:title="api">
<polygon fill="#d60007" stroke="#f2f2f2" points="70,-147 18,-147 16,-145 16,-129 68,-129 70,-131 70,-147"/>
<polyline fill="none" stroke="#f2f2f2" points="68,-145 16,-145 "/>
<polyline fill="none" stroke="#f2f2f2" points="68,-145 68,-129 "/>
<polyline fill="none" stroke="#f2f2f2" points="68,-145 70,-147 "/>
<text text-anchor="middle" x="43" y="-135.8" font-family="Helvetica,sans-Serif" font-size="9.00" fill="#f2f2f2">api</text>
</a>
</g>
</g>
<!-- mb&#45;public&#45;api/db -->
<g id="node12" class="node">
<title>mb&#45;public&#45;api/db</title>
<g id="a_node12"><a xlink:href="mb-public-api/db" xlink:title="db">
<polygon fill="#d60007" stroke="#f2f2f2" points="137,-158 85,-158 83,-156 83,-140 135,-140 137,-142 137,-158"/>
<polyline fill="none" stroke="#f2f2f2" points="135,-156 83,-156 "/>
<polyline fill="none" stroke="#f2f2f2" points="135,-156 135,-140 "/>
<polyline fill="none" stroke="#f2f2f2" points="135,-156 137,-158 "/>
<text text-anchor="middle" x="110" y="-146.8" font-family="Helvetica,sans-Serif" font-size="9.00" fill="#f2f2f2">db</text>
</a>
</g>
</g>
<!-- mb&#45;public&#45;api/api&#45;&gt;mb&#45;public&#45;api/db -->
<g id="edge13" class="edge">
<title>mb&#45;public&#45;api/api&#45;&gt;mb&#45;public&#45;api/db</title>
<path fill="none" stroke="#7fa9ae" d="M70.25,-143.5C70.25,-143.5 77.99,-143.5 77.99,-143.5"/>
<polygon fill="#7fa9ae" stroke="#7fa9ae" points="82.99,-143.5 77.99,-145.75 80.49,-143.5 77.99,-143.5 77.99,-143.5 77.99,-143.5 80.49,-143.5 77.99,-141.25 82.99,-143.5 82.99,-143.5"/>
</g>
<!-- mb&#45;public&#45;api/graphql -->
<g id="node13" class="node">
<title>mb&#45;public&#45;api/graphql</title>
<g id="a_node13"><a xlink:href="mb-public-api/graphql" xlink:title="graphql">
<polygon fill="#d60007" stroke="#f2f2f2" points="271,-108 219,-108 217,-106 217,-90 269,-90 271,-92 271,-108"/>
<polyline fill="none" stroke="#f2f2f2" points="269,-106 217,-106 "/>
<polyline fill="none" stroke="#f2f2f2" points="269,-106 269,-90 "/>
<polyline fill="none" stroke="#f2f2f2" points="269,-106 271,-108 "/>
<text text-anchor="middle" x="244" y="-96.8" font-family="Helvetica,sans-Serif" font-size="9.00" fill="#f2f2f2">graphql</text>
</a>
</g>
</g>
<!-- mb&#45;public&#45;api/api&#45;&gt;mb&#45;public&#45;api/graphql -->
<g id="edge14" class="edge">
<title>mb&#45;public&#45;api/api&#45;&gt;mb&#45;public&#45;api/graphql</title>
<path fill="none" stroke="#7fa9ae" d="M57,-128.95C57,-117.43 57,-99 57,-99 57,-99 211.81,-99 211.81,-99"/>
<polygon fill="#7fa9ae" stroke="#7fa9ae" points="216.81,-99 211.81,-101.25 214.31,-99 211.81,-99 211.81,-99 211.81,-99 214.31,-99 211.81,-96.75 216.81,-99 216.81,-99"/>
</g>
<!-- mb&#45;public&#45;api/helpers -->
<g id="node14" class="node">
<title>mb&#45;public&#45;api/helpers</title>
<g id="a_node14"><a xlink:href="mb-public-api/helpers" xlink:title="helpers">
<polygon fill="#777777" stroke="#f2f2f2" points="204,-136 152,-136 150,-134 150,-118 202,-118 204,-120 204,-136"/>
<polyline fill="none" stroke="#f2f2f2" points="202,-134 150,-134 "/>
<polyline fill="none" stroke="#f2f2f2" points="202,-134 202,-118 "/>
<polyline fill="none" stroke="#f2f2f2" points="202,-134 204,-136 "/>
<text text-anchor="middle" x="177" y="-124.8" font-family="Helvetica,sans-Serif" font-size="9.00" fill="#f2f2f2">helpers</text>
</a>
</g>
</g>
<!-- mb&#45;public&#45;api/api&#45;&gt;mb&#45;public&#45;api/helpers -->
<g id="edge15" class="edge">
<title>mb&#45;public&#45;api/api&#45;&gt;mb&#45;public&#45;api/helpers</title>
<path fill="none" stroke="#7fa9ae" d="M70.12,-130.75C70.12,-130.75 144.92,-130.75 144.92,-130.75"/>
<polygon fill="#7fa9ae" stroke="#7fa9ae" points="149.92,-130.75 144.92,-133 147.42,-130.75 144.92,-130.75 144.92,-130.75 144.92,-130.75 147.42,-130.75 144.92,-128.5 149.92,-130.75 149.92,-130.75"/>
</g>
<!-- mb&#45;public&#45;api/models -->
<g id="node15" class="node">
<title>mb&#45;public&#45;api/models</title>
<g id="a_node15"><a xlink:href="mb-public-api/models" xlink:title="models">
<polygon fill="#d60007" stroke="#f2f2f2" points="408,-167 356,-167 354,-165 354,-149 406,-149 408,-151 408,-167"/>
<polyline fill="none" stroke="#f2f2f2" points="406,-165 354,-165 "/>
<polyline fill="none" stroke="#f2f2f2" points="406,-165 406,-149 "/>
<polyline fill="none" stroke="#f2f2f2" points="406,-165 408,-167 "/>
<text text-anchor="middle" x="381" y="-155.8" font-family="Helvetica,sans-Serif" font-size="9.00" fill="#f2f2f2">models</text>
</a>
</g>
</g>
<!-- mb&#45;public&#45;api/api&#45;&gt;mb&#45;public&#45;api/models -->
<g id="edge16" class="edge">
<title>mb&#45;public&#45;api/api&#45;&gt;mb&#45;public&#45;api/models</title>
<path fill="none" stroke="#7fa9ae" d="M43,-147.16C43,-160.38 43,-183.25 43,-183.25 43,-183.25 381,-183.25 381,-183.25 381,-183.25 381,-172.12 381,-172.12"/>
<polygon fill="#7fa9ae" stroke="#7fa9ae" points="381,-167.12 383.25,-172.12 381,-169.62 381,-172.12 381,-172.12 381,-172.12 381,-169.62 378.75,-172.12 381,-167.12 381,-167.12"/>
</g>
<!-- mb&#45;public&#45;api/libraries -->
<g id="node16" class="node">
<title>mb&#45;public&#45;api/libraries</title>
<g id="a_node16"><a xlink:href="mb-public-api/libraries" xlink:title="libraries">
<polygon fill="#777777" stroke="#f2f2f2" points="338,-130 286,-130 284,-128 284,-112 336,-112 338,-114 338,-130"/>
<polyline fill="none" stroke="#f2f2f2" points="336,-128 284,-128 "/>
<polyline fill="none" stroke="#f2f2f2" points="336,-128 336,-112 "/>
<polyline fill="none" stroke="#f2f2f2" points="336,-128 338,-130 "/>
<text text-anchor="middle" x="311" y="-118.8" font-family="Helvetica,sans-Serif" font-size="9.00" fill="#f2f2f2">libraries</text>
</a>
</g>
</g>
<!-- mb&#45;public&#45;api/api&#45;&gt;mb&#45;public&#45;api/libraries -->
<g id="edge17" class="edge">
<title>mb&#45;public&#45;api/api&#45;&gt;mb&#45;public&#45;api/libraries</title>
<path fill="none" stroke="#7fa9ae" d="M43,-128.84C43,-113.07 43,-82.5 43,-82.5 43,-82.5 311,-82.5 311,-82.5 311,-82.5 311,-106.68 311,-106.68"/>
<polygon fill="#7fa9ae" stroke="#7fa9ae" points="311,-111.68 308.75,-106.68 311,-109.18 311,-106.68 311,-106.68 311,-106.68 311,-109.18 313.25,-106.68 311,-111.68 311,-111.68"/>
</g>
<!-- models/pos -->
<g id="node17" class="node">
<title>models/pos</title>
<g id="a_node17"><a xlink:href="models/pos" xlink:title="pos">
<polygon fill="#d60007" stroke="#f2f2f2" points="408,-34 356,-34 354,-32 354,-16 406,-16 408,-18 408,-34"/>
<polyline fill="none" stroke="#f2f2f2" points="406,-32 354,-32 "/>
<polyline fill="none" stroke="#f2f2f2" points="406,-32 406,-16 "/>
<polyline fill="none" stroke="#f2f2f2" points="406,-32 408,-34 "/>
<text text-anchor="middle" x="381" y="-22.8" font-family="Helvetica,sans-Serif" font-size="9.00" fill="#f2f2f2">pos</text>
</a>
</g>
</g>
<!-- mb&#45;public&#45;api/api&#45;&gt;models/pos -->
<g id="edge18" class="edge">
<title>mb&#45;public&#45;api/api&#45;&gt;models/pos</title>
<path fill="none" stroke="#7fa9ae" d="M30,-128.78C30,-101.08 30,-20.5 30,-20.5 30,-20.5 348.75,-20.5 348.75,-20.5"/>
<polygon fill="#7fa9ae" stroke="#7fa9ae" points="353.75,-20.5 348.75,-22.75 351.25,-20.5 348.75,-20.5 348.75,-20.5 348.75,-20.5 351.25,-20.5 348.75,-18.25 353.75,-20.5 353.75,-20.5"/>
</g>
<!-- mb&#45;public&#45;api/events -->
<g id="node18" class="node">
<title>mb&#45;public&#45;api/events</title>
<g id="a_node18"><a xlink:href="mb-public-api/events" xlink:title="events">
<polygon fill="#d60007" stroke="#f2f2f2" points="271,-180 219,-180 217,-178 217,-162 269,-162 271,-164 271,-180"/>
<polyline fill="none" stroke="#f2f2f2" points="269,-178 217,-178 "/>
<polyline fill="none" stroke="#f2f2f2" points="269,-178 269,-162 "/>
<polyline fill="none" stroke="#f2f2f2" points="269,-178 271,-180 "/>
<text text-anchor="middle" x="244" y="-168.8" font-family="Helvetica,sans-Serif" font-size="9.00" fill="#f2f2f2">events</text>
</a>
</g>
</g>
<!-- mb&#45;public&#45;api/api&#45;&gt;mb&#45;public&#45;api/events -->
<g id="edge19" class="edge">
<title>mb&#45;public&#45;api/api&#45;&gt;mb&#45;public&#45;api/events</title>
<path fill="none" stroke="#7fa9ae" d="M57,-147.08C57,-158.18 57,-175.5 57,-175.5 57,-175.5 211.81,-175.5 211.81,-175.5"/>
<polygon fill="#7fa9ae" stroke="#7fa9ae" points="216.81,-175.5 211.81,-177.75 214.31,-175.5 211.81,-175.5 211.81,-175.5 211.81,-175.5 214.31,-175.5 211.81,-173.25 216.81,-175.5 216.81,-175.5"/>
</g>
<!-- mb&#45;public&#45;api/db&#45;&gt;mb&#45;public&#45;api/helpers -->
<g id="edge20" class="edge">
<title>mb&#45;public&#45;api/db&#45;&gt;mb&#45;public&#45;api/helpers</title>
<path fill="none" stroke="#7fa9ae" d="M119,-139.91C119,-136.88 119,-134.25 119,-134.25 119,-134.25 144.7,-134.25 144.7,-134.25"/>
<polygon fill="#7fa9ae" stroke="#7fa9ae" points="149.7,-134.25 144.7,-136.5 147.2,-134.25 144.7,-134.25 144.7,-134.25 144.7,-134.25 147.2,-134.25 144.7,-132 149.7,-134.25 149.7,-134.25"/>
</g>
<!-- mb&#45;public&#45;api/graphql&#45;&gt;mb&#45;public&#45;api/db -->
<g id="edge25" class="edge">
<title>mb&#45;public&#45;api/graphql&#45;&gt;mb&#45;public&#45;api/db</title>
<path fill="none" stroke="#7fa9ae" d="M248,-108.04C248,-121.09 248,-143.67 248,-143.67 248,-143.67 142.26,-143.67 142.26,-143.67"/>
<polygon fill="#7fa9ae" stroke="#7fa9ae" points="137.26,-143.67 142.26,-141.42 139.76,-143.67 142.26,-143.67 142.26,-143.67 142.26,-143.67 139.76,-143.67 142.26,-145.92 137.26,-143.67 137.26,-143.67"/>
</g>
<!-- mb&#45;public&#45;api/graphql&#45;&gt;mb&#45;public&#45;api/helpers -->
<g id="edge27" class="edge">
<title>mb&#45;public&#45;api/graphql&#45;&gt;mb&#45;public&#45;api/helpers</title>
<path fill="none" stroke="#7fa9ae" d="M233,-108.39C233,-113.87 233,-119.71 233,-119.71 233,-119.71 209.02,-119.71 209.02,-119.71"/>
<polygon fill="#7fa9ae" stroke="#7fa9ae" points="204.02,-119.71 209.02,-117.46 206.52,-119.71 209.02,-119.71 209.02,-119.71 209.02,-119.71 206.52,-119.71 209.02,-121.96 204.02,-119.71 204.02,-119.71"/>
</g>
<!-- mb&#45;public&#45;api/graphql&#45;&gt;mb&#45;public&#45;api/models -->
<g id="edge26" class="edge">
<title>mb&#45;public&#45;api/graphql&#45;&gt;mb&#45;public&#45;api/models</title>
<path fill="none" stroke="#7fa9ae" d="M256,-108.49C256,-124.11 256,-153.5 256,-153.5 256,-153.5 348.88,-153.5 348.88,-153.5"/>
<polygon fill="#7fa9ae" stroke="#7fa9ae" points="353.88,-153.5 348.88,-155.75 351.38,-153.5 348.88,-153.5 348.88,-153.5 348.88,-153.5 351.38,-153.5 348.88,-151.25 353.88,-153.5 353.88,-153.5"/>
</g>
<!-- mb&#45;public&#45;api/graphql&#45;&gt;mb&#45;public&#45;api/libraries -->
<g id="edge28" class="edge">
<title>mb&#45;public&#45;api/graphql&#45;&gt;mb&#45;public&#45;api/libraries</title>
<path fill="none" stroke="#7fa9ae" d="M271.32,-99C284.71,-99 298,-99 298,-99 298,-99 298,-106.8 298,-106.8"/>
<polygon fill="#7fa9ae" stroke="#7fa9ae" points="298,-111.8 295.75,-106.8 298,-109.3 298,-106.8 298,-106.8 298,-106.8 298,-109.3 300.25,-106.8 298,-111.8 298,-111.8"/>
</g>
<!-- mb&#45;public&#45;api/helpers&#45;&gt;mb&#45;public&#45;api/db -->
<g id="edge29" class="edge">
<title>mb&#45;public&#45;api/helpers&#45;&gt;mb&#45;public&#45;api/db</title>
<path fill="none" stroke="#7fa9ae" d="M149.99,-132.5C128.15,-132.5 101,-132.5 101,-132.5 101,-132.5 101,-134.98 101,-134.98"/>
<polygon fill="#7fa9ae" stroke="#7fa9ae" points="101,-139.98 98.75,-134.98 101,-137.48 101,-134.98 101,-134.98 101,-134.98 101,-137.48 103.25,-134.98 101,-139.98 101,-139.98"/>
</g>
<!-- mb&#45;public&#45;api/helpers&#45;&gt;mb&#45;public&#45;api/graphql -->
<g id="edge30" class="edge">
<title>mb&#45;public&#45;api/helpers&#45;&gt;mb&#45;public&#45;api/graphql</title>
<path fill="none" stroke="#7fa9ae" d="M204.14,-121.43C221.58,-121.43 241,-121.43 241,-121.43 241,-121.43 241,-113.12 241,-113.12"/>
<polygon fill="#7fa9ae" stroke="#7fa9ae" points="241,-108.12 243.25,-113.12 241,-110.62 241,-113.12 241,-113.12 241,-113.12 241,-110.62 238.75,-113.12 241,-108.12 241,-108.12"/>
</g>
<!-- mb&#45;public&#45;api/helpers&#45;&gt;mb&#45;public&#45;api/models -->
<g id="edge31" class="edge">
<title>mb&#45;public&#45;api/helpers&#45;&gt;mb&#45;public&#45;api/models</title>
<path fill="none" stroke="#7fa9ae" d="M191,-136.05C191,-144.1 191,-154.62 191,-154.62 191,-154.62 348.78,-154.62 348.78,-154.62"/>
<polygon fill="#7fa9ae" stroke="#7fa9ae" points="353.78,-154.62 348.78,-156.88 351.28,-154.63 348.78,-154.63 348.78,-154.63 348.78,-154.63 351.28,-154.63 348.78,-152.38 353.78,-154.62 353.78,-154.62"/>
</g>
<!-- mb&#45;public&#45;api/helpers&#45;&gt;mb&#45;public&#45;api/libraries -->
<g id="edge34" class="edge">
<title>mb&#45;public&#45;api/helpers&#45;&gt;mb&#45;public&#45;api/libraries</title>
<path fill="none" stroke="#7fa9ae" d="M204.12,-124.86C204.12,-124.86 278.92,-124.86 278.92,-124.86"/>
<polygon fill="#7fa9ae" stroke="#7fa9ae" points="283.92,-124.86 278.92,-127.11 281.42,-124.86 278.92,-124.86 278.92,-124.86 278.92,-124.86 281.42,-124.86 278.92,-122.61 283.92,-124.86 283.92,-124.86"/>
</g>
<!-- mb&#45;public&#45;api/helpers&#45;&gt;models/pos -->
<g id="edge32" class="edge">
<title>mb&#45;public&#45;api/helpers&#45;&gt;models/pos</title>
<path fill="none" stroke="#7fa9ae" d="M177,-117.95C177,-92.98 177,-25 177,-25 177,-25 348.91,-25 348.91,-25"/>
<polygon fill="#7fa9ae" stroke="#7fa9ae" points="353.91,-25 348.91,-27.25 351.41,-25 348.91,-25 348.91,-25 348.91,-25 351.41,-25 348.91,-22.75 353.91,-25 353.91,-25"/>
</g>
<!-- mb&#45;public&#45;api/helpers&#45;&gt;mb&#45;public&#45;api/events -->
<g id="edge33" class="edge">
<title>mb&#45;public&#45;api/helpers&#45;&gt;mb&#45;public&#45;api/events</title>
<path fill="none" stroke="#7fa9ae" d="M164,-136.33C164,-149.25 164,-171 164,-171 164,-171 211.92,-171 211.92,-171"/>
<polygon fill="#7fa9ae" stroke="#7fa9ae" points="216.92,-171 211.92,-173.25 214.42,-171 211.92,-171 211.92,-171 211.92,-171 214.42,-171 211.92,-168.75 216.92,-171 216.92,-171"/>
</g>
<!-- mb&#45;public&#45;api/models&#45;&gt;mb&#45;lambda&#45;shared/libraries -->
<g id="edge44" class="edge">
<title>mb&#45;public&#45;api/models&#45;&gt;mb&#45;lambda&#45;shared/libraries</title>
<path fill="none" stroke="#7fa9ae" d="M399,-167.22C399,-183.81 399,-217 399,-217 399,-217 530.13,-217 530.13,-217"/>
<polygon fill="#7fa9ae" stroke="#7fa9ae" points="535.13,-217 530.13,-219.25 532.63,-217 530.13,-217 530.13,-217 530.13,-217 532.63,-217 530.13,-214.75 535.13,-217 535.13,-217"/>
</g>
<!-- mb&#45;public&#45;api/models&#45;&gt;mb&#45;lambda&#45;shared/models -->
<g id="edge45" class="edge">
<title>mb&#45;public&#45;api/models&#45;&gt;mb&#45;lambda&#45;shared/models</title>
<path fill="none" stroke="#7fa9ae" d="M408.03,-164.33C456.69,-164.33 554,-164.33 554,-164.33 554,-164.33 554,-169.63 554,-169.63"/>
<polygon fill="#7fa9ae" stroke="#7fa9ae" points="554,-174.63 551.75,-169.63 554,-172.13 554,-169.63 554,-169.63 554,-169.63 554,-172.13 556.25,-169.63 554,-174.63 554,-174.63"/>
</g>
<!-- mb&#45;public&#45;api/models&#45;&gt;mb&#45;lambda&#45;shared/pos&#45;models -->
<g id="edge47" class="edge">
<title>mb&#45;public&#45;api/models&#45;&gt;mb&#45;lambda&#45;shared/pos&#45;models</title>
<path fill="none" stroke="#7fa9ae" d="M408.36,-161.67C476.07,-161.67 646,-161.67 646,-161.67 646,-161.67 646,-140 646,-140"/>
<polygon fill="#7fa9ae" stroke="#7fa9ae" points="646,-135 648.25,-140 646,-137.5 646,-140 646,-140 646,-140 646,-137.5 643.75,-140 646,-135 646,-135"/>
</g>
<!-- mb&#45;public&#45;api/models&#45;&gt;mb&#45;lambda&#45;shared/online&#45;order&#45;lib -->
<g id="edge46" class="edge">
<title>mb&#45;public&#45;api/models&#45;&gt;mb&#45;lambda&#45;shared/online&#45;order&#45;lib</title>
<path fill="none" stroke="#7fa9ae" d="M408.3,-154C408.3,-154 426.93,-154 426.93,-154"/>
<polygon fill="#7fa9ae" stroke="#7fa9ae" points="431.93,-154 426.93,-156.25 429.43,-154 426.93,-154 426.93,-154 426.93,-154 429.43,-154 426.93,-151.75 431.93,-154 431.93,-154"/>
</g>
<!-- mb&#45;public&#45;api/models&#45;&gt;mb&#45;public&#45;api/api -->
<g id="edge43" class="edge">
<title>mb&#45;public&#45;api/models&#45;&gt;mb&#45;public&#45;api/api</title>
<path fill="none" stroke="#7fa9ae" d="M390,-167.02C390,-175.37 390,-186.5 390,-186.5 390,-186.5 30,-186.5 30,-186.5 30,-186.5 30,-152.35 30,-152.35"/>
<polygon fill="#7fa9ae" stroke="#7fa9ae" points="30,-147.35 32.25,-152.35 30,-149.85 30,-152.35 30,-152.35 30,-152.35 30,-149.85 27.75,-152.35 30,-147.35 30,-147.35"/>
</g>
<!-- mb&#45;public&#45;api/models&#45;&gt;mb&#45;public&#45;api/db -->
<g id="edge39" class="edge">
<title>mb&#45;public&#45;api/models&#45;&gt;mb&#45;public&#45;api/db</title>
<path fill="none" stroke="#7fa9ae" d="M353.77,-155.75C353.77,-155.75 142.21,-155.75 142.21,-155.75"/>
<polygon fill="#7fa9ae" stroke="#7fa9ae" points="137.21,-155.75 142.21,-153.5 139.71,-155.75 142.21,-155.75 142.21,-155.75 142.21,-155.75 139.71,-155.75 142.21,-158 137.21,-155.75 137.21,-155.75"/>
</g>
<!-- mb&#45;public&#45;api/models&#45;&gt;mb&#45;public&#45;api/helpers -->
<g id="edge40" class="edge">
<title>mb&#45;public&#45;api/models&#45;&gt;mb&#45;public&#45;api/helpers</title>
<path fill="none" stroke="#7fa9ae" d="M353.94,-152.38C323.42,-152.38 278,-152.38 278,-152.38 278,-152.38 278,-126.57 278,-126.57 278,-126.57 209.07,-126.57 209.07,-126.57"/>
<polygon fill="#7fa9ae" stroke="#7fa9ae" points="204.07,-126.57 209.07,-124.32 206.57,-126.57 209.07,-126.57 209.07,-126.57 209.07,-126.57 206.57,-126.57 209.07,-128.82 204.07,-126.57 204.07,-126.57"/>
</g>
<!-- mb&#45;public&#45;api/models&#45;&gt;mb&#45;public&#45;api/libraries -->
<g id="edge42" class="edge">
<title>mb&#45;public&#45;api/models&#45;&gt;mb&#45;public&#45;api/libraries</title>
<path fill="none" stroke="#7fa9ae" d="M353.74,-151.25C334.08,-151.25 311,-151.25 311,-151.25 311,-151.25 311,-135.24 311,-135.24"/>
<polygon fill="#7fa9ae" stroke="#7fa9ae" points="311,-130.24 313.25,-135.24 311,-132.74 311,-135.24 311,-135.24 311,-135.24 311,-132.74 308.75,-135.24 311,-130.24 311,-130.24"/>
</g>
<!-- mb&#45;public&#45;api/models&#45;&gt;mb&#45;public&#45;api/events -->
<g id="edge41" class="edge">
<title>mb&#45;public&#45;api/models&#45;&gt;mb&#45;public&#45;api/events</title>
<path fill="none" stroke="#7fa9ae" d="M363,-167.22C363,-169.01 363,-170.33 363,-170.33 363,-170.33 276,-170.33 276,-170.33"/>
<polygon fill="#7fa9ae" stroke="#7fa9ae" points="271,-170.33 276,-168.08 273.5,-170.33 276,-170.33 276,-170.33 276,-170.33 273.5,-170.33 276,-172.58 271,-170.33 271,-170.33"/>
</g>
<!-- mb&#45;public&#45;api/libraries&#45;&gt;mb&#45;public&#45;api/db -->
<g id="edge36" class="edge">
<title>mb&#45;public&#45;api/libraries&#45;&gt;mb&#45;public&#45;api/db</title>
<path fill="none" stroke="#7fa9ae" d="M298,-130.15C298,-137.4 298,-146.33 298,-146.33 298,-146.33 142.34,-146.33 142.34,-146.33"/>
<polygon fill="#7fa9ae" stroke="#7fa9ae" points="137.34,-146.33 142.34,-144.08 139.84,-146.33 142.34,-146.33 142.34,-146.33 142.34,-146.33 139.84,-146.33 142.34,-148.58 137.34,-146.33 137.34,-146.33"/>
</g>
<!-- mb&#45;public&#45;api/libraries&#45;&gt;mb&#45;public&#45;api/helpers -->
<g id="edge35" class="edge">
<title>mb&#45;public&#45;api/libraries&#45;&gt;mb&#45;public&#45;api/helpers</title>
<path fill="none" stroke="#7fa9ae" d="M283.88,-123.14C283.88,-123.14 209.08,-123.14 209.08,-123.14"/>
<polygon fill="#7fa9ae" stroke="#7fa9ae" points="204.08,-123.14 209.08,-120.89 206.58,-123.14 209.08,-123.14 209.08,-123.14 209.08,-123.14 206.58,-123.14 209.08,-125.39 204.08,-123.14 204.08,-123.14"/>
</g>
<!-- mb&#45;public&#45;api/libraries&#45;&gt;mb&#45;public&#45;api/models -->
<g id="edge38" class="edge">
<title>mb&#45;public&#45;api/libraries&#45;&gt;mb&#45;public&#45;api/models</title>
<path fill="none" stroke="#7fa9ae" d="M325,-130.22C325,-138.75 325,-150.12 325,-150.12 325,-150.12 348.98,-150.12 348.98,-150.12"/>
<polygon fill="#7fa9ae" stroke="#7fa9ae" points="353.98,-150.12 348.98,-152.38 351.48,-150.13 348.98,-150.13 348.98,-150.13 348.98,-150.13 351.48,-150.13 348.98,-147.88 353.98,-150.12 353.98,-150.12"/>
</g>
<!-- mb&#45;public&#45;api/libraries&#45;&gt;models/pos -->
<g id="edge37" class="edge">
<title>mb&#45;public&#45;api/libraries&#45;&gt;models/pos</title>
<path fill="none" stroke="#7fa9ae" d="M325,-111.89C325,-88.75 325,-29.5 325,-29.5 325,-29.5 348.98,-29.5 348.98,-29.5"/>
<polygon fill="#7fa9ae" stroke="#7fa9ae" points="353.98,-29.5 348.98,-31.75 351.48,-29.5 348.98,-29.5 348.98,-29.5 348.98,-29.5 351.48,-29.5 348.98,-27.25 353.98,-29.5 353.98,-29.5"/>
</g>
<!-- mb&#45;public&#45;api/events&#45;&gt;mb&#45;public&#45;api/db -->
<g id="edge21" class="edge">
<title>mb&#45;public&#45;api/events&#45;&gt;mb&#45;public&#45;api/db</title>
<path fill="none" stroke="#7fa9ae" d="M225,-161.97C225,-159.21 225,-156.88 225,-156.88 225,-156.88 142.25,-156.88 142.25,-156.88"/>
<polygon fill="#7fa9ae" stroke="#7fa9ae" points="137.25,-156.88 142.25,-154.63 139.75,-156.88 142.25,-156.88 142.25,-156.88 142.25,-156.88 139.75,-156.88 142.25,-159.13 137.25,-156.88 137.25,-156.88"/>
</g>
<!-- mb&#45;public&#45;api/events&#45;&gt;mb&#45;public&#45;api/helpers -->
<g id="edge24" class="edge">
<title>mb&#45;public&#45;api/events&#45;&gt;mb&#45;public&#45;api/helpers</title>
<path fill="none" stroke="#7fa9ae" d="M216.75,-166.5C198.2,-166.5 177,-166.5 177,-166.5 177,-166.5 177,-141.16 177,-141.16"/>
<polygon fill="#7fa9ae" stroke="#7fa9ae" points="177,-136.16 179.25,-141.16 177,-138.66 177,-141.16 177,-141.16 177,-141.16 177,-138.66 174.75,-141.16 177,-136.16 177,-136.16"/>
</g>
<!-- mb&#45;public&#45;api/events&#45;&gt;mb&#45;public&#45;api/models -->
<g id="edge22" class="edge">
<title>mb&#45;public&#45;api/events&#45;&gt;mb&#45;public&#45;api/models</title>
<path fill="none" stroke="#7fa9ae" d="M271.15,-172.67C308.72,-172.67 372,-172.67 372,-172.67 372,-172.67 372,-172.04 372,-172.04"/>
<polygon fill="#7fa9ae" stroke="#7fa9ae" points="372,-167.04 374.25,-172.04 372,-169.54 372,-172.04 372,-172.04 372,-172.04 372,-169.54 369.75,-172.04 372,-167.04 372,-167.04"/>
</g>
<!-- mb&#45;public&#45;api/events&#45;&gt;mb&#45;public&#45;api/libraries -->
<g id="edge23" class="edge">
<title>mb&#45;public&#45;api/events&#45;&gt;mb&#45;public&#45;api/libraries</title>
<path fill="none" stroke="#7fa9ae" d="M264,-161.94C264,-149.4 264,-128.29 264,-128.29 264,-128.29 278.93,-128.29 278.93,-128.29"/>
<polygon fill="#7fa9ae" stroke="#7fa9ae" points="283.93,-128.29 278.93,-130.54 281.43,-128.29 278.93,-128.29 278.93,-128.29 278.93,-128.29 281.43,-128.29 278.93,-126.04 283.93,-128.29 283.93,-128.29"/>
</g>
</g>
</svg>
