<?xml version="1.0" encoding="UTF-8" standalone="no"?>
<!DOCTYPE svg PUBLIC "-//W3C//DTD SVG 1.1//EN"
 "http://www.w3.org/Graphics/SVG/1.1/DTD/svg11.dtd">
<!-- Generated by graphviz version 2.44.1 (20200629.0846)
 -->
<!-- Title: dependency&#45;cruiser output Pages: 1 -->
<svg width="542pt" height="289pt"
 viewBox="0.00 0.00 542.00 289.00" xmlns="http://www.w3.org/2000/svg" xmlns:xlink="http://www.w3.org/1999/xlink">
<g id="graph0" class="graph" transform="scale(1 1) rotate(0) translate(4 285)">
<title>dependency&#45;cruiser output</title>
<polygon fill="#f2f2f2" stroke="transparent" points="-4,4 -4,-285 538,-285 538,4 -4,4"/>
<g id="clust1" class="cluster">
<title>cluster_mb&#45;lambda&#45;shared</title>
<path fill="transparent" stroke="#53565a" stroke-width="2" d="M98,-131C98,-131 299,-131 299,-131 305,-131 311,-137 311,-143 311,-143 311,-261 311,-261 311,-267 305,-273 299,-273 299,-273 98,-273 98,-273 92,-273 86,-267 86,-261 86,-261 86,-143 86,-143 86,-137 92,-131 98,-131"/>
<text text-anchor="middle" x="198.5" y="-261.8" font-family="Helvetica,sans-Serif" font-weight="bold" font-size="9.00" fill="#53565a">mb&#45;lambda&#45;shared</text>
</g>
<g id="clust2" class="cluster">
<title>cluster_mb&#45;ops</title>
<path fill="transparent" stroke="#53565a" stroke-width="2" d="M20,-8C20,-8 66,-8 66,-8 72,-8 78,-14 78,-20 78,-20 78,-48 78,-48 78,-54 72,-60 66,-60 66,-60 20,-60 20,-60 14,-60 8,-54 8,-48 8,-48 8,-20 8,-20 8,-14 14,-8 20,-8"/>
<text text-anchor="middle" x="43" y="-48.8" font-family="Helvetica,sans-Serif" font-weight="bold" font-size="9.00" fill="#53565a">mb&#45;ops</text>
</g>
<g id="clust3" class="cluster">
<title>cluster_mb&#45;public&#45;api</title>
<path fill="transparent" stroke="#53565a" stroke-width="2" d="M98,-15C98,-15 436,-15 436,-15 442,-15 448,-21 448,-27 448,-27 448,-111 448,-111 448,-117 442,-123 436,-123 436,-123 98,-123 98,-123 92,-123 86,-117 86,-111 86,-111 86,-27 86,-27 86,-21 92,-15 98,-15"/>
<text text-anchor="middle" x="267" y="-111.8" font-family="Helvetica,sans-Serif" font-weight="bold" font-size="9.00" fill="#53565a">mb&#45;public&#45;api</text>
</g>
<g id="clust4" class="cluster">
<title>cluster_models</title>
<path fill="transparent" stroke="#53565a" stroke-width="2" d="M468,-82C468,-82 514,-82 514,-82 520,-82 526,-88 526,-94 526,-94 526,-122 526,-122 526,-128 520,-134 514,-134 514,-134 468,-134 468,-134 462,-134 456,-128 456,-122 456,-122 456,-94 456,-94 456,-88 462,-82 468,-82"/>
<text text-anchor="middle" x="491" y="-122.8" font-family="Helvetica,sans-Serif" font-weight="bold" font-size="9.00" fill="#53565a">models</text>
</g>
<!-- mb&#45;lambda&#45;shared/db.js -->
<g id="node1" class="node">
<title>mb&#45;lambda&#45;shared/db.js</title>
<g id="a_node1"><a xlink:href="mb-lambda-shared/db.js" xlink:title="db.js">
<polygon fill="#d60007" stroke="#f2f2f2" points="303,-187 251,-187 249,-185 249,-169 301,-169 303,-171 303,-187"/>
<polyline fill="none" stroke="#f2f2f2" points="301,-185 249,-185 "/>
<polyline fill="none" stroke="#f2f2f2" points="301,-185 301,-169 "/>
<polyline fill="none" stroke="#f2f2f2" points="301,-185 303,-187 "/>
<text text-anchor="middle" x="276" y="-175.8" font-family="Helvetica,sans-Serif" font-size="9.00" fill="#f2f2f2">db.js</text>
</a>
</g>
</g>
<!-- mb&#45;lambda&#45;shared/error&#45;handling -->
<g id="node2" class="node">
<title>mb&#45;lambda&#45;shared/error&#45;handling</title>
<g id="a_node2"><a xlink:href="mb-lambda-shared/error-handling" xlink:title="error&#45;handling">
<polygon fill="#d60007" stroke="#f2f2f2" points="236,-157 163,-157 161,-155 161,-139 234,-139 236,-141 236,-157"/>
<polyline fill="none" stroke="#f2f2f2" points="234,-155 161,-155 "/>
<polyline fill="none" stroke="#f2f2f2" points="234,-155 234,-139 "/>
<polyline fill="none" stroke="#f2f2f2" points="234,-155 236,-157 "/>
<text text-anchor="middle" x="198.5" y="-145.8" font-family="Helvetica,sans-Serif" font-size="9.00" fill="#f2f2f2">error&#45;handling</text>
</a>
</g>
</g>
<!-- mb&#45;lambda&#45;shared/libraries -->
<g id="node3" class="node">
<title>mb&#45;lambda&#45;shared/libraries</title>
<g id="a_node3"><a xlink:href="mb-lambda-shared/libraries" xlink:title="libraries">
<polygon fill="#d60007" stroke="#f2f2f2" points="148,-187 96,-187 94,-185 94,-169 146,-169 148,-171 148,-187"/>
<polyline fill="none" stroke="#f2f2f2" points="146,-185 94,-185 "/>
<polyline fill="none" stroke="#f2f2f2" points="146,-185 146,-169 "/>
<polyline fill="none" stroke="#f2f2f2" points="146,-185 148,-187 "/>
<text text-anchor="middle" x="121" y="-175.8" font-family="Helvetica,sans-Serif" font-size="9.00" fill="#f2f2f2">libraries</text>
</a>
</g>
</g>
<!-- mb&#45;lambda&#45;shared/libraries&#45;&gt;mb&#45;lambda&#45;shared/error&#45;handling -->
<g id="edge1" class="edge">
<title>mb&#45;lambda&#45;shared/libraries&#45;&gt;mb&#45;lambda&#45;shared/error&#45;handling</title>
<path fill="none" stroke="#7fa9ae" d="M148.11,-173.5C157.17,-173.5 165,-173.5 165,-173.5 165,-173.5 165,-162.21 165,-162.21"/>
<polygon fill="#7fa9ae" stroke="#7fa9ae" points="165,-157.21 167.25,-162.21 165,-159.71 165,-162.21 165,-162.21 165,-162.21 165,-159.71 162.75,-162.21 165,-157.21 165,-157.21"/>
</g>
<!-- mb&#45;lambda&#45;shared/models -->
<g id="node4" class="node">
<title>mb&#45;lambda&#45;shared/models</title>
<g id="a_node4"><a xlink:href="mb-lambda-shared/models" xlink:title="models">
<polygon fill="#d60007" stroke="#f2f2f2" points="225.5,-187 173.5,-187 171.5,-185 171.5,-169 223.5,-169 225.5,-171 225.5,-187"/>
<polyline fill="none" stroke="#f2f2f2" points="223.5,-185 171.5,-185 "/>
<polyline fill="none" stroke="#f2f2f2" points="223.5,-185 223.5,-169 "/>
<polyline fill="none" stroke="#f2f2f2" points="223.5,-185 225.5,-187 "/>
<text text-anchor="middle" x="198.5" y="-175.8" font-family="Helvetica,sans-Serif" font-size="9.00" fill="#f2f2f2">models</text>
</a>
</g>
</g>
<!-- mb&#45;lambda&#45;shared/libraries&#45;&gt;mb&#45;lambda&#45;shared/models -->
<g id="edge2" class="edge">
<title>mb&#45;lambda&#45;shared/libraries&#45;&gt;mb&#45;lambda&#45;shared/models</title>
<path fill="none" stroke="#7fa9ae" d="M148.11,-178C148.11,-178 166.28,-178 166.28,-178"/>
<polygon fill="#7fa9ae" stroke="#7fa9ae" points="171.28,-178 166.28,-180.25 168.78,-178 166.28,-178 166.28,-178 166.28,-178 168.78,-178 166.28,-175.75 171.28,-178 171.28,-178"/>
</g>
<!-- mb&#45;lambda&#45;shared/online&#45;models -->
<g id="node5" class="node">
<title>mb&#45;lambda&#45;shared/online&#45;models</title>
<g id="a_node5"><a xlink:href="mb-lambda-shared/online-models" xlink:title="online&#45;models">
<polygon fill="#d60007" stroke="#f2f2f2" points="236,-217 163,-217 161,-215 161,-199 234,-199 236,-201 236,-217"/>
<polyline fill="none" stroke="#f2f2f2" points="234,-215 161,-215 "/>
<polyline fill="none" stroke="#f2f2f2" points="234,-215 234,-199 "/>
<polyline fill="none" stroke="#f2f2f2" points="234,-215 236,-217 "/>
<text text-anchor="middle" x="198.5" y="-205.8" font-family="Helvetica,sans-Serif" font-size="9.00" fill="#f2f2f2">online&#45;models</text>
</a>
</g>
</g>
<!-- mb&#45;lambda&#45;shared/libraries&#45;&gt;mb&#45;lambda&#45;shared/online&#45;models -->
<g id="edge3" class="edge">
<title>mb&#45;lambda&#45;shared/libraries&#45;&gt;mb&#45;lambda&#45;shared/online&#45;models</title>
<path fill="none" stroke="#7fa9ae" d="M148.07,-182.5C158.52,-182.5 168,-182.5 168,-182.5 168,-182.5 168,-193.79 168,-193.79"/>
<polygon fill="#7fa9ae" stroke="#7fa9ae" points="168,-198.79 165.75,-193.79 168,-196.29 168,-193.79 168,-193.79 168,-193.79 168,-196.29 170.25,-193.79 168,-198.79 168,-198.79"/>
</g>
<!-- mb&#45;lambda&#45;shared/pos&#45;models -->
<g id="node6" class="node">
<title>mb&#45;lambda&#45;shared/pos&#45;models</title>
<g id="a_node6"><a xlink:href="mb-lambda-shared/pos-models" xlink:title="pos&#45;models">
<polygon fill="#d60007" stroke="#f2f2f2" points="231,-247 168,-247 166,-245 166,-229 229,-229 231,-231 231,-247"/>
<polyline fill="none" stroke="#f2f2f2" points="229,-245 166,-245 "/>
<polyline fill="none" stroke="#f2f2f2" points="229,-245 229,-229 "/>
<polyline fill="none" stroke="#f2f2f2" points="229,-245 231,-247 "/>
<text text-anchor="middle" x="198.5" y="-235.8" font-family="Helvetica,sans-Serif" font-size="9.00" fill="#f2f2f2">pos&#45;models</text>
</a>
</g>
</g>
<!-- mb&#45;lambda&#45;shared/libraries&#45;&gt;mb&#45;lambda&#45;shared/pos&#45;models -->
<g id="edge4" class="edge">
<title>mb&#45;lambda&#45;shared/libraries&#45;&gt;mb&#45;lambda&#45;shared/pos&#45;models</title>
<path fill="none" stroke="#7fa9ae" d="M121,-187.11C121,-203.9 121,-238 121,-238 121,-238 160.63,-238 160.63,-238"/>
<polygon fill="#7fa9ae" stroke="#7fa9ae" points="165.63,-238 160.63,-240.25 163.13,-238 160.63,-238 160.63,-238 160.63,-238 163.13,-238 160.63,-235.75 165.63,-238 165.63,-238"/>
</g>
<!-- mb&#45;lambda&#45;shared/models&#45;&gt;mb&#45;lambda&#45;shared/db.js -->
<g id="edge5" class="edge">
<title>mb&#45;lambda&#45;shared/models&#45;&gt;mb&#45;lambda&#45;shared/db.js</title>
<path fill="none" stroke="#7fa9ae" d="M225.61,-178C225.61,-178 243.78,-178 243.78,-178"/>
<polygon fill="#7fa9ae" stroke="#7fa9ae" points="248.78,-178 243.78,-180.25 246.28,-178 243.78,-178 243.78,-178 243.78,-178 246.28,-178 243.78,-175.75 248.78,-178 248.78,-178"/>
</g>
<!-- mb&#45;lambda&#45;shared/utils.js -->
<g id="node7" class="node">
<title>mb&#45;lambda&#45;shared/utils.js</title>
<g id="a_node7"><a xlink:href="mb-lambda-shared/utils.js" xlink:title="utils.js">
<polygon fill="#d60007" stroke="#f2f2f2" points="303,-247 251,-247 249,-245 249,-229 301,-229 303,-231 303,-247"/>
<polyline fill="none" stroke="#f2f2f2" points="301,-245 249,-245 "/>
<polyline fill="none" stroke="#f2f2f2" points="301,-245 301,-229 "/>
<polyline fill="none" stroke="#f2f2f2" points="301,-245 303,-247 "/>
<text text-anchor="middle" x="276" y="-235.8" font-family="Helvetica,sans-Serif" font-size="9.00" fill="#f2f2f2">utils.js</text>
</a>
</g>
</g>
<!-- mb&#45;lambda&#45;shared/pos&#45;models&#45;&gt;mb&#45;lambda&#45;shared/utils.js -->
<g id="edge6" class="edge">
<title>mb&#45;lambda&#45;shared/pos&#45;models&#45;&gt;mb&#45;lambda&#45;shared/utils.js</title>
<path fill="none" stroke="#7fa9ae" d="M231.37,-238C231.37,-238 243.7,-238 243.7,-238"/>
<polygon fill="#7fa9ae" stroke="#7fa9ae" points="248.7,-238 243.7,-240.25 246.2,-238 243.7,-238 243.7,-238 243.7,-238 246.2,-238 243.7,-235.75 248.7,-238 248.7,-238"/>
</g>
<!-- mb&#45;ops/events -->
<g id="node8" class="node">
<title>mb&#45;ops/events</title>
<g id="a_node8"><a xlink:href="mb-ops/events" xlink:title="events">
<polygon fill="#d60007" stroke="#f2f2f2" points="70,-34 18,-34 16,-32 16,-16 68,-16 70,-18 70,-34"/>
<polyline fill="none" stroke="#f2f2f2" points="68,-32 16,-32 "/>
<polyline fill="none" stroke="#f2f2f2" points="68,-32 68,-16 "/>
<polyline fill="none" stroke="#f2f2f2" points="68,-32 70,-34 "/>
<text text-anchor="middle" x="43" y="-22.8" font-family="Helvetica,sans-Serif" font-size="9.00" fill="#f2f2f2">events</text>
</a>
</g>
</g>
<!-- mb&#45;ops/events&#45;&gt;mb&#45;lambda&#45;shared/error&#45;handling -->
<g id="edge10" class="edge">
<title>mb&#45;ops/events&#45;&gt;mb&#45;lambda&#45;shared/error&#45;handling</title>
<path fill="none" stroke="#7fa9ae" d="M70.21,-28.5C106.71,-28.5 167,-28.5 167,-28.5 167,-28.5 167,-133.62 167,-133.62"/>
<polygon fill="#7fa9ae" stroke="#7fa9ae" points="167,-138.62 164.75,-133.62 167,-136.12 167,-133.62 167,-133.62 167,-133.62 167,-136.12 169.25,-133.62 167,-138.62 167,-138.62"/>
</g>
<!-- mb&#45;ops/events&#45;&gt;mb&#45;lambda&#45;shared/libraries -->
<g id="edge12" class="edge">
<title>mb&#45;ops/events&#45;&gt;mb&#45;lambda&#45;shared/libraries</title>
<path fill="none" stroke="#7fa9ae" d="M34,-34.11C34,-67.05 34,-178 34,-178 34,-178 88.95,-178 88.95,-178"/>
<polygon fill="#7fa9ae" stroke="#7fa9ae" points="93.95,-178 88.95,-180.25 91.45,-178 88.95,-178 88.95,-178 88.95,-178 91.45,-178 88.95,-175.75 93.95,-178 93.95,-178"/>
</g>
<!-- mb&#45;public&#45;api/db -->
<g id="node9" class="node">
<title>mb&#45;public&#45;api/db</title>
<g id="a_node9"><a xlink:href="mb-public-api/db" xlink:title="db">
<polygon fill="#d60007" stroke="#f2f2f2" points="148,-72 96,-72 94,-70 94,-54 146,-54 148,-56 148,-72"/>
<polyline fill="none" stroke="#f2f2f2" points="146,-70 94,-70 "/>
<polyline fill="none" stroke="#f2f2f2" points="146,-70 146,-54 "/>
<polyline fill="none" stroke="#f2f2f2" points="146,-70 148,-72 "/>
<text text-anchor="middle" x="121" y="-60.8" font-family="Helvetica,sans-Serif" font-size="9.00" fill="#f2f2f2">db</text>
</a>
</g>
</g>
<!-- mb&#45;ops/events&#45;&gt;mb&#45;public&#45;api/db -->
<g id="edge7" class="edge">
<title>mb&#45;ops/events&#45;&gt;mb&#45;public&#45;api/db</title>
<path fill="none" stroke="#7fa9ae" d="M70.27,-31.25C89.56,-31.25 112,-31.25 112,-31.25 112,-31.25 112,-48.99 112,-48.99"/>
<polygon fill="#7fa9ae" stroke="#7fa9ae" points="112,-53.99 109.75,-48.99 112,-51.49 112,-48.99 112,-48.99 112,-48.99 112,-51.49 114.25,-48.99 112,-53.99 112,-53.99"/>
</g>
<!-- mb&#45;public&#45;api/libraries -->
<g id="node10" class="node">
<title>mb&#45;public&#45;api/libraries</title>
<g id="a_node10"><a xlink:href="mb-public-api/libraries" xlink:title="libraries">
<polygon fill="#d60007" stroke="#f2f2f2" points="440,-77 388,-77 386,-75 386,-59 438,-59 440,-61 440,-77"/>
<polyline fill="none" stroke="#f2f2f2" points="438,-75 386,-75 "/>
<polyline fill="none" stroke="#f2f2f2" points="438,-75 438,-59 "/>
<polyline fill="none" stroke="#f2f2f2" points="438,-75 440,-77 "/>
<text text-anchor="middle" x="413" y="-65.8" font-family="Helvetica,sans-Serif" font-size="9.00" fill="#f2f2f2">libraries</text>
</a>
</g>
</g>
<!-- mb&#45;ops/events&#45;&gt;mb&#45;public&#45;api/libraries -->
<g id="edge8" class="edge">
<title>mb&#45;ops/events&#45;&gt;mb&#45;public&#45;api/libraries</title>
<path fill="none" stroke="#7fa9ae" d="M70.04,-19.5C156.25,-19.5 419,-19.5 419,-19.5 419,-19.5 419,-53.65 419,-53.65"/>
<polygon fill="#7fa9ae" stroke="#7fa9ae" points="419,-58.65 416.75,-53.65 419,-56.15 419,-53.65 419,-53.65 419,-53.65 419,-56.15 421.25,-53.65 419,-58.65 419,-58.65"/>
</g>
<!-- mb&#45;public&#45;api/events -->
<g id="node11" class="node">
<title>mb&#45;public&#45;api/events</title>
<g id="a_node11"><a xlink:href="mb-public-api/events" xlink:title="events">
<polygon fill="#d60007" stroke="#f2f2f2" points="373,-63 321,-63 319,-61 319,-45 371,-45 373,-47 373,-63"/>
<polyline fill="none" stroke="#f2f2f2" points="371,-61 319,-61 "/>
<polyline fill="none" stroke="#f2f2f2" points="371,-61 371,-45 "/>
<polyline fill="none" stroke="#f2f2f2" points="371,-61 373,-63 "/>
<text text-anchor="middle" x="346" y="-51.8" font-family="Helvetica,sans-Serif" font-size="9.00" fill="#f2f2f2">events</text>
</a>
</g>
</g>
<!-- mb&#45;ops/events&#45;&gt;mb&#45;public&#45;api/events -->
<g id="edge9" class="edge">
<title>mb&#45;ops/events&#45;&gt;mb&#45;public&#45;api/events</title>
<path fill="none" stroke="#7fa9ae" d="M52,-34.06C52,-41.82 52,-51.75 52,-51.75 52,-51.75 313.87,-51.75 313.87,-51.75"/>
<polygon fill="#7fa9ae" stroke="#7fa9ae" points="318.87,-51.75 313.87,-54 316.37,-51.75 313.87,-51.75 313.87,-51.75 313.87,-51.75 316.37,-51.75 313.87,-49.5 318.87,-51.75 318.87,-51.75"/>
</g>
<!-- mb&#45;public&#45;api/models -->
<g id="node12" class="node">
<title>mb&#45;public&#45;api/models</title>
<g id="a_node12"><a xlink:href="mb-public-api/models" xlink:title="models">
<polygon fill="#d60007" stroke="#f2f2f2" points="303,-41 251,-41 249,-39 249,-23 301,-23 303,-25 303,-41"/>
<polyline fill="none" stroke="#f2f2f2" points="301,-39 249,-39 "/>
<polyline fill="none" stroke="#f2f2f2" points="301,-39 301,-23 "/>
<polyline fill="none" stroke="#f2f2f2" points="301,-39 303,-41 "/>
<text text-anchor="middle" x="276" y="-29.8" font-family="Helvetica,sans-Serif" font-size="9.00" fill="#f2f2f2">models</text>
</a>
</g>
</g>
<!-- mb&#45;ops/events&#45;&gt;mb&#45;public&#45;api/models -->
<g id="edge11" class="edge">
<title>mb&#45;ops/events&#45;&gt;mb&#45;public&#45;api/models</title>
<path fill="none" stroke="#7fa9ae" d="M70.18,-25.75C70.18,-25.75 243.99,-25.75 243.99,-25.75"/>
<polygon fill="#7fa9ae" stroke="#7fa9ae" points="248.99,-25.75 243.99,-28 246.49,-25.75 243.99,-25.75 243.99,-25.75 243.99,-25.75 246.49,-25.75 243.99,-23.5 248.99,-25.75 248.99,-25.75"/>
</g>
<!-- mb&#45;public&#45;api/helpers -->
<g id="node13" class="node">
<title>mb&#45;public&#45;api/helpers</title>
<g id="a_node13"><a xlink:href="mb-public-api/helpers" xlink:title="helpers">
<polygon fill="#d60007" stroke="#f2f2f2" points="225.5,-83 173.5,-83 171.5,-81 171.5,-65 223.5,-65 225.5,-67 225.5,-83"/>
<polyline fill="none" stroke="#f2f2f2" points="223.5,-81 171.5,-81 "/>
<polyline fill="none" stroke="#f2f2f2" points="223.5,-81 223.5,-65 "/>
<polyline fill="none" stroke="#f2f2f2" points="223.5,-81 225.5,-83 "/>
<text text-anchor="middle" x="198.5" y="-71.8" font-family="Helvetica,sans-Serif" font-size="9.00" fill="#f2f2f2">helpers</text>
</a>
</g>
</g>
<!-- mb&#45;public&#45;api/db&#45;&gt;mb&#45;public&#45;api/helpers -->
<g id="edge13" class="edge">
<title>mb&#45;public&#45;api/db&#45;&gt;mb&#45;public&#45;api/helpers</title>
<path fill="none" stroke="#7fa9ae" d="M148.11,-69.67C148.11,-69.67 166.28,-69.67 166.28,-69.67"/>
<polygon fill="#7fa9ae" stroke="#7fa9ae" points="171.28,-69.67 166.28,-71.92 168.78,-69.67 166.28,-69.67 166.28,-69.67 166.28,-69.67 168.78,-69.67 166.28,-67.42 171.28,-69.67 171.28,-69.67"/>
</g>
<!-- mb&#45;public&#45;api/libraries&#45;&gt;mb&#45;public&#45;api/db -->
<g id="edge23" class="edge">
<title>mb&#45;public&#45;api/libraries&#45;&gt;mb&#45;public&#45;api/db</title>
<path fill="none" stroke="#7fa9ae" d="M385.93,-68C355.72,-68 311,-68 311,-68 311,-68 311,-57.6 311,-57.6 311,-57.6 153.22,-57.6 153.22,-57.6"/>
<polygon fill="#7fa9ae" stroke="#7fa9ae" points="148.22,-57.6 153.22,-55.35 150.72,-57.6 153.22,-57.6 153.22,-57.6 153.22,-57.6 150.72,-57.6 153.22,-59.85 148.22,-57.6 148.22,-57.6"/>
</g>
<!-- mb&#45;public&#45;api/libraries&#45;&gt;mb&#45;public&#45;api/models -->
<g id="edge26" class="edge">
<title>mb&#45;public&#45;api/libraries&#45;&gt;mb&#45;public&#45;api/models</title>
<path fill="none" stroke="#7fa9ae" d="M408,-58.95C408,-47.43 408,-29 408,-29 408,-29 308.03,-29 308.03,-29"/>
<polygon fill="#7fa9ae" stroke="#7fa9ae" points="303.03,-29 308.03,-26.75 305.53,-29 308.03,-29 308.03,-29 308.03,-29 305.53,-29 308.03,-31.25 303.03,-29 303.03,-29"/>
</g>
<!-- mb&#45;public&#45;api/libraries&#45;&gt;mb&#45;public&#45;api/helpers -->
<g id="edge24" class="edge">
<title>mb&#45;public&#45;api/libraries&#45;&gt;mb&#45;public&#45;api/helpers</title>
<path fill="none" stroke="#7fa9ae" d="M385.83,-71C385.83,-71 230.78,-71 230.78,-71"/>
<polygon fill="#7fa9ae" stroke="#7fa9ae" points="225.78,-71 230.78,-68.75 228.28,-71 230.78,-71 230.78,-71 230.78,-71 228.28,-71 230.78,-73.25 225.78,-71 225.78,-71"/>
</g>
<!-- models/pos -->
<g id="node14" class="node">
<title>models/pos</title>
<g id="a_node14"><a xlink:href="models/pos" xlink:title="pos">
<polygon fill="#d60007" stroke="#f2f2f2" points="518,-108 466,-108 464,-106 464,-90 516,-90 518,-92 518,-108"/>
<polyline fill="none" stroke="#f2f2f2" points="516,-106 464,-106 "/>
<polyline fill="none" stroke="#f2f2f2" points="516,-106 516,-90 "/>
<polyline fill="none" stroke="#f2f2f2" points="516,-106 518,-108 "/>
<text text-anchor="middle" x="491" y="-96.8" font-family="Helvetica,sans-Serif" font-size="9.00" fill="#f2f2f2">pos</text>
</a>
</g>
</g>
<!-- mb&#45;public&#45;api/libraries&#45;&gt;models/pos -->
<g id="edge25" class="edge">
<title>mb&#45;public&#45;api/libraries&#45;&gt;models/pos</title>
<path fill="none" stroke="#7fa9ae" d="M413,-77.17C413,-85.33 413,-96 413,-96 413,-96 458.72,-96 458.72,-96"/>
<polygon fill="#7fa9ae" stroke="#7fa9ae" points="463.72,-96 458.72,-98.25 461.22,-96 458.72,-96 458.72,-96 458.72,-96 461.22,-96 458.72,-93.75 463.72,-96 463.72,-96"/>
</g>
<!-- mb&#45;public&#45;api/events&#45;&gt;mb&#45;public&#45;api/db -->
<g id="edge14" class="edge">
<title>mb&#45;public&#45;api/events&#45;&gt;mb&#45;public&#45;api/db</title>
<path fill="none" stroke="#7fa9ae" d="M318.86,-55.8C318.86,-55.8 153.24,-55.8 153.24,-55.8"/>
<polygon fill="#7fa9ae" stroke="#7fa9ae" points="148.24,-55.8 153.24,-53.55 150.74,-55.8 153.24,-55.8 153.24,-55.8 153.24,-55.8 150.74,-55.8 153.24,-58.05 148.24,-55.8 148.24,-55.8"/>
</g>
<!-- mb&#45;public&#45;api/events&#45;&gt;mb&#45;public&#45;api/libraries -->
<g id="edge15" class="edge">
<title>mb&#45;public&#45;api/events&#45;&gt;mb&#45;public&#45;api/libraries</title>
<path fill="none" stroke="#7fa9ae" d="M373.04,-52C397.6,-52 430,-52 430,-52 430,-52 430,-53.88 430,-53.88"/>
<polygon fill="#7fa9ae" stroke="#7fa9ae" points="430,-58.88 427.75,-53.88 430,-56.38 430,-53.88 430,-53.88 430,-53.88 430,-56.38 432.25,-53.88 430,-58.88 430,-58.88"/>
</g>
<!-- mb&#45;public&#45;api/events&#45;&gt;mb&#45;public&#45;api/models -->
<g id="edge16" class="edge">
<title>mb&#45;public&#45;api/events&#45;&gt;mb&#45;public&#45;api/models</title>
<path fill="none" stroke="#7fa9ae" d="M318.81,-49.5C295.96,-49.5 267,-49.5 267,-49.5 267,-49.5 267,-46.16 267,-46.16"/>
<polygon fill="#7fa9ae" stroke="#7fa9ae" points="267,-41.16 269.25,-46.16 267,-43.66 267,-46.16 267,-46.16 267,-46.16 267,-43.66 264.75,-46.16 267,-41.16 267,-41.16"/>
</g>
<!-- mb&#45;public&#45;api/events&#45;&gt;mb&#45;public&#45;api/helpers -->
<g id="edge17" class="edge">
<title>mb&#45;public&#45;api/events&#45;&gt;mb&#45;public&#45;api/helpers</title>
<path fill="none" stroke="#7fa9ae" d="M318.86,-61.2C280.49,-61.2 215,-61.2 215,-61.2 215,-61.2 215,-61.58 215,-61.58"/>
<polygon fill="#7fa9ae" stroke="#7fa9ae" points="215,-64.97 212.75,-59.97 215,-62.47 215,-59.97 215,-59.97 215,-59.97 215,-62.47 217.25,-59.97 215,-64.97 215,-64.97"/>
</g>
<!-- mb&#45;public&#45;api/models&#45;&gt;mb&#45;public&#45;api/db -->
<g id="edge27" class="edge">
<title>mb&#45;public&#45;api/models&#45;&gt;mb&#45;public&#45;api/db</title>
<path fill="none" stroke="#7fa9ae" d="M248.88,-35.75C206.66,-35.75 130,-35.75 130,-35.75 130,-35.75 130,-48.77 130,-48.77"/>
<polygon fill="#7fa9ae" stroke="#7fa9ae" points="130,-53.77 127.75,-48.77 130,-51.27 130,-48.77 130,-48.77 130,-48.77 130,-51.27 132.25,-48.77 130,-53.77 130,-53.77"/>
</g>
<!-- mb&#45;public&#45;api/models&#45;&gt;mb&#45;public&#45;api/libraries -->
<g id="edge29" class="edge">
<title>mb&#45;public&#45;api/models&#45;&gt;mb&#45;public&#45;api/libraries</title>
<path fill="none" stroke="#7fa9ae" d="M303.15,-35C338.83,-35 397,-35 397,-35 397,-35 397,-53.98 397,-53.98"/>
<polygon fill="#7fa9ae" stroke="#7fa9ae" points="397,-58.98 394.75,-53.98 397,-56.48 397,-53.98 397,-53.98 397,-53.98 397,-56.48 399.25,-53.98 397,-58.98 397,-58.98"/>
</g>
<!-- mb&#45;public&#45;api/models&#45;&gt;mb&#45;public&#45;api/events -->
<g id="edge30" class="edge">
<title>mb&#45;public&#45;api/models&#45;&gt;mb&#45;public&#45;api/events</title>
<path fill="none" stroke="#7fa9ae" d="M285,-41.05C285,-44.33 285,-47.25 285,-47.25 285,-47.25 313.71,-47.25 313.71,-47.25"/>
<polygon fill="#7fa9ae" stroke="#7fa9ae" points="318.71,-47.25 313.71,-49.5 316.21,-47.25 313.71,-47.25 313.71,-47.25 313.71,-47.25 316.21,-47.25 313.71,-45 318.71,-47.25 318.71,-47.25"/>
</g>
<!-- mb&#45;public&#45;api/models&#45;&gt;mb&#45;public&#45;api/helpers -->
<g id="edge28" class="edge">
<title>mb&#45;public&#45;api/models&#45;&gt;mb&#45;public&#45;api/helpers</title>
<path fill="none" stroke="#7fa9ae" d="M248.7,-39.25C224.84,-39.25 194,-39.25 194,-39.25 194,-39.25 194,-59.87 194,-59.87"/>
<polygon fill="#7fa9ae" stroke="#7fa9ae" points="194,-64.87 191.75,-59.87 194,-62.37 194,-59.87 194,-59.87 194,-59.87 194,-62.37 196.25,-59.87 194,-64.87 194,-64.87"/>
</g>
<!-- mb&#45;public&#45;api/helpers&#45;&gt;mb&#45;public&#45;api/db -->
<g id="edge18" class="edge">
<title>mb&#45;public&#45;api/helpers&#45;&gt;mb&#45;public&#45;api/db</title>
<path fill="none" stroke="#7fa9ae" d="M171.39,-67.33C171.39,-67.33 153.22,-67.33 153.22,-67.33"/>
<polygon fill="#7fa9ae" stroke="#7fa9ae" points="148.22,-67.33 153.22,-65.08 150.72,-67.33 153.22,-67.33 153.22,-67.33 153.22,-67.33 150.72,-67.33 153.22,-69.58 148.22,-67.33 148.22,-67.33"/>
</g>
<!-- mb&#45;public&#45;api/helpers&#45;&gt;mb&#45;public&#45;api/libraries -->
<g id="edge21" class="edge">
<title>mb&#45;public&#45;api/helpers&#45;&gt;mb&#45;public&#45;api/libraries</title>
<path fill="none" stroke="#7fa9ae" d="M225.67,-74C225.67,-74 380.72,-74 380.72,-74"/>
<polygon fill="#7fa9ae" stroke="#7fa9ae" points="385.72,-74 380.72,-76.25 383.22,-74 380.72,-74 380.72,-74 380.72,-74 383.22,-74 380.72,-71.75 385.72,-74 385.72,-74"/>
</g>
<!-- mb&#45;public&#45;api/helpers&#45;&gt;mb&#45;public&#45;api/events -->
<g id="edge20" class="edge">
<title>mb&#45;public&#45;api/helpers&#45;&gt;mb&#45;public&#45;api/events</title>
<path fill="none" stroke="#7fa9ae" d="M204,-64.67C204,-61.81 204,-59.4 204,-59.4 204,-59.4 313.96,-59.4 313.96,-59.4"/>
<polygon fill="#7fa9ae" stroke="#7fa9ae" points="318.96,-59.4 313.96,-61.65 316.46,-59.4 313.96,-59.4 313.96,-59.4 313.96,-59.4 316.46,-59.4 313.96,-57.15 318.96,-59.4 318.96,-59.4"/>
</g>
<!-- mb&#45;public&#45;api/helpers&#45;&gt;mb&#45;public&#45;api/models -->
<g id="edge22" class="edge">
<title>mb&#45;public&#45;api/helpers&#45;&gt;mb&#45;public&#45;api/models</title>
<path fill="none" stroke="#7fa9ae" d="M183,-64.79C183,-53.98 183,-37.5 183,-37.5 183,-37.5 243.6,-37.5 243.6,-37.5"/>
<polygon fill="#7fa9ae" stroke="#7fa9ae" points="248.6,-37.5 243.6,-39.75 246.1,-37.5 243.6,-37.5 243.6,-37.5 243.6,-37.5 246.1,-37.5 243.6,-35.25 248.6,-37.5 248.6,-37.5"/>
</g>
<!-- mb&#45;public&#45;api/helpers&#45;&gt;models/pos -->
<g id="edge19" class="edge">
<title>mb&#45;public&#45;api/helpers&#45;&gt;models/pos</title>
<path fill="none" stroke="#7fa9ae" d="M199,-83.17C199,-91.33 199,-102 199,-102 199,-102 458.79,-102 458.79,-102"/>
<polygon fill="#7fa9ae" stroke="#7fa9ae" points="463.79,-102 458.79,-104.25 461.29,-102 458.79,-102 458.79,-102 458.79,-102 461.29,-102 458.79,-99.75 463.79,-102 463.79,-102"/>
</g>
</g>
</svg>
